<?xml version="1.0" encoding="UTF-8"?>
<!DOCTYPE svg PUBLIC "-//W3C//DTD SVG 1.0//EN" "http://www.w3.org/TR/2001/REC-SVG-20010904/DTD/svg10.dtd">
<!-- Creator: CorelDRAW X8 -->
<svg xmlns="http://www.w3.org/2000/svg" xml:space="preserve" width="3843px" height="616px" version="1.0" style="shape-rendering:geometricPrecision; text-rendering:geometricPrecision; image-rendering:optimizeQuality; fill-rule:evenodd; clip-rule:evenodd"
viewBox="0 0 5435 871"
 xmlns:xlink="http://www.w3.org/1999/xlink">
 <defs>
  <style type="text/css">
   <![CDATA[
    .fil1 {fill:black}
    .fil0 {fill:#DC0714}
   ]]>
  </style>
 </defs>
 <g id="Layer_x0020_1">
  <metadata id="CorelCorpID_0Corel-Layer"/>
  <g id="_2152865853072">
   <g id="_1393678747008">
    <path class="fil0" d="M2736 414c0,62 6,117 25,167 18,49 43,86 68,123 6,6 12,12 18,19 13,18 31,24 44,37 12,18 67,55 92,61 0,-6 -6,-12 -6,-18l-31 -56c-6,-24 -62,-123 -55,-148 0,-31 30,-43 37,-68l6 0c0,19 18,50 31,74l117 247c6,13 6,7 25,13 18,0 43,6 68,6 0,-12 -7,-19 -13,-31l-74 -154c0,-13 -6,-19 -12,-31 -19,-37 -93,-198 -93,-216 0,-19 19,-38 31,-56l6 -19c6,0 0,0 6,0 0,13 7,19 13,31l31 62c24,49 43,105 68,154l117 248c25,-7 55,-13 74,-25 0,-6 0,-13 -6,-19l-25 -61c-25,-50 -55,-105 -74,-155 -12,-31 -31,-55 -37,-86 -25,-44 -56,-105 -74,-155 -6,-18 -13,-24 -19,-43 -6,-6 -18,-25 -18,-43 6,-31 37,-43 43,-74 6,6 6,6 6,18 6,6 6,6 13,13 6,12 6,24 18,43 6,12 6,24 12,37l161 340c12,24 25,49 37,74l37 80c12,-12 19,-19 31,-25 12,-12 19,-18 31,-24 0,-19 -12,-25 -19,-44l-43 -99c-6,-6 -6,-12 -12,-18 0,-6 -6,-12 -6,-19l-173 -376c-37,-74 -56,-81 -19,-130 6,-6 6,-12 12,-19 0,0 0,-6 7,-6l6 -12c0,12 12,31 18,43 7,12 7,25 19,37l198 433c0,6 6,12 12,18l37 80c0,13 6,13 6,25 6,6 12,12 12,19 31,-19 68,-124 75,-173 30,-124 -13,-254 -87,-352 -37,-44 -99,-99 -148,-118 -68,-31 -124,-43 -204,-43 -111,0 -216,49 -290,124 -74,74 -130,179 -130,290l0 0z"/>
    <path class="fil1" d="M309 698c-111,0 -99,0 -80,-80 6,-25 12,-44 12,-62 6,-19 12,-37 18,-62 0,-12 7,-18 7,-31 6,-31 -7,-24 86,-24 93,0 136,49 117,142 -18,86 -74,117 -160,117l0 0zm-25 -297l50 -197c12,-43 30,-37 80,-37 74,0 86,37 86,99 0,49 -24,92 -61,111 -44,31 -87,24 -155,24l0 0zm-160 -234c92,0 98,-6 67,99 -6,18 -12,43 -18,68 -6,43 -74,327 -87,345 -18,25 -43,19 -74,19 -6,6 -12,31 -12,37 62,0 130,0 191,0 130,0 241,19 346,-43 19,-19 37,-31 50,-50 49,-86 12,-191 -99,-222 -25,-6 -19,6 -25,-6 19,0 50,-6 62,-13 49,-18 105,-67 105,-129 0,-50 0,-74 -43,-111 -25,-19 -62,-31 -105,-31l-352 0c0,6 -6,31 -6,37l0 0z"/>
    <path class="fil1" d="M3953 698c-13,0 -31,0 -50,-6 -24,-13 -6,-62 7,-87l98 -395c13,-43 25,-43 68,-43 62,0 99,43 112,105 24,99 -13,284 -93,370 -6,0 -6,7 -12,13 -38,24 -75,43 -130,43l0 0zm-155 -531c105,0 99,0 75,92 -13,56 -99,402 -112,414 -12,25 -31,25 -61,25 -7,6 -13,31 -13,37 74,0 303,6 365,-6 37,-6 68,-19 98,-31 25,-12 50,-31 75,-56 30,-31 55,-74 74,-111 18,-55 31,-99 31,-160 0,-155 -99,-241 -235,-241l-284 0c0,12 -6,31 -13,37l0 0z"/>
    <path class="fil1" d="M2088 167c98,0 80,0 37,160 -7,44 -81,334 -87,346 -12,25 -37,25 -68,25 0,0 -12,31 -12,37l278 0c0,-12 6,-25 12,-37 -111,0 -92,6 -49,-161 6,-24 6,-24 24,-37 13,-12 50,-49 56,-49 6,6 6,12 12,25l37 80c13,18 19,37 25,55 43,87 25,87 -43,87 -6,6 -12,31 -12,37l271 0c0,-6 7,-31 13,-37 -62,0 -68,-12 -87,-49 -37,-81 -80,-186 -117,-260 -6,-6 -6,-18 -12,-25 12,-6 49,-43 67,-61l87 -74c80,-81 117,-44 123,-75 7,-6 7,-18 7,-24l-223 0c-6,12 -6,24 -12,37 74,0 74,37 37,68l-80 74c-6,6 -13,12 -19,18l-130 118c0,-13 7,-25 7,-37l43 -167c18,-74 18,-74 86,-74 0,-6 7,-31 13,-37l-272 0c-6,12 -12,24 -12,37l0 0z"/>
    <path class="fil1" d="M4632 445l0 0zm0 0c0,-13 19,-68 25,-87 12,-43 25,-123 37,-160 12,-37 37,-31 80,-31 0,-6 6,-31 6,-37l-271 0c0,12 -6,24 -6,37 80,0 74,6 61,68l-105 395c0,12 -6,25 -6,37 -12,31 -37,31 -74,31 0,12 -6,25 -6,37l278 0c0,-12 6,-25 6,-37 -105,0 -87,6 -49,-167 6,-25 30,-31 55,-55 6,-7 25,-25 31,-25l93 216c12,37 -37,31 -68,31 0,12 -6,18 -6,37l265 0c6,-12 12,-25 12,-37 -80,0 -74,-31 -105,-99l-55 -117c0,-6 -6,-13 -6,-19 -6,-18 -19,-31 -25,-49 -6,-6 -6,-13 -12,-25 0,-6 -7,-18 -7,-25 7,-6 7,-6 13,-12l111 -99c6,-6 6,-12 12,-12 7,-6 13,-6 19,-19 31,-31 68,-49 117,-55 0,-13 6,-25 13,-37l-229 0c0,12 -6,24 -6,37 62,0 74,24 37,68 -31,24 -87,74 -117,105l-118 105 0 0z"/>
    <path class="fil1" d="M1414 167c112,0 81,31 44,173l-75 278c-12,43 -37,80 -92,80 0,12 -6,25 -13,37l229 0c0,-12 6,-25 6,-37 -49,0 -80,-25 -80,-74 0,-31 18,-68 25,-93l55 -222c6,-13 13,-37 13,-50l6 0c0,13 6,25 12,31l210 445 43 0 87 -383c24,-86 31,-185 105,-185 0,-6 12,-31 12,-37l-204 0c0,6 -6,24 -6,37 74,0 80,31 68,92l-62 285c-6,0 -6,0 -6,0 0,-7 0,-7 0,-13 -6,-6 -6,-6 -6,-12l-185 -389 -173 0c-6,12 -13,24 -13,37l0 0z"/>
    <path class="fil1" d="M994 290c0,0 25,186 25,204l-154 0c31,-43 80,-136 111,-179 6,-12 12,-25 18,-25zm-352 408c-6,12 -12,25 -12,37l204 0c6,0 12,-19 12,-37 -12,0 -31,0 -43,-6 -56,-25 6,-111 25,-142 6,0 6,-6 12,-6l191 0c0,30 13,74 13,129 0,31 -62,25 -74,25 0,6 -6,31 -6,37l265 0c0,-12 12,-25 12,-37 -86,0 -74,-19 -86,-117l-37 -297c-6,-25 -12,-55 -12,-80 -7,-25 -13,-50 -13,-74l-55 0 -25 37c-6,12 -12,24 -19,37l-253 407c-18,31 -31,50 -55,68 -13,13 -25,19 -44,19l0 0z"/>
    <path class="fil1" d="M5145 167c105,0 86,-6 43,160l-86 346c-13,25 -37,25 -68,25 -6,12 -6,25 -13,37l278 0c6,-12 13,-25 13,-37 -99,0 -93,6 -68,-99l86 -352c25,-80 19,-80 99,-80 0,-13 6,-25 6,-37l-284 0c-6,12 -6,24 -6,37l0 0z"/>
   </g>
  </g>
 </g>
</svg>
