<?xml version="1.0" encoding="UTF-8"?>
<!DOCTYPE svg PUBLIC "-//W3C//DTD SVG 1.0//EN" "http://www.w3.org/TR/2001/REC-SVG-20010904/DTD/svg10.dtd">
<!-- Creator: CorelDRAW X8 -->
<svg xmlns="http://www.w3.org/2000/svg" xml:space="preserve" width="3843px" height="1188px" version="1.0" style="shape-rendering:geometricPrecision; text-rendering:geometricPrecision; image-rendering:optimizeQuality; fill-rule:evenodd; clip-rule:evenodd"
viewBox="0 0 5401 1669"
 xmlns:xlink="http://www.w3.org/1999/xlink">
 <defs>
  <style type="text/css">
   <![CDATA[
    .fil0 {fill:#193783}
   ]]>
  </style>
 </defs>
 <g id="Layer_x0020_1">
  <metadata id="CorelCorpID_0Corel-Layer"/>
  <path class="fil0" d="M4922 669l7 301 -129 0c0,-13 24,-62 30,-74 13,-24 19,-49 31,-74 12,-18 61,-141 61,-153l0 0zm-4480 743l12 0 -12 30c0,7 -6,13 -18,7 -7,0 -7,-7 -7,-19l31 -80c0,-12 6,-12 18,-12 7,6 7,12 7,18l-7 19 19 6 6 -12c12,-25 0,-43 -18,-49 -25,-7 -43,0 -49,24l-25 80c-12,25 -6,43 18,49 25,6 43,0 49,-24l19 -50 -37 -12 -6 25 0 0zm153 104c-6,-6 0,-12 0,-18l6 -25c0,-12 0,-24 -12,-37l0 0c12,0 19,-12 25,-24l0 -13c6,-24 0,-36 -25,-43l-37 -6 -36 154 24 6 12 -68 13 7c12,0 12,6 12,18l-6 24c-6,13 -6,19 0,25l24 0zm-12 -141c6,6 12,12 6,18l0 19c-6,12 -12,12 -18,12l-12 0 12 -49 12 0 0 0zm92 -6l-18 122c0,25 12,43 37,43 24,7 36,-6 36,-36l19 -117 -25 -6 -12 123c-6,12 -12,18 -18,12 -7,0 -13,0 -13,-12l19 -123 -25 -6zm160 12l-37 0 0 160 24 0 0 -56 13 0c24,0 37,-18 37,-43l0 -18c0,-25 -13,-43 -37,-43l0 0zm0 25c6,0 12,6 12,18l0 18c0,13 -6,19 -12,19l-13 0 0 -55 13 0 0 0zm147 -31l-37 6 19 160 43 -7c24,-6 30,-18 30,-43l0 -12c-6,-18 -12,-30 -24,-30l0 0c12,-7 12,-19 12,-37l0 -6c-6,-25 -18,-31 -43,-31l0 0 0 0zm12 86c13,0 13,6 19,18l0 12c0,13 -6,19 -13,19l-12 0 -6 -43 12 -6 0 0zm-6 -62c6,0 12,0 12,13l0 12c0,12 0,18 -12,18l-12 0 0 -43 12 0 0 0zm154 50l0 24c6,12 0,12 -7,18 -6,0 -12,0 -18,-12l-18 -86c0,-12 0,-12 12,-18 6,0 12,0 12,12l6 19 25 -7 -6 -12c-6,-24 -19,-37 -43,-31 -25,7 -37,19 -31,43l19 80c6,25 24,37 49,31 24,-6 30,-19 24,-43l-6 -25 -18 7 0 0zm98 -136l-37 13 31 159 18 -6 -6 -30 31 -7 12 25 24 -12 -73 -142zm-12 37l0 0 36 68 -18 12 -18 -80 0 0zm-860 -184c154,49 350,-49 350,86l0 19c43,0 31,6 31,-37 0,-148 -74,-184 -166,-215 -104,-31 -227,-25 -295,-147 -42,79 -49,257 80,294l0 0zm970 0c-153,49 -344,-49 -344,86l0 19c-49,0 -37,6 -37,-37 0,-148 80,-184 166,-215 105,-31 227,-25 295,-147 43,79 49,257 -80,294l0 0zm-227 -767c0,80 -31,135 -74,190 -24,31 -49,43 -86,92 -12,19 -24,43 -36,68 -43,116 -31,386 -31,522l-31 0 -24 0c0,-136 12,-406 -37,-522 -6,-25 -19,-49 -37,-68 -37,-49 -61,-61 -80,-92 -43,-55 -80,-110 -80,-190 0,-37 6,-74 19,-104l24 -37c49,-68 129,-105 215,-105 86,0 166,37 215,105l25 37c12,30 18,67 18,104zm319 344c0,43 -12,73 -31,104 -6,12 -12,12 -18,18 -31,50 -92,74 -141,92 -74,19 -154,37 -209,80 -104,80 -98,117 -98,234l-31 0c0,-221 -30,-492 154,-645 86,-74 227,-104 313,-12 37,30 61,73 61,129l0 0zm-1154 0c0,43 12,73 37,104 0,12 6,12 12,18 31,50 92,74 141,92 74,19 154,37 215,80 105,80 92,117 92,234l31 0c0,-221 31,-492 -153,-645 -86,-74 -227,-104 -313,-12 -37,30 -62,73 -62,129l0 0zm-233 92l6 -98c0,-13 0,-7 0,-25 0,-6 0,-18 0,-25 25,-196 55,-306 129,-478 6,-13 12,-31 12,-43l289 -80c30,-12 116,-25 153,-31l80 -6c31,-6 203,-6 227,-6 25,6 123,12 166,18 86,19 184,31 270,62 18,6 123,37 135,55 0,6 0,6 0,12 24,49 43,92 61,154l62 221c18,135 18,190 18,325 0,18 0,31 0,49l-12 123c-6,31 -12,55 -19,80l-36 153 -68 172c-6,12 -12,18 -12,37 -13,0 -31,6 -37,6 -12,6 -25,12 -37,12 -12,6 -18,12 -37,12 -6,7 -6,7 -12,7 -12,6 -18,6 -25,6 -24,12 -49,18 -73,24 -19,0 -25,6 -37,6 -6,7 -18,7 -25,7l-141 24c-12,0 -30,6 -43,6l-92 6c-12,7 -30,0 -49,0 -55,13 -239,0 -295,-12 -153,-31 -122,-18 -270,-61l-110 -37c-25,-12 -25,0 -43,-55l-37 -92c-6,-7 -6,-13 -6,-19 -31,-67 -37,-104 -49,-172l-37 -196c0,-6 0,-12 0,-19 0,-18 0,-12 0,-24 -6,-37 -6,-61 -6,-98l0 0zm730 -835l154 0c55,0 86,6 141,12 12,0 25,0 43,6l110 19c80,18 209,55 283,86 43,12 30,12 49,49 55,104 98,270 123,380 0,25 6,56 12,80 0,12 0,19 0,31l6 67c0,19 6,31 6,43 0,203 -12,289 -55,461l-74 227c-30,86 -43,73 -92,92 -30,18 -55,18 -73,31 -74,30 -209,49 -289,67l-92 12c-6,0 -18,0 -25,0 -24,6 -61,6 -98,6l-141 0c-18,0 -37,0 -49,0 -86,-12 -172,-24 -258,-42l-159 -43c-13,-7 -25,-7 -37,-13 -74,-24 -98,-30 -117,-86l-61 -141c-25,-86 -31,-116 -49,-202 -25,-99 -31,-240 -31,-344 0,-80 12,-190 31,-270 6,-31 12,-55 18,-80 6,-43 86,-301 123,-319l104 -37c105,-37 209,-61 319,-74l86 -12c19,-6 49,-6 92,-6l0 0zm3382 221c-43,0 -73,-6 -116,-6 -160,0 -264,6 -418,73 -37,13 -73,37 -110,62 -68,43 -129,98 -178,159 -6,7 -6,7 -12,13 -7,6 -7,6 -13,12 -98,123 -184,319 -184,479 0,122 31,245 104,343 19,25 50,56 74,74 6,6 0,0 6,6l80 55c12,7 31,19 49,25l49 18c43,19 80,25 123,31 80,19 252,19 344,6l43 -6c0,-18 122,-288 141,-331 6,-6 6,-13 12,-25 6,-12 6,-18 12,-31 7,-12 25,-36 25,-55 -31,6 -55,19 -86,25 -61,12 -129,30 -190,30 -25,0 -31,7 -49,0 -19,0 -13,0 -25,0 -12,0 -18,0 -31,-6 -43,-6 -67,-6 -110,-24 -49,-25 -92,-62 -111,-111 -30,-92 -6,-202 43,-276l50 -49c6,-6 12,-12 24,-18 18,-13 37,-25 55,-37 49,-25 86,-31 135,-49 68,-19 184,-7 252,18 6,0 12,6 18,6 13,6 19,12 31,12l55 37c6,13 13,19 25,19 37,-62 80,-117 110,-178 19,-31 111,-172 117,-191 -25,-6 -135,-67 -166,-79l-116 -62c-7,-6 -13,-6 -19,-12 -12,-6 -12,-6 -24,-12l-19 55 0 0zm-1516 939l-227 0c6,-18 55,-184 62,-196l177 0c19,0 37,12 43,24 56,68 -6,172 -55,172l0 0zm-98 -436l31 -98c6,-18 12,-31 12,-49 6,-12 18,-37 18,-55l123 0c31,0 68,43 68,92 0,49 -31,98 -74,110 -18,6 -147,0 -178,0l0 0zm-264 -546l-172 313c-6,6 -6,12 -12,25 -6,6 -12,12 -12,24 -6,6 -6,6 -6,12 -7,7 -7,7 -7,13l129 0 -276 920c0,13 -6,13 -6,31 61,0 620,6 706,-6 12,-6 30,-6 43,-6 30,-6 55,-13 80,-19 6,0 12,0 18,0 49,-18 104,-36 147,-67 6,-6 6,-6 13,-12 49,-25 79,-62 104,-105 12,-12 24,-37 31,-49 36,-80 36,-172 6,-252l-37 -79c-19,-37 -19,-37 -43,-74 -6,-6 -6,-6 -12,-12 -6,-6 -6,0 -6,-13 12,-6 30,-18 42,-30 68,-43 136,-123 166,-197 37,-98 37,-190 -18,-276 -6,-18 -19,-24 -25,-31 -30,-42 -80,-67 -123,-92 -24,-6 -49,-12 -79,-18l-491 0 -6 0 0 0 -7 0 0 0 0 0 -6 0 0 0 -6 0 0 0 0 0 -6 0 0 0 -6 0 0 0 0 0 -6 0 0 0 -6 0 0 0 0 0 -7 0 0 0 -6 0 0 0 0 0 -6 0 0 0 -6 0 0 0 0 0 -6 0 0 0 0 0 -6 0 0 0 -6 0 0 0 0 0 -7 0 0 0 -6 0 0 0 0 0 -6 0 0 0 -6 0 0 0 0 0 -6 0 0 0 -6 0 0 0 0 0 -6 0 0 0 -6 0 0 0 0 0 -7 0 0 0 -6 0 0 0 0 0 -6 0 0 0zm3124 1283l0 80 -460 0c-6,0 -6,-7 -6,-13l0 -227 -283 0 -104 240 -479 0c0,-13 0,-13 6,-19l56 -104c6,-12 12,-25 18,-31 6,-12 6,-18 12,-31 7,-12 13,-18 19,-30l49 -92c6,-6 6,-19 12,-31l55 -104c7,0 7,-6 13,-13 6,-12 6,-18 12,-30l160 -295c12,-24 24,-43 36,-61l62 -123c-13,6 0,6 -13,6l-122 0c0,-18 0,0 6,-12l227 -381c221,0 442,0 669,0 0,62 6,111 6,166l6 129c0,12 0,24 0,43 0,18 0,18 0,37 0,12 0,30 0,43l6 86c7,24 0,55 7,85l6 80c0,13 0,25 0,43 0,19 0,19 0,37 0,61 6,117 6,172 0,31 6,49 6,86 0,18 0,18 0,37 0,12 0,30 0,43l6 129c0,12 0,24 6,43 0,0 0,6 0,12l0 0z"/>
 </g>
</svg>
