<?xml version="1.0" encoding="UTF-8"?>
<!DOCTYPE svg PUBLIC "-//W3C//DTD SVG 1.0//EN" "http://www.w3.org/TR/2001/REC-SVG-20010904/DTD/svg10.dtd">
<!-- Creator: CorelDRAW X8 -->
<svg xmlns="http://www.w3.org/2000/svg" xml:space="preserve" width="3843px" height="655px" version="1.0" style="shape-rendering:geometricPrecision; text-rendering:geometricPrecision; image-rendering:optimizeQuality; fill-rule:evenodd; clip-rule:evenodd"
viewBox="0 0 3978 678"
 xmlns:xlink="http://www.w3.org/1999/xlink">
 <defs>
  <style type="text/css">
   <![CDATA[
    .fil0 {fill:#193783}
    .fil1 {fill:#16A6A7;fill-rule:nonzero}
   ]]>
  </style>
 </defs>
 <g id="Layer_x0020_1">
  <metadata id="CorelCorpID_0Corel-Layer"/>
  <g id="_2153090333120">
   <g id="_1393678733600">
    <path class="fil0" d="M1786 244l4 109 -50 0c0,-5 9,-23 14,-28 4,-9 4,-18 9,-27 4,-4 23,-49 23,-54l0 0zm-1628 271l5 0 0 9c-5,5 -5,5 -9,5 0,0 -5,-5 0,-9l9 -27c0,-5 4,-5 4,-5 5,0 5,5 5,9l-5 5 9 4 5 -9c0,-9 0,-13 -9,-18 -9,0 -14,5 -18,9l-9 32c-5,9 0,13 9,18 4,0 13,0 13,-9l9 -18 -13 -5 -5 9 0 0zm59 36c-5,0 0,-4 0,-4l0 -9c0,-5 0,-9 -5,-14l0 0c5,0 9,-4 9,-9l0 -4c5,-9 0,-14 -9,-18l-13 0 -9 54 4 4 9 -27 0 5c5,0 5,0 5,4l0 9c0,5 0,9 0,9l9 0zm-5 -49c0,0 5,4 0,9l0 4c0,5 -4,5 -4,5l-5 0 5 -18 4 0 0 0zm32 0l-4 40c0,9 4,19 9,19 9,0 18,-5 18,-14l4 -45 -9 0 -4 45c0,4 -5,4 -5,4 -4,0 -4,0 -4,-4l4 -45 -9 0 0 0zm59 4l-14 0 0 55 9 0 0 -19 5 0c9,0 13,-9 13,-18l0 -4c0,-9 -4,-14 -13,-14zm0 5c0,0 4,4 4,9l0 9c0,0 -4,4 -4,4l-5 0 0 -22 5 0 0 0zm54 -9l-13 0 4 59 18 0c9,-5 9,-10 9,-19l0 -4c0,-5 -4,-9 -9,-9l0 0c5,-5 5,-9 5,-14l0 0c0,-9 -5,-13 -14,-13l0 0 0 0zm5 31c4,0 4,0 4,5l0 4c0,5 0,9 -4,9l-5 0 0 -18 5 0 0 0zm-5 -22c5,0 5,0 5,4l0 5c4,4 0,4 -5,4l0 0 -4 -13 4 0zm54 18l5 9c0,4 0,4 -5,4 0,0 -4,0 -4,-4l-9 -32c0,0 0,-4 4,-4 5,0 5,0 5,4l4 5 5 0 0 -5c0,-9 -9,-13 -14,-13 -9,4 -13,9 -13,18l9 27c0,9 9,13 18,13 4,-4 9,-9 9,-18l-5 -9 -9 5 0 0zm37 -50l-10 5 10 58 9 -4 -5 -9 14 -5 4 9 9 0 -31 -54 0 0zm0 14l0 0 13 27 -9 0 -4 -27zm-312 -68c54,18 122,-18 122,32l0 4c18,0 13,5 13,-13 0,-50 -27,-64 -59,-77 -36,-9 -81,-9 -108,-50 -14,27 -18,90 32,104l0 0zm348 0c-55,18 -122,-18 -122,32l0 4c-18,0 -14,5 -14,-13 0,-50 27,-64 59,-77 41,-9 86,-9 108,-50 14,27 18,90 -31,104l0 0zm-82 -280c0,31 -9,49 -27,72 -9,9 -18,14 -31,32 -5,9 -9,18 -14,27 -14,40 -9,135 -9,185l-9 0 -14 0c0,-50 5,-145 -9,-185 -4,-9 -9,-18 -13,-27 -14,-18 -23,-23 -32,-32 -13,-23 -27,-41 -27,-72 0,-9 4,-23 4,-37l10 -13c18,-23 49,-36 81,-36 27,0 59,13 77,36l9 13c4,14 4,28 4,37l0 0zm118 126c0,18 -5,27 -14,41 0,0 0,4 -4,4 -14,19 -32,28 -54,32 -23,9 -55,14 -73,32 -40,27 -36,40 -36,81l-14 0c0,-77 -9,-176 59,-230 32,-28 82,-37 113,-5 14,9 23,27 23,45l0 0zm-421 0c0,18 5,27 14,41 0,0 5,4 5,4 13,19 31,28 54,32 22,9 54,14 72,32 41,27 36,40 36,81l14 0c0,-77 9,-176 -59,-230 -32,-28 -81,-37 -113,-5 -14,9 -23,27 -23,45l0 0zm-81 32l0 -32c0,-9 0,-4 0,-9 0,-4 0,-9 0,-9 9,-72 23,-113 45,-176 5,-5 5,-9 5,-14l104 -31c13,0 45,-9 59,-9l27 -5c13,0 77,0 81,0 9,0 45,5 63,5 32,9 64,13 95,22 9,5 45,14 50,23 0,0 0,0 0,4 9,18 18,32 23,55l22 81c9,50 9,68 9,117 0,5 0,14 -4,19l-5 45c0,9 0,18 -4,27l-14 54 -23 63c-4,5 -4,9 -4,14 -5,0 -9,4 -14,4 -4,0 -9,5 -13,5 -5,0 -9,0 -14,5 -4,0 -4,0 -4,0 -5,4 -5,4 -9,4 -9,5 -18,5 -27,9 -5,0 -9,0 -14,0 0,0 -4,5 -9,5l-50 9c-4,0 -13,0 -18,0l-31 4c-5,0 -14,0 -19,0 -18,0 -85,0 -108,-4 -54,-14 -41,-9 -95,-23l-41 -14c-9,-4 -9,0 -18,-22l-13 -32c0,-4 0,-4 0,-4 -9,-27 -14,-41 -18,-64l-14 -72c0,-4 0,-4 0,-9 0,-4 0,-4 0,-9 0,-14 0,-23 0,-36l0 0zm262 -303l55 0c22,0 36,5 54,5 4,0 9,4 13,4l41 5c32,9 77,22 104,31 14,5 9,5 18,18 18,41 36,100 41,140 4,9 4,19 4,28 5,4 0,9 5,13l0 23c0,9 0,9 0,18 4,72 0,104 -18,167l-27 81c-9,32 -14,28 -32,32 -14,5 -23,9 -27,9 -27,14 -77,23 -104,27l-36 5c0,0 -5,0 -9,0 -9,0 -23,0 -37,4l-49 0c-5,0 -14,-4 -18,-4 -32,0 -64,-5 -95,-14l-55 -13c-9,-5 -9,-5 -18,-5 -22,-9 -31,-13 -40,-32l-18 -54c-14,-31 -14,-40 -23,-72 -9,-36 -9,-86 -9,-127 0,-27 5,-67 9,-95 5,-9 5,-22 9,-31 5,-14 32,-109 45,-113l36 -14c41,-13 77,-22 118,-27l32 -4c4,0 18,0 31,-5l0 0zm1225 81c-13,0 -22,0 -40,0 -59,0 -95,0 -150,27 -13,5 -27,14 -40,23 -27,14 -45,32 -64,54 -4,5 -4,5 -4,5 -5,4 -5,4 -5,4 -40,46 -67,118 -67,177 0,45 9,90 36,122 9,9 18,22 27,27 0,4 0,4 4,4l28 18c4,5 13,9 18,9l18 10c13,4 27,9 45,9 27,9 90,9 122,4l18 -4c0,-5 45,-104 50,-118 4,-4 4,-9 4,-9 5,-5 5,-9 5,-14 4,-4 9,-13 9,-18 -9,0 -18,5 -32,9 -22,5 -45,9 -68,9 -9,0 -13,0 -18,0 -4,0 -4,0 -9,0 -4,0 -4,0 -9,0 -18,-4 -27,-4 -40,-9 -19,-9 -37,-22 -41,-40 -14,-36 -5,-73 13,-100l19 -18c4,-4 4,-4 9,-9 9,-4 13,-9 22,-13 18,-9 27,-9 45,-18 27,-5 68,0 95,9 0,0 0,0 5,0 4,4 9,4 9,4l22 14c5,4 5,9 10,9 13,-23 27,-46 40,-68 5,-9 41,-59 41,-68 -9,0 -50,-23 -59,-27l-41 -23c-4,-4 -9,-4 -9,-4 -4,-5 -4,-5 -9,-5l-9 18 0 0zm-547 344l-81 0c0,-9 18,-68 18,-72l68 0c4,0 13,4 13,9 23,22 0,63 -18,63l0 0zm-36 -158l9 -36c5,-9 5,-14 9,-19 0,-4 5,-13 5,-22l45 0c9,0 23,18 23,36 0,18 -9,32 -23,41 -9,0 -54,0 -68,0l0 0zm-95 -199l-63 113c0,4 -5,4 -5,9 0,4 -4,4 -4,9 0,0 0,0 -5,4 0,0 0,0 0,5l46 0 -100 334c0,5 0,5 0,9 23,0 226,5 258,0 0,-4 9,-4 13,-4 9,0 18,-5 27,-5 5,0 5,0 10,0 18,-9 36,-13 54,-27 0,0 0,0 4,0 14,-9 27,-27 36,-40 5,-5 10,-14 10,-18 13,-28 13,-64 4,-91l-14 -31c-9,-10 -4,-10 -18,-23 0,-5 0,-5 0,-5 -4,-4 -4,-4 -4,-9 4,0 13,-4 18,-9 23,-13 45,-45 59,-72 13,-36 13,-68 -9,-99 0,-5 -5,-10 -9,-10 -9,-18 -27,-27 -46,-31 -9,-5 -18,-9 -27,-9l-181 0 0 0 0 0 0 0 0 0 -4 0 0 0 0 0 0 0 0 0 -5 0 0 0 0 0 0 0 0 0 -4 0 0 0 0 0 0 0 0 0 0 0 -5 0 0 0 0 0 0 0 0 0 -4 0 0 0 0 0 0 0 0 0 -5 0 0 0 0 0 0 0 0 0 -4 0 0 0 0 0 0 0 0 0 -5 0 0 0 0 0 0 0 0 0 -4 0 0 0 0 0 0 0 0 0 -5 0 0 0 0 0 0 0 0 0 -4 0 0 0 0 0 0 0 0 0 0 0 -5 0 0 0 0 0 0 0zm1135 465l0 28 -167 0c-5,0 -5,0 -5,-5l0 -81 -104 0 -36 86 -172 0c0,-5 0,-5 0,-5l23 -41c0,-4 0,-4 4,-9 0,-4 5,-9 5,-13 4,-5 4,-5 9,-9l13 -32c5,-4 5,-9 9,-14l19 -36c0,-4 4,-4 4,-4 0,-5 5,-9 5,-14l58 -108c5,-5 9,-14 9,-18l23 -46c0,0 5,0 0,0l-45 0c0,-4 0,0 0,-4l81 -136c82,0 163,0 244,0 0,18 5,36 5,59l0 45c0,5 0,14 0,18 0,5 0,5 0,14 0,4 0,9 0,18l4 27c0,9 0,23 0,32l0 27c0,4 0,13 0,18 0,5 5,9 5,14 0,22 0,40 0,63 0,9 4,18 4,27 0,9 0,9 0,18 0,5 0,9 0,14l0 45c0,4 0,13 0,18 5,0 5,4 5,4l0 0z"/>
    <path class="fil1" d="M1989 484l113 -14c0,14 5,23 14,27 4,9 13,9 27,9 13,0 27,0 36,-9 9,-4 13,-9 13,-18 5,-4 0,-13 -9,-18 -4,0 -18,-4 -40,-9 -41,-9 -64,-14 -77,-18 -14,-5 -23,-18 -32,-32 -4,-13 -9,-27 -4,-45 4,-18 13,-32 27,-45 13,-14 31,-27 50,-32 22,-9 49,-9 81,-9 32,0 59,0 72,5 14,9 27,13 36,27 9,9 14,22 18,45l-108 9c0,-9 0,-18 -9,-22 -5,-5 -14,-10 -27,-10 -14,0 -23,5 -27,10 -9,4 -14,9 -14,13 0,9 0,14 9,18 5,5 18,5 41,9 36,5 63,9 77,18 18,5 31,18 36,32 4,13 9,27 4,45 -4,14 -13,32 -27,45 -13,18 -31,27 -54,36 -23,14 -54,19 -90,19 -50,0 -86,-9 -104,-23 -23,-18 -32,-36 -32,-63zm339 -208l118 0 13 190 100 -190 104 0 -177 303c-22,36 -40,58 -54,72 -23,18 -54,27 -95,27 -14,0 -41,-4 -72,-9l9 -77c13,5 31,9 50,9 13,0 27,-4 36,-9 9,-4 18,-18 27,-31l-59 -285 0 0zm407 90l-100 -9c5,-18 14,-32 28,-41 9,-13 22,-22 36,-27 9,-9 27,-13 45,-13 18,-5 36,-5 59,-5 31,0 54,0 77,5 18,4 31,9 40,22 9,9 14,18 18,32 0,18 0,32 -4,45l-27 127c0,13 -5,22 -5,31 0,5 5,14 5,28l-100 0c-4,-10 -4,-14 -4,-19 0,0 0,-9 0,-18 -18,14 -36,27 -50,32 -23,9 -45,14 -72,14 -32,0 -55,-9 -68,-28 -18,-13 -23,-31 -14,-58 5,-18 14,-36 27,-50 18,-18 46,-27 77,-32 45,-9 73,-13 86,-18 14,-4 27,-9 41,-13 4,-14 4,-23 0,-27 -5,-5 -14,-9 -27,-9 -18,0 -36,4 -46,9 -9,4 -13,13 -22,22l0 0zm81 59c-13,4 -31,9 -49,13 -23,10 -37,14 -46,19 -9,4 -13,13 -13,22 0,9 0,14 4,18 5,9 14,9 23,9 13,0 27,0 36,-9 14,-4 23,-13 27,-22 9,-9 14,-18 14,-32l4 -18 0 0zm177 -149l103 0 -9 45c14,-18 28,-32 37,-41 13,-9 27,-9 40,-9 18,0 36,5 50,14l-50 77c-9,-5 -22,-9 -27,-9 -13,0 -27,9 -36,18 -18,18 -27,49 -41,95l-18 95 -113 0 64 -285 0 0zm239 -109l113 0 -18 77 -108 0 13 -77 0 0zm-22 109l108 0 -63 285 -109 0 64 -285zm230 90l-104 -9c9,-18 18,-32 27,-41 9,-13 23,-22 36,-27 14,-9 27,-13 46,-13 18,-5 36,-5 58,-5 32,0 59,0 77,5 18,4 36,9 45,22 9,9 14,18 14,32 4,18 0,32 0,45l-27 127c-5,13 -5,22 -5,31 0,5 0,14 5,28l-104 0c0,-10 -5,-14 -5,-19 0,0 0,-9 0,-18 -18,14 -31,27 -49,32 -18,9 -41,14 -68,14 -36,0 -59,-9 -73,-28 -13,-13 -18,-31 -13,-58 4,-18 13,-36 32,-50 13,-18 40,-27 76,-32 41,-9 68,-13 82,-18 13,-4 27,-9 40,-13 5,-14 5,-23 0,-27 -4,-5 -13,-9 -27,-9 -18,0 -31,4 -40,9 -9,4 -18,13 -23,22l0 0zm81 59c-18,4 -31,9 -49,13 -23,10 -41,14 -46,19 -9,4 -13,13 -13,22 -5,9 -5,14 4,18 5,9 9,9 23,9 14,0 23,0 36,-9 9,-4 18,-13 27,-22 5,-9 9,-18 14,-32l4 -18 0 0zm199 -258l109 0 -32 145c18,-14 36,-27 50,-32 18,-9 36,-9 54,-9 32,0 50,9 63,27 14,18 18,46 9,82l-40 181 -109 0 32 -159c4,-18 4,-27 0,-36 -5,-9 -14,-9 -23,-9 -13,0 -27,5 -36,14 -13,9 -18,27 -27,54l-27 136 -109 0 86 -394 0 0z"/>
   </g>
  </g>
 </g>
</svg>
