<?xml version="1.0" encoding="UTF-8"?>
<!DOCTYPE svg PUBLIC "-//W3C//DTD SVG 1.0//EN" "http://www.w3.org/TR/2001/REC-SVG-20010904/DTD/svg10.dtd">
<!-- Creator: CorelDRAW X8 -->
<svg xmlns="http://www.w3.org/2000/svg" xml:space="preserve" width="3843px" height="1118px" version="1.0" style="shape-rendering:geometricPrecision; text-rendering:geometricPrecision; image-rendering:optimizeQuality; fill-rule:evenodd; clip-rule:evenodd"
viewBox="0 0 3222 937"
 xmlns:xlink="http://www.w3.org/1999/xlink">
 <defs>
  <style type="text/css">
   <![CDATA[
    .fil0 {fill:#005F7A}
    .fil1 {fill:#E36012}
   ]]>
  </style>
 </defs>
 <g id="Layer_x0020_1">
  <metadata id="CorelCorpID_0Corel-Layer"/>
  <g id="_2153088228688">
   <g id="_1393688456880">
    <path class="fil0" d="M2003 139l0 608c0,55 -19,99 -59,132 -4,0 -7,3 -7,3 -8,8 -4,4 -8,11l246 0c-4,-7 -4,-7 -11,-11 -37,-25 -55,-62 -62,-106 -8,-47 -4,-132 -4,-187 0,-124 0,-249 0,-377l344 454c4,8 4,8 7,11 22,30 63,81 88,106 7,8 11,11 18,22l66 59c19,18 81,70 96,73l0 -758c0,-40 0,-84 14,-113 4,-4 8,-11 11,-18 8,-15 19,-26 29,-33 8,-4 15,-11 19,-15l-235 0c4,7 8,7 11,11 11,7 15,15 22,22 19,22 30,51 30,84 3,59 0,125 0,183 0,121 0,242 0,363 -4,-4 -73,-99 -88,-117 -4,-4 -4,-8 -7,-11 -4,-8 -8,-8 -11,-15l-70 -95c-7,-8 -11,-15 -18,-26 -4,-7 -11,-15 -15,-22l-37 -47c-7,-11 -11,-19 -18,-26 -7,-7 -11,-15 -18,-26l-70 -95c-3,-4 -7,-7 -11,-11 0,-4 -3,-7 -7,-11l-106 -146c-8,-11 -8,-15 -19,-15l-14 0c-55,0 -110,0 -165,0 4,7 7,7 15,15 33,40 44,66 44,124l0 0z"/>
    <path class="fil0" d="M1450 794l-125 0 0 -358c92,0 213,-11 286,40 11,7 18,15 29,26 8,11 15,18 22,29 40,69 29,172 -47,223 -30,15 -41,19 -74,29 -25,4 -58,11 -91,11l0 0zm-33 -794l88 0c29,0 58,7 99,18 11,4 25,8 36,11 103,44 125,125 99,227 -22,77 -99,106 -106,114 15,3 26,7 40,14 59,26 110,63 139,121 37,70 22,183 -25,246 -4,7 -8,11 -11,18 -8,4 -8,7 -15,14l-18 15c-48,37 -92,51 -147,66 -51,11 -62,11 -110,15 -18,3 -325,0 -362,0l22 -19c7,-11 11,-18 18,-25 11,-15 26,-41 26,-62l0 -670c0,-22 -15,-48 -29,-63 -8,-7 -15,-14 -22,-22l-19 -14c-3,0 -3,0 -7,-4l304 0zm18 355l-110 0 0 -274c92,0 191,-15 249,51 4,7 11,18 15,25 18,48 18,81 -4,125 -22,48 -91,73 -150,73z"/>
    <path class="fil0" d="M3002 128l0 641c0,47 -22,84 -58,110 -11,7 -11,7 -15,14l278 0c-3,-11 -11,-11 -22,-25 -29,-33 -44,-59 -44,-106l0 -623c0,-51 19,-77 44,-106 15,-18 15,-18 33,-29 0,0 4,0 4,-4l-282 0c18,29 62,37 62,128l0 0z"/>
    <path class="fil1" d="M0 0l0 44 0 62 0 11 0 29c0,8 4,11 11,19l51 66c11,14 19,22 30,33 3,7 7,11 11,18l65 80c11,11 19,22 26,33l55 66c4,8 7,11 11,19l66 80c7,7 22,29 29,37l70 -59c3,-3 18,-14 22,-18 -4,-11 -55,-77 -74,-106 -11,-19 -22,-37 -33,-55 -32,-59 -58,-136 -69,-202 -11,-51 -18,-113 4,-157l-275 0 0 0z"/>
    <path class="fil1" d="M567 333c0,62 19,117 48,165 7,7 37,48 48,51 36,33 55,48 102,66 33,11 40,11 77,11 11,0 40,-4 40,-15l0 -336c0,-11 -33,-41 -44,-48 -65,-48 -150,-62 -216,-11 -3,4 -7,7 -11,11 -7,7 -11,11 -18,18 -18,30 -26,52 -26,88l0 0z"/>
    <path class="fil1" d="M384 66c0,88 33,168 74,242 7,7 33,54 47,58 0,-44 19,-84 33,-117l18 -37c11,-11 19,-25 30,-36 18,-22 55,-48 80,-55 136,-62 198,-8 216,-4l0 -117 -479 0c-11,0 -19,48 -19,66l0 0z"/>
    <path class="fil1" d="M392 641l110 139c25,25 54,40 91,47 7,4 18,4 26,4 14,0 11,0 25,0 -3,7 -22,18 -29,22l-22 18c-4,4 -4,0 -4,8l293 0 0 -205c-7,3 -18,11 -29,14 -29,15 -77,26 -113,26 -55,0 -107,-22 -151,-55 -25,-18 -58,-48 -80,-70 -7,-11 -15,-18 -22,-25 -7,3 -92,73 -95,77z"/>
    <path class="fil1" d="M0 879c11,0 4,3 11,0l73 -63c4,-3 11,-7 15,-11l128 -106c7,-7 29,-25 37,-25 0,-11 -4,-11 -8,-15l-249 -315c-7,-4 0,0 -7,-4l0 539 0 0z"/>
    <path class="fil1" d="M99 879l322 0c-22,-41 -66,-96 -95,-136 -7,-7 -15,-14 -26,-29l-51 40c-7,8 -15,15 -26,22 -7,7 -14,15 -22,22 -11,7 -18,11 -25,18l-52 44c-7,4 -21,15 -25,19l0 0z"/>
   </g>
  </g>
 </g>
</svg>
