<?xml version="1.0" encoding="UTF-8"?>
<!DOCTYPE svg PUBLIC "-//W3C//DTD SVG 1.0//EN" "http://www.w3.org/TR/2001/REC-SVG-20010904/DTD/svg10.dtd">
<!-- Creator: CorelDRAW X8 -->
<svg xmlns="http://www.w3.org/2000/svg" xml:space="preserve" width="3843px" height="1991px" version="1.0" style="shape-rendering:geometricPrecision; text-rendering:geometricPrecision; image-rendering:optimizeQuality; fill-rule:evenodd; clip-rule:evenodd"
viewBox="0 0 3959 2051"
 xmlns:xlink="http://www.w3.org/1999/xlink">
 <defs>
  <style type="text/css">
   <![CDATA[
    .fil0 {fill:#005E6A}
    .fil1 {fill:#F05A22}
   ]]>
  </style>
 </defs>
 <g id="Layer_x0020_1">
  <metadata id="CorelCorpID_0Corel-Layer"/>
  <g id="_2153094715120">
   <g id="_1557773130928">
    <path class="fil0" d="M1874 979l-224 0 0 -428 237 0c63,0 153,55 189,116 33,53 30,127 1,182 -10,20 -17,27 -30,43 -35,42 -118,87 -173,87l0 0zm1831 -871l0 883c0,43 -40,76 -72,99l-13 12 339 0c-4,-3 1,0 -6,-5 -35,-26 -34,-23 -67,-55 -7,-9 -17,-17 -17,-32l0 -924c0,-18 49,-50 63,-58l27 -16 -339 0 27 18c9,6 18,11 26,18 17,17 32,26 32,60l0 0zm-1248 -20l0 922c0,29 -55,72 -78,92l294 0 -60 -54c-26,-27 -23,-41 -23,-92l0 -687c10,7 35,44 45,56l111 146c111,147 226,290 338,435 32,39 111,135 148,164 36,27 70,62 118,89l0 -932c0,-133 -25,-156 85,-206 1,0 5,-3 6,-3 7,-3 4,-2 7,-6l-300 0c3,5 44,32 61,47 25,24 18,46 18,93l0 665c-10,-6 -159,-207 -188,-244 -7,-8 -12,-15 -19,-24 -7,-11 -12,-15 -19,-25 -26,-34 -51,-65 -75,-99l-106 -152c-13,-18 -23,-35 -36,-52l-140 -209 -265 0c12,11 78,46 78,76l0 0zm-611 372l-196 0 0 -340 200 0c33,0 79,24 98,47 42,47 43,82 43,140 0,69 -83,153 -145,153zm-377 -368l0 918c0,22 -43,60 -61,73 -7,6 -19,12 -24,19l449 0c63,0 87,-2 137,-17 54,-15 109,-36 156,-67 42,-28 87,-71 110,-115 10,-20 16,-32 22,-55 18,-66 11,-137 -15,-201 -23,-58 -80,-109 -135,-136 -25,-13 -75,-31 -107,-33l6 -4c20,-9 29,-12 50,-25 135,-91 150,-309 -16,-391 -121,-60 -169,-46 -306,-46 -117,0 -234,0 -351,0l11 9c24,13 74,42 74,71l0 0z"/>
    <path class="fil1" d="M0 174c0,7 21,29 25,35 90,120 212,264 308,386 18,24 36,47 55,70 11,14 49,63 58,69 10,-2 17,-10 29,-20 11,-9 19,-15 30,-23l42 -34c8,-7 6,-8 17,-11l-74 -100c-25,-34 -47,-73 -69,-108 -36,-61 -86,-177 -86,-270 0,-41 -1,-65 9,-106 6,-24 15,-40 20,-62l-364 0 0 174 0 0zm3621 1703l95 0c0,-62 0,-123 0,-184 0,-32 -2,-55 14,-78 28,-42 99,-45 122,-3 15,23 14,48 14,78 0,62 -2,125 0,187l92 0c0,-55 0,-108 0,-163 0,-50 4,-104 -19,-144 -32,-55 -117,-62 -175,-36 -10,5 -18,10 -27,15 -8,6 -14,13 -23,19l0 -203 -92 0 -1 512 0 0zm-526 -506c-73,16 -50,126 24,110 26,-5 49,-34 41,-68 -5,-24 -34,-48 -65,-42l0 0zm-35 506l93 0 0 -349 -93 0 0 349zm-186 -288l0 -61 -92 0 -2 349 94 0c0,-42 -2,-164 1,-195 2,-32 12,-52 30,-68 8,-7 23,-11 39,-11 18,1 24,7 37,12l34 -63c-13,-17 -50,-43 -83,-28 -11,5 -26,21 -33,30l-25 35 0 0zm-875 -51c5,19 130,307 130,317 2,7 -19,55 -24,65 -31,64 -52,68 -111,68l-1 63c94,0 112,-10 156,-64 29,-38 51,-98 72,-147 23,-51 45,-100 68,-151l68 -154 -80 -14c-5,17 -59,155 -73,192 -7,21 -13,45 -21,66l-91 -257 -93 16 0 0zm-316 243c-6,8 -33,48 -34,56 44,46 153,63 224,32 75,-31 112,-115 68,-186 -18,-28 -45,-54 -69,-74 -20,-16 -66,-51 -80,-65 -10,-11 -24,-27 -23,-49 2,-52 66,-59 118,-35 9,5 16,11 23,14 11,-17 26,-34 34,-51 -73,-75 -274,-50 -277,74 -1,23 4,41 14,59 38,75 168,117 177,186 5,47 -26,75 -69,76 -60,4 -87,-30 -106,-37l0 0zm1574 -214c1,6 24,37 29,45 22,-17 45,-34 84,-37 36,-1 69,22 70,52 -46,25 -216,29 -210,159 4,75 78,129 157,80 18,-11 50,-38 53,-39 1,22 1,30 8,50l98 0c-7,-32 -12,-29 -13,-73 -1,-29 0,-58 0,-87 0,-52 5,-115 -23,-151 -39,-50 -137,-57 -200,-32 -17,6 -44,22 -53,33l0 0zm184 109c-21,2 -79,23 -94,37 -11,10 -21,22 -25,43 -17,98 129,99 119,-80zm-1026 -109c2,10 23,31 28,43 11,-3 35,-32 87,-35 34,-1 68,22 69,52 -12,6 -55,17 -70,22 -25,6 -47,13 -68,24 -40,21 -75,51 -73,113 3,52 38,92 85,98 40,6 70,-15 99,-36l26 -21c2,23 2,29 8,50l99 0c-7,-28 -13,-40 -13,-73 -1,-29 -1,-58 -1,-87 0,-53 6,-115 -22,-151 -24,-31 -73,-48 -127,-46 -45,1 -99,18 -127,47l0 0zm185 109c-23,3 -79,23 -94,37 -29,27 -35,69 -14,96 34,39 115,-4 108,-133l0 0zm-2463 -574l423 0c-20,-31 -101,-122 -128,-157 -10,-12 -34,-45 -46,-52 -9,2 -24,17 -33,24l-201 169c-8,8 -9,7 -15,16l0 0zm-137 0c27,-18 194,-161 230,-189 26,-21 83,-72 105,-87 -5,-11 -10,-15 -18,-25l-63 -80c-25,-30 -237,-305 -254,-316l0 697zm497 -295l121 139c32,33 110,90 171,90 12,0 6,-3 18,-4l-57 51c-7,6 -13,12 -18,19l376 0 0 -276c-9,4 -24,29 -70,54 -16,7 -27,10 -45,15 -38,10 -72,9 -112,0 -16,-3 -33,-7 -49,-14 -78,-30 -146,-92 -199,-155 -10,-10 -9,-7 -16,-19 -21,13 -40,32 -60,48 -14,11 -52,41 -60,52l0 0zm-9 -731c0,98 21,174 67,249 18,31 33,59 54,86 43,63 27,38 42,-24 12,-55 41,-122 81,-162 48,-47 133,-98 221,-98 49,0 79,1 125,18 11,4 18,9 30,10l0 -155 -601 0c-4,15 -19,36 -19,76zm219 349c0,88 17,130 66,192 28,38 87,91 122,119 49,35 116,61 177,38 12,-5 25,-12 36,-14l0 -399c0,-22 -1,-20 -14,-29 -68,-50 -119,-85 -211,-85 -92,0 -176,94 -176,178l0 0z"/>
   </g>
  </g>
 </g>
</svg>
