<?xml version="1.0" encoding="UTF-8"?>
<!DOCTYPE svg PUBLIC "-//W3C//DTD SVG 1.0//EN" "http://www.w3.org/TR/2001/REC-SVG-20010904/DTD/svg10.dtd">
<!-- Creator: CorelDRAW X8 -->
<svg xmlns="http://www.w3.org/2000/svg" xml:space="preserve" width="3843px" height="3258px" version="1.0" style="shape-rendering:geometricPrecision; text-rendering:geometricPrecision; image-rendering:optimizeQuality; fill-rule:evenodd; clip-rule:evenodd"
viewBox="0 0 3049 2585"
 xmlns:xlink="http://www.w3.org/1999/xlink">
 <defs>
  <style type="text/css">
   <![CDATA[
    .fil0 {fill:#1D327F}
   ]]>
  </style>
 </defs>
 <g id="Layer_x0020_1">
  <metadata id="CorelCorpID_0Corel-Layer"/>
  <g id="_2153088228688">
   <g id="_1393371432496">
    <path class="fil0" d="M1369 433c-7,38 -25,73 -52,101l-385 384c-7,11 21,31 28,38 14,14 24,28 38,42 28,24 52,52 76,76 24,28 52,52 76,80 35,38 122,121 146,159 73,118 7,236 -97,302 -87,52 -173,41 -270,41 -39,0 -80,-14 -104,-45 -35,-41 -38,-69 -38,-118 3,-356 0,-717 0,-1074 0,-41 -4,-111 10,-149 10,-31 38,-62 73,-79 38,-18 97,-11 138,-11 101,0 167,-7 253,52 66,45 118,118 108,201zm-499 -433l79 0 0 0 1036 0 212 0c7,0 14,0 17,0 118,10 218,111 232,229 4,34 0,79 0,114l0 804c0,45 4,423 0,457 -14,118 -111,222 -228,232 -35,4 -80,0 -115,0l-1036 0c-48,0 -194,4 -228,0 -118,-10 -219,-114 -233,-228 -3,-35 0,-80 0,-115l0 -803c0,-46 -3,-427 0,-461 14,-118 111,-219 229,-229 10,0 21,0 35,0l0 0zm1060 180c42,0 180,-3 208,0 52,4 100,42 118,90 14,35 7,156 7,198l0 1043c-18,-11 -184,-187 -215,-219 -21,-20 -59,-55 -73,-76 -10,-14 -28,-24 -38,-34 -10,-14 -24,-28 -38,-39 -24,-24 -45,-48 -69,-72 -11,-11 -28,-28 -39,-38 -7,-11 -10,-11 -17,-18 -7,-7 -10,-14 -17,-21 -21,-20 -59,-52 -73,-72 3,-11 17,-18 28,-28l83 -87c14,-14 208,-214 218,-228 42,-56 63,-101 63,-170 0,-80 -42,-173 -115,-215 -3,-3 -7,-7 -14,-7 0,0 -3,-3 -7,-3 0,0 -3,0 -3,-4 0,0 -4,0 -4,0l-3 0 0 0zm-485 0c59,0 138,-7 194,7 69,14 139,56 180,118 14,21 24,41 31,66 14,55 -3,114 -41,152 -66,66 -132,132 -198,198l-100 100c-4,4 -7,11 -11,14 -7,4 -10,7 -14,10 -10,11 -17,18 -24,28 -7,4 -17,14 -24,21 -10,10 -17,17 -24,28l90 93c73,73 149,153 222,229l180 180c14,17 31,35 45,49l90 90c24,24 69,66 90,93l-724 -3c3,0 3,0 7,0 17,-7 24,-11 41,-21 49,-35 77,-80 90,-139 25,-90 7,-173 -45,-249 -17,-31 -45,-56 -72,-83l-77 -80c-38,-42 -76,-80 -114,-118 -7,-7 -35,-34 -38,-41 10,-14 45,-45 59,-59 7,-11 10,-14 17,-21 28,-28 52,-55 80,-83 7,-7 14,-14 21,-21 7,-7 10,-7 20,-21l118 -121c94,-94 104,-239 24,-347 -13,-17 -27,-27 -41,-41 -14,-10 -31,-21 -45,-28 -7,0 -4,0 -7,0l0 0z"/>
    <path class="fil0" d="M1216 2477c4,4 0,-6 0,0 0,4 0,4 0,4l0 -4zm-215 -249c0,0 0,0 0,0 0,0 4,0 4,0 0,0 -4,3 -4,0zm215 249c-3,-6 -7,-17 -10,-24 -7,-21 -18,-48 -28,-69l-125 -257 -152 0 0 458 111 0 -4 -309c0,-6 0,-13 0,-20 -3,-7 -3,-18 -3,-21l7 21c10,31 14,38 31,69 35,69 69,146 104,218 7,14 14,28 21,42l152 0 0 -458 -111 0 0 285 7 65z"/>
    <path class="fil0" d="M121 2502l0 -108c49,0 122,-10 122,52 0,63 -77,56 -122,56zm45 83l-166 0 0 -423c0,-21 0,-31 0,-35 14,-3 142,0 166,0 49,0 94,4 139,25 73,38 69,173 -31,197 7,4 24,4 59,28 34,28 41,90 24,132 -17,45 -59,65 -101,72 -24,4 -55,4 -90,4l0 0zm-45 -274l0 -97c45,0 111,-10 111,49 0,55 -69,48 -111,48l0 0z"/>
    <path class="fil0" d="M2179 2502l0 -108c25,0 59,0 84,4 27,7 38,21 38,48 0,66 -76,56 -122,56zm52 83l-173 0 0 -458c63,0 163,-3 222,0 152,14 152,146 107,191 -20,21 -27,21 -48,31l-7 4c48,3 93,48 93,97l0 21c0,65 -55,100 -114,110 -10,0 -21,4 -31,4 -7,0 -14,0 -21,0 -3,0 -14,0 -28,0l0 0zm-52 -274l0 -97c42,0 111,-10 111,49 0,55 -72,48 -111,48l0 0z"/>
    <path class="fil0" d="M2616 2325l0 -114c49,0 118,-7 121,59 0,65 -83,55 -121,55l0 0zm-10 260l-111 0c0,-24 -4,-444 0,-458 10,-3 149,0 170,0 52,0 100,4 142,28 45,21 55,73 48,118 -7,31 -28,62 -55,76l-28 11c14,14 21,10 38,41 10,21 66,177 69,184l-128 0c-10,-38 -28,-80 -38,-118 -21,-55 -38,-59 -97,-59 0,24 4,166 0,177 -3,0 -7,0 -10,0l0 0z"/>
    <path class="fil0" d="M1407 2585l125 0 0 -205 103 153c11,17 28,38 35,52l153 0c0,-7 -80,-108 -91,-121l-90 -125c4,-11 11,-17 18,-28l66 -80c10,-13 79,-93 79,-103l-135 0c-7,10 -138,190 -138,194 0,-28 0,-181 -4,-194 -17,-4 -97,0 -121,0l0 457 0 0z"/>
    <path class="fil0" d="M627 2235c4,10 52,149 56,166l-115 0c7,-14 45,-128 56,-156 0,0 0,-3 0,-3 3,-7 3,-4 3,-7l0 0zm236 350l-118 0c-7,-24 -24,-66 -31,-97l-177 0c0,10 -7,17 -7,28 -10,20 -17,52 -28,69l-117 0c0,-11 13,-45 20,-59 4,-17 14,-38 21,-55 7,-21 14,-39 21,-59l111 -284 145 0 174 457c-4,0 -7,0 -14,0l0 0z"/>
    <path class="fil0" d="M3049 2585l0 -458c-21,0 -107,-3 -121,0 -4,14 0,409 0,458l121 0z"/>
   </g>
  </g>
 </g>
</svg>
