<?xml version="1.0" encoding="UTF-8"?>
<!DOCTYPE svg PUBLIC "-//W3C//DTD SVG 1.0//EN" "http://www.w3.org/TR/2001/REC-SVG-20010904/DTD/svg10.dtd">
<!-- Creator: CorelDRAW X8 -->
<svg xmlns="http://www.w3.org/2000/svg" xml:space="preserve" width="3843px" height="4671px" version="1.0" style="shape-rendering:geometricPrecision; text-rendering:geometricPrecision; image-rendering:optimizeQuality; fill-rule:evenodd; clip-rule:evenodd"
viewBox="0 0 3684 4478"
 xmlns:xlink="http://www.w3.org/1999/xlink">
 <defs>
  <style type="text/css">
   <![CDATA[
    .fil0 {fill:#1D327F}
    .fil1 {fill:#1F327F}
   ]]>
  </style>
 </defs>
 <g id="Layer_x0020_1">
  <metadata id="CorelCorpID_0Corel-Layer"/>
  <g id="_2117862582896">
   <path class="fil0" d="M1576 730c-11,64 -41,122 -87,169l-648 648c-12,18 35,53 46,64 24,24 41,47 65,70 46,41 87,88 128,129 41,46 88,87 128,134 59,64 205,204 246,269 122,198 11,397 -164,508 -146,87 -292,70 -455,70 -64,0 -134,-24 -175,-76 -59,-70 -65,-117 -65,-199 6,-601 0,-1208 0,-1810 0,-70 -5,-186 18,-251 18,-52 64,-105 123,-134 64,-29 163,-17 233,-17 169,0 280,-12 426,87 111,76 199,199 181,339zm-840 -730l134 0 0 0 1745 0 357 0c11,0 23,0 29,0 198,18 368,187 391,385 6,59 0,135 0,193l0 1354c0,76 6,713 0,771 -23,199 -187,374 -385,391 -59,6 -135,0 -193,0l-1746 0c-81,0 -327,6 -385,0 -198,-17 -368,-192 -391,-385 -6,-59 0,-134 0,-193l0 -1354c0,-76 -6,-718 0,-777 23,-198 187,-367 385,-385 18,0 35,0 59,0l0 0zm1786 304c70,0 304,-6 350,0 88,5 170,70 199,151 23,59 11,263 11,333l0 1757c-29,-17 -309,-315 -361,-367 -35,-35 -100,-94 -123,-129 -18,-23 -47,-41 -64,-58 -18,-24 -41,-47 -65,-64 -40,-41 -75,-82 -116,-123 -18,-18 -47,-47 -64,-64 -12,-18 -18,-18 -30,-29 -11,-12 -17,-24 -29,-35 -35,-36 -99,-88 -122,-123 5,-18 29,-29 46,-47l140 -146c24,-23 351,-362 368,-385 70,-93 105,-169 105,-286 0,-134 -70,-292 -192,-362 -6,-6 -12,-12 -24,-12 0,0 -6,-6 -11,-6 0,0 -6,0 -6,-5 0,0 -6,0 -6,0l-6 0 0 0zm-817 0c99,0 233,-12 327,11 116,24 233,94 303,199 24,35 41,70 53,111 23,93 -6,192 -70,257 -111,110 -222,221 -333,332l-169 170c-6,5 -12,17 -18,23 -12,6 -17,12 -23,17 -18,18 -29,30 -41,47 -12,6 -29,24 -41,35 -17,18 -29,29 -41,47l152 158c123,122 251,256 374,385l303 303c24,30 53,59 76,82l152 152c41,41 117,111 152,158l-1221 -6c6,0 6,0 12,0 29,-12 41,-18 70,-35 82,-59 129,-135 152,-234 41,-152 12,-292 -76,-420 -29,-53 -76,-94 -122,-140l-129 -135c-64,-70 -128,-134 -193,-198 -11,-12 -58,-58 -64,-70 18,-23 76,-76 99,-99 12,-18 18,-24 30,-35 46,-47 87,-94 134,-140 12,-12 23,-24 35,-35 12,-12 17,-12 35,-36l198 -204c158,-157 176,-403 41,-584 -23,-29 -46,-46 -70,-70 -23,-17 -52,-35 -76,-46 -11,0 -5,0 -11,0l0 0z"/>
   <path class="fil1" d="M0 4087l152 -24c6,29 17,53 41,70 17,12 46,24 81,24 35,0 65,-12 88,-24 12,-11 17,-23 17,-41 0,-11 0,-23 -11,-29 -6,-6 -24,-11 -47,-17 -123,-29 -198,-53 -233,-76 -41,-29 -65,-70 -65,-129 0,-46 18,-87 59,-122 35,-35 99,-53 181,-53 76,0 134,12 169,41 41,24 64,64 82,111l-146 29c-6,-23 -18,-41 -35,-52 -12,-12 -41,-18 -70,-18 -41,0 -70,6 -88,18 -12,6 -17,17 -17,29 0,12 5,17 17,29 12,6 59,23 140,41 82,17 135,41 170,64 29,29 46,64 46,111 0,53 -23,99 -64,134 -47,41 -111,59 -193,59 -81,0 -140,-18 -186,-47 -41,-29 -76,-76 -88,-128l0 0 0 0zm3316 -625l0 292c47,-59 105,-88 175,-88 35,0 64,6 94,18 29,17 46,29 64,52 11,18 23,41 29,65 6,23 6,64 6,116l0 333 -152 0 0 -303c0,-59 0,-94 -6,-111 -6,-18 -17,-30 -29,-41 -18,-6 -35,-12 -58,-12 -24,0 -47,6 -65,18 -23,11 -35,29 -46,52 -6,29 -12,64 -12,111l0 286 -152 0 0 -788 152 0 0 0 0 0zm-636 391l-135 -23c12,-53 41,-94 76,-123 41,-29 94,-41 170,-41 64,0 116,12 146,24 35,17 58,35 70,64 11,23 23,64 23,134l-6 175c0,47 6,82 6,111 6,24 17,47 29,76l-146 0c-6,-12 -11,-29 -17,-47 0,-5 -6,-17 -6,-17 -24,23 -53,47 -82,58 -29,12 -58,18 -93,18 -59,0 -105,-18 -135,-47 -35,-35 -52,-70 -52,-123 0,-29 6,-58 23,-81 18,-29 35,-47 64,-59 30,-17 65,-29 117,-35 70,-17 123,-29 146,-41l0 -11c0,-29 -6,-53 -17,-64 -18,-12 -41,-18 -82,-18 -29,0 -47,6 -64,18 -18,5 -30,29 -35,52l0 0 0 0zm198 123c-17,6 -47,17 -87,23 -41,12 -70,18 -82,29 -24,12 -29,29 -29,53 0,17 5,35 23,52 12,18 35,24 58,24 30,0 53,-12 76,-29 18,-12 29,-30 35,-47 6,-12 6,-41 6,-76l0 -29 0 0 0 0zm-607 -374l0 -140 152 0 0 140 -152 0zm0 648l0 -572 152 0 0 572 -152 0zm-274 0l-146 0 0 -572 134 0 0 82c23,-35 47,-65 64,-76 24,-12 41,-18 70,-18 29,0 64,12 99,29l-46 135c-29,-18 -53,-29 -76,-29 -18,0 -35,5 -53,17 -11,12 -23,35 -35,64 -6,29 -11,94 -11,193l0 175 0 0 0 0zm-631 -397l-134 -23c12,-53 41,-94 76,-123 41,-29 93,-41 169,-41 64,0 117,12 152,24 29,17 52,35 64,64 18,23 23,64 23,134l-5 175c0,47 5,82 11,111 0,24 12,47 24,76l-146 0c-6,-12 -12,-29 -18,-47 0,-5 0,-17 -6,-17 -23,23 -52,47 -81,58 -30,12 -59,18 -94,18 -58,0 -105,-18 -134,-47 -35,-35 -53,-70 -53,-123 0,-29 6,-58 24,-81 17,-29 35,-47 64,-59 29,-17 70,-29 122,-35 71,-17 117,-29 141,-41l0 -11c0,-29 -6,-53 -18,-64 -17,-12 -41,-18 -82,-18 -29,0 -46,6 -64,18 -12,5 -23,29 -35,52l0 0 0 0zm199 123c-18,6 -47,17 -88,23 -41,12 -70,18 -82,29 -17,12 -29,29 -29,53 0,17 6,35 23,52 12,18 35,24 59,24 29,0 52,-12 76,-29 17,-12 35,-30 35,-47 6,-12 6,-41 6,-76l0 -29 0 0 0 0zm-981 -298l157 0 135 403 134 -403 158 0 -199 549 -41 99c-11,35 -23,58 -35,76 -11,17 -29,29 -41,41 -17,11 -35,17 -58,23 -23,6 -47,12 -76,12 -29,0 -58,-6 -87,-12l-12 -117c23,6 47,12 64,12 35,0 58,-12 76,-35 17,-18 29,-47 41,-76l-216 -572 0 0 0 0z"/>
  </g>
 </g>
</svg>
