<?xml version="1.0" encoding="UTF-8"?>
<!DOCTYPE svg PUBLIC "-//W3C//DTD SVG 1.0//EN" "http://www.w3.org/TR/2001/REC-SVG-20010904/DTD/svg10.dtd">
<!-- Creator: CorelDRAW X8 -->
<svg xmlns="http://www.w3.org/2000/svg" xml:space="preserve" width="3843px" height="754px" version="1.0" style="shape-rendering:geometricPrecision; text-rendering:geometricPrecision; image-rendering:optimizeQuality; fill-rule:evenodd; clip-rule:evenodd"
viewBox="0 0 4537 891"
 xmlns:xlink="http://www.w3.org/1999/xlink">
 <defs>
  <style type="text/css">
   <![CDATA[
    .fil1 {fill:#204798}
    .fil2 {fill:#D9251D}
    .fil0 {fill:#DAB135}
   ]]>
  </style>
 </defs>
 <g id="Layer_x0020_1">
  <metadata id="CorelCorpID_0Corel-Layer"/>
  <g id="_2117862584016">
   <g id="_1393371433680">
    <path class="fil0" d="M2098 497l98 -67 83 -46 98 46 103 67 67 -46 -134 -67 -134 -83 -134 83 -114 67 67 46 0 0zm315 36l-67 47 -36 -16 -31 -15 -16 15 -36 16 -67 -47 67 -36 52 -31 67 31 67 36 0 0z"/>
    <path class="fil1" d="M2031 301l0 150 67 46 0 -82 0 -114 0 -103 98 -67 83 -46 98 46 103 67 0 103 0 114 0 82 67 -46 0 -150 0 -149 -134 -67 -134 -83 -134 83 -114 67 0 149 0 0zm382 150l0 82 -67 47 0 -83 0 -82 0 -83 0 -31 0 -36 -36 -15 -31 -16 -16 16 -36 15 0 36 0 31 0 83 0 82 0 83 -67 -47 0 -82 0 -67 0 -83 0 -67 67 -36 52 -31 67 31 67 36 0 67 0 83 0 67 0 0z"/>
    <path class="fil1" d="M2959 425l31 -108c26,-5 88,-5 114,0 36,5 51,26 36,67 -16,51 -119,41 -181,41zm996 -423l-506 0 -36 134 165 0 -103 403 165 0c10,-16 46,-171 57,-202 15,-61 41,-139 51,-201l176 0 31 -134 0 0zm582 0c-36,0 -129,-5 -155,0 -15,47 -30,114 -41,160 -5,10 -31,139 -41,150l-119 -310 -154 0 -139 537 154 0 83 -310 118 310 155 0 139 -537 0 0zm-1521 212c0,-21 21,-93 26,-103 52,0 165,-11 129,61 -26,47 -93,42 -155,42zm212 46c20,-15 41,-21 61,-36 11,-10 31,-41 37,-62 20,-67 -11,-113 -47,-134 -46,-31 -118,-26 -175,-26 -67,0 -134,-5 -201,0 -5,11 -129,495 -139,537 77,0 154,0 232,0 67,0 144,10 201,-21 46,-21 92,-62 108,-119 15,-67 -10,-118 -77,-139z"/>
    <path class="fil2" d="M4403 595c-129,0 -335,16 -474,21 -155,5 -310,15 -464,26 -78,5 -150,10 -227,15 -77,5 -150,16 -222,26 -62,10 -160,15 -211,31 -26,10 -67,36 -72,57 -6,30 36,61 51,72 31,20 47,25 88,36 31,5 72,15 108,10 41,-5 62,-21 88,-36 113,-67 345,-108 479,-129 206,-36 433,-72 640,-98l216 -31 0 0z"/>
    <path class="fil1" d="M191 523l72 -232c103,-10 139,52 103,139 -31,78 -82,98 -175,93l0 0zm598 -304c36,-10 36,36 36,67 -10,67 -72,185 -113,206 -88,41 5,-247 77,-273l0 0zm139 252c-21,-15 -15,0 -36,26 -5,5 -36,26 -36,0 0,-10 26,-87 31,-98 10,-36 20,-62 31,-98 10,-31 26,-72 36,-103l-93 5 -15 47c-16,-41 -21,-67 -78,-52 -31,5 -56,26 -77,47 -129,108 -165,335 -47,319 57,-5 109,-82 135,-118 -11,25 -67,139 41,118 62,-10 108,-82 108,-93l0 0zm253 -278c-36,0 -88,10 -129,21 -21,0 -26,0 -31,15 15,5 20,0 36,10 10,42 -77,258 -93,315l93 0c15,0 26,-93 77,-170 16,-26 88,-134 119,-114l5 6c5,15 -31,103 -36,118 -10,26 -36,98 -36,124 0,51 62,46 98,26 26,-11 67,-57 77,-83l-15 -5c-16,15 -31,52 -57,46 -15,-36 108,-242 62,-293 -41,-47 -108,15 -129,36 -36,31 -77,98 -93,103l52 -155 0 0zm500 -180c-31,0 -57,5 -88,10 -51,10 -67,5 -67,26 47,15 52,-5 10,113 -15,41 -25,88 -41,129l-93 263 98 0c21,-21 31,-124 57,-139 10,-11 26,-26 36,-31 5,36 10,72 16,103 10,31 15,67 46,72 46,10 134,-88 119,-103 -21,-21 -11,41 -57,36 -16,-26 -16,-67 -26,-98 -15,-93 -31,-82 62,-144 46,-36 67,-16 72,-47 -31,0 -62,0 -87,0 -52,0 -73,-5 -73,16 21,10 57,0 36,36l-92 82c-16,16 -26,31 -47,42l119 -366 0 0zm-1336 41c47,0 67,5 83,31 10,31 5,67 -10,93 -26,56 -57,82 -140,82l67 -206 0 0zm-170 -26c-15,0 -5,-10 -10,10l5 0c47,21 72,-15 31,119l-103 294c-16,51 -21,82 -62,88 -15,5 -31,-6 -36,15 5,0 0,0 10,0 5,5 -5,0 5,0 0,0 11,0 11,0 108,0 319,15 392,-31 98,-57 118,-186 0,-237 -11,-5 -31,-10 -36,-16 5,-5 61,-15 77,-20 98,-41 118,-139 67,-191 -41,-46 -191,-31 -273,-31 -16,0 -36,0 -52,0 -5,0 -21,-5 -26,0l0 0z"/>
   </g>
  </g>
 </g>
</svg>
