<?xml version="1.0" encoding="UTF-8"?>
<!DOCTYPE svg PUBLIC "-//W3C//DTD SVG 1.0//EN" "http://www.w3.org/TR/2001/REC-SVG-20010904/DTD/svg10.dtd">
<!-- Creator: CorelDRAW X8 -->
<svg xmlns="http://www.w3.org/2000/svg" xml:space="preserve" width="3843px" height="585px" version="1.0" style="shape-rendering:geometricPrecision; text-rendering:geometricPrecision; image-rendering:optimizeQuality; fill-rule:evenodd; clip-rule:evenodd"
viewBox="0 0 2805 427"
 xmlns:xlink="http://www.w3.org/1999/xlink">
 <defs>
  <style type="text/css">
   <![CDATA[
    .fil0 {fill:#790008}
    .fil1 {fill:#ED3024}
   ]]>
  </style>
 </defs>
 <g id="Layer_x0020_1">
  <metadata id="CorelCorpID_0Corel-Layer"/>
  <g id="_2117864194176">
   <g id="_1393371433136">
    <path class="fil0" d="M959 357l58 0 0 -163c3,10 9,20 16,29l6 10c0,3 0,3 3,6 3,10 7,19 16,26l51 92 54 -92c7,-7 10,-16 16,-26 0,-3 0,-3 3,-6l7 -10c6,-9 13,-19 16,-29l0 163 54 0 0 0 0 -281 -54 0c-7,7 -10,20 -13,26 -3,0 -6,6 -10,10l-73 140 -73 -140c-3,-4 -7,-10 -7,-10 -3,-6 -9,-19 -12,-26l-58 0 0 281 0 0z"/>
    <path class="fil0" d="M2014 357l35 0c0,-13 19,-54 26,-73l57 0 58 0c6,19 25,60 25,73l35 0 0 0 -99 -281 -19 0 -19 0 -99 281 0 0zm118 -112l-44 0 31 -95c7,-13 7,-26 13,-32 7,6 7,19 13,32l32 95 -45 0 0 0z"/>
    <path class="fil0" d="M2566 357l38 0c0,-13 19,-54 25,-73l58 0 54 0c6,19 25,60 25,73l39 0 0 0 -99 -281 -19 0 -19 0 -102 281 0 0zm121 -112l-45 0 32 -95c6,-13 6,-26 13,-32 6,6 6,19 12,32l29 95 -41 0 0 0z"/>
    <path class="fil0" d="M0 427l427 0 0 -427 -427 0 0 427zm382 -213c0,12 0,0 -6,12 0,0 0,0 -6,7 -13,19 -80,111 -86,111l-227 0 26 -32c13,-16 67,-86 73,-98l-99 -131 233 0c3,13 92,124 92,131l0 0z"/>
    <path class="fil0" d="M1498 214c41,-48 41,-138 -54,-138l-115 0 0 138 0 137 115 0c95,0 95,-90 54,-137zm-73 25l-39 0 0 57c39,0 80,13 80,-31 0,-20 -22,-26 -41,-26l0 0zm0 -51l-39 0 0 -57c39,0 80,-13 80,32 0,19 -22,25 -41,25l0 0z"/>
    <path class="fil0" d="M784 325c0,-6 -32,-35 -38,-41 -86,54 -144,-13 -144,-64 0,-57 39,-96 86,-96 26,0 39,13 58,26 6,-7 13,-13 19,-19 6,-13 19,-13 19,-23 -80,-73 -239,-38 -245,106 -7,133 156,194 245,111z"/>
    <path class="fil0" d="M1641 357l32 0 0 -226c7,6 147,207 160,220 3,6 0,6 35,6l0 -281 -32 0 0 220c-10,-6 -74,-102 -80,-108l-64 -86c-19,-26 -12,-26 -51,-26l0 281 0 0 0 0z"/>
    <path class="fil0" d="M2438 357c51,-6 64,-19 83,-19l0 -137 -96 0 0 32 64 0 0 79c-38,7 -19,13 -86,13 -19,0 -51,-13 -64,-29 -70,-70 -6,-220 125,-178 6,6 25,13 25,19l13 0c0,-13 13,-13 13,-22 -252,-163 -345,274 -77,242l0 0z"/>
    <path class="fil0" d="M835 357l54 0 0 -281 -54 0 0 281z"/>
    <path class="fil0" d="M1938 357l32 0 0 -281 -32 0 0 281z"/>
    <path class="fil1" d="M382 214c-38,0 -207,6 -226,0 -6,12 -60,82 -73,98l-26 32 227 0c6,0 73,-92 86,-111 6,-7 6,-7 6,-7 6,-12 6,0 6,-12l0 0z"/>
   </g>
  </g>
 </g>
</svg>
