<?xml version="1.0" encoding="UTF-8"?>
<!DOCTYPE svg PUBLIC "-//W3C//DTD SVG 1.0//EN" "http://www.w3.org/TR/2001/REC-SVG-20010904/DTD/svg10.dtd">
<!-- Creator: CorelDRAW X8 -->
<svg xmlns="http://www.w3.org/2000/svg" xml:space="preserve" width="3843px" height="978px" version="1.0" style="shape-rendering:geometricPrecision; text-rendering:geometricPrecision; image-rendering:optimizeQuality; fill-rule:evenodd; clip-rule:evenodd"
viewBox="0 0 3189 812"
 xmlns:xlink="http://www.w3.org/1999/xlink">
 <defs>
  <style type="text/css">
   <![CDATA[
    .fil3 {fill:#004A43}
    .fil1 {fill:#F37423}
    .fil2 {fill:#FBAA27}
    .fil0 {fill:#FFCB37}
   ]]>
  </style>
 </defs>
 <g id="Layer_x0020_1">
  <metadata id="CorelCorpID_0Corel-Layer"/>
  <g id="_2117862583856">
   <g id="_1393371437392">
    <g>
     <path class="fil0" d="M522 228l591 0 -591 -228 0 228z"/>
     <path class="fil0" d="M2461 228l-1348 0 1348 450 0 -450z"/>
     <path class="fil1" d="M0 228l1113 0 -1113 -228 0 228z"/>
     <path class="fil2" d="M522 228l591 0 -591 -123 0 123z"/>
     <path class="fil2" d="M3189 228l-2076 0 2076 450 0 -450z"/>
     <path class="fil1" d="M2461 228l-1348 0 1348 294 0 -294z"/>
    </g>
    <path class="fil3" d="M109 754l-29 0c0,-18 0,-36 0,-58l0 -167c25,0 58,-7 76,11l0 0c3,7 7,11 11,18 11,25 18,152 -11,181 -4,4 -4,8 -11,11 -11,4 -22,4 -36,4l0 0zm750 -18c0,-18 3,-29 22,-37 10,-3 32,-7 47,-7l0 26c0,29 -15,54 -44,54 -11,-4 -18,-7 -22,-18 0,-4 -3,-11 -3,-18l0 0zm-62 -105l0 7c11,0 62,0 65,0 4,-4 0,-7 8,-22 7,-11 29,-14 40,-11 18,11 18,33 18,51 -40,0 -84,4 -113,25 -36,29 -36,127 47,127 19,0 44,-7 58,-18 4,-4 8,-7 8,-7 0,7 3,14 3,18 4,3 0,7 4,7 4,0 11,0 14,0 8,0 40,0 48,0 0,-11 -4,-22 -4,-36 0,-4 0,-4 0,-7l0 -29c0,-8 0,-15 0,-22l0 -33c0,-7 0,-18 0,-29 0,-7 0,-3 0,-11 0,-10 0,-14 -4,-29 -3,-7 -11,-18 -18,-21 -3,-4 -7,-8 -11,-8 -25,-14 -76,-14 -105,-7 -11,0 -22,4 -29,11 0,0 -3,0 -3,0 -4,4 -4,4 -8,7 -3,0 0,0 -3,4 -8,7 -15,18 -15,33l0 0zm-435 101c0,-36 37,-40 69,-40 0,22 0,58 -22,73 -7,7 -21,7 -32,0 -7,-4 -15,-18 -15,-33zm4 -94c4,-4 4,-11 7,-15 0,-11 8,-14 15,-18 11,-3 29,0 36,11 7,11 7,25 7,40 -40,0 -69,4 -98,18 -43,18 -47,80 -21,112 11,15 29,22 54,22 11,0 29,-4 36,-7 7,-4 18,-7 26,-11 0,-4 3,-7 7,-7 0,3 3,21 3,25l66 0 -4 -29c-4,-32 -4,-76 -4,-109l0 -39c-3,-19 -3,-26 -18,-40 -3,-4 -14,-11 -25,-15 0,0 -4,0 -4,0 -11,-3 -21,-3 -32,-3 -18,-4 -33,0 -51,0 -7,3 -14,3 -22,7 -7,3 -11,3 -18,7 -3,4 -11,11 -14,15 -8,10 -8,21 -11,32 0,4 3,4 11,4 18,0 36,0 54,0l0 0zm1152 -26c11,0 18,4 22,8l4 7c7,11 7,54 7,72 0,19 0,33 -4,48 -3,18 -14,25 -32,25 -18,0 -22,-15 -26,-29 0,-11 -3,-40 -3,-51 3,-7 0,-11 0,-18 0,-14 0,-43 14,-54 4,-4 4,-4 8,-8 3,0 7,0 10,0zm-105 62c0,25 0,47 4,69 7,29 18,51 47,61 25,8 33,8 58,8 22,0 51,-4 65,-15 7,-3 15,-14 22,-22 4,-7 7,-18 11,-28 0,-8 0,-15 3,-22 4,-36 0,-98 -21,-123 -15,-19 -29,-26 -55,-29 -29,-4 -72,0 -97,14 -4,4 -8,7 -8,7 -3,4 -11,11 -11,15 -3,7 -7,11 -10,18 -4,14 -8,29 -8,47l0 0zm330 -76l-4 -18c0,-4 0,-4 -3,-4 -7,0 -15,0 -26,0l-39 0c-4,0 0,0 0,4l0 18c0,7 0,22 0,29 0,11 0,25 0,33l0 148 36 0c11,0 22,0 36,0l0 -167c0,-18 15,-29 29,-29 4,0 11,0 15,4 3,4 3,4 7,11 0,4 3,18 3,29l0 152c15,0 29,0 44,0l22 0c3,-4 7,0 7,-4l0 -170c0,-11 -4,-22 -7,-25 -8,-26 -29,-36 -55,-36 -25,0 -36,0 -54,14 -4,4 -7,7 -11,11l0 0zm-1120 0c0,-7 -3,-11 -3,-18 0,-4 3,-4 -26,-4 -14,0 -29,0 -43,0 -4,4 0,109 0,116 0,22 0,36 0,55 0,21 0,39 0,61l69 0c0,-7 3,-7 3,-14 0,-4 0,-8 0,-15 0,-4 0,-76 0,-83l0 -7c0,0 0,0 0,-4 0,-7 0,-11 0,-15 0,-10 0,-18 0,-29 0,-3 0,-7 0,-10 4,-11 15,-19 26,-19 11,0 18,0 21,8 8,14 4,61 4,79 0,19 0,37 0,55 0,18 4,36 4,54 11,0 21,0 36,0l33 0 0 -174c0,-29 -11,-51 -37,-58 -25,-11 -54,-7 -76,11 -3,0 -3,4 -7,4 0,3 -4,7 -4,7l0 0zm497 0c-4,-4 -4,-22 -4,-22 -3,-3 -32,4 -47,0 -7,0 -14,0 -22,0 -3,0 -3,15 -3,18l3 66c0,39 0,79 -3,119 0,0 3,0 3,4l0 25 22 0c7,0 11,0 18,0l18 0c11,0 15,0 15,-4l0 -148c0,-15 -4,-22 3,-33 11,-18 44,-18 47,8l0 177 37 0c14,0 25,0 36,0 0,-18 0,-138 0,-145 0,-7 0,-18 0,-25 4,-15 14,-26 29,-26 11,0 18,0 22,8 3,11 3,40 3,54 0,11 0,7 0,25 -3,26 0,76 0,109 11,0 18,0 29,0l44 0 0 -177c0,-48 -36,-66 -80,-58 -18,0 -25,3 -36,18l-15 14c0,-3 -3,-7 -3,-7 -8,-11 -11,-15 -18,-18 -22,-11 -58,-15 -80,0 -4,3 -11,7 -15,11 0,3 -3,3 -3,7l0 0zm-1116 54c0,15 0,29 0,40 0,15 0,26 0,40l0 54c0,8 0,15 0,22l76 0c3,0 7,0 11,0 3,0 3,0 7,0 29,0 54,0 83,-7 11,-4 22,-11 29,-18 4,-4 7,-4 11,-11 11,-15 15,-25 22,-44 14,-47 11,-134 -4,-177 -3,-26 -14,-40 -36,-55 -18,-14 -47,-18 -73,-18l-126 0c0,58 0,116 0,174l0 0z"/>
   </g>
  </g>
 </g>
</svg>
