<?xml version="1.0" encoding="UTF-8"?>
<!DOCTYPE svg PUBLIC "-//W3C//DTD SVG 1.0//EN" "http://www.w3.org/TR/2001/REC-SVG-20010904/DTD/svg10.dtd">
<!-- Creator: CorelDRAW X8 -->
<svg xmlns="http://www.w3.org/2000/svg" xml:space="preserve" width="3843px" height="1885px" version="1.0" style="shape-rendering:geometricPrecision; text-rendering:geometricPrecision; image-rendering:optimizeQuality; fill-rule:evenodd; clip-rule:evenodd"
viewBox="0 0 3463 1698"
 xmlns:xlink="http://www.w3.org/1999/xlink">
 <defs>
  <style type="text/css">
   <![CDATA[
    .fil0 {fill:#00583C}
    .fil1 {fill:#FAB40A}
   ]]>
  </style>
 </defs>
 <g id="Layer_x0020_1">
  <metadata id="CorelCorpID_0Corel-Layer"/>
  <g id="_2153083224736">
   <g id="_1393366939376">
    <path class="fil0" d="M1523 1553l39 0 0 -228c0,-48 43,-103 110,-103 67,0 91,55 91,114l0 217 39 0 0 -228c0,-115 -106,-170 -197,-115 -35,16 -35,36 -43,48l0 -162 -39 0 0 457 0 0 0 0zm-441 0l35 0 0 -350c0,-4 0,-8 -3,-8l-32 0 0 358zm-165 -291c0,-8 0,-20 0,-36 0,-12 0,-16 0,-31l-32 0c0,23 4,39 4,63l0 295 36 0 0 -173c0,-55 8,-99 31,-122 16,-16 20,-24 43,-32 40,-12 40,16 40,-35 -43,-12 -83,12 -103,43l-11 24c0,0 0,0 0,4 -8,4 0,0 -8,0l0 0 0 0zm-909 23c0,51 39,75 75,95 27,8 59,15 78,43 16,24 28,94 -55,106 -39,4 -67,-12 -90,-23 -8,7 -12,23 -16,31 39,20 55,24 98,24 79,0 134,-71 107,-138 -32,-83 -162,-63 -162,-142 0,-15 12,-35 20,-43 20,-20 59,-20 83,-16 19,4 23,12 39,20 4,-8 8,-24 12,-32 -71,-51 -189,-15 -189,75l0 0zm267 378c0,16 4,24 8,35 16,-7 40,-31 51,-43 12,-20 24,-35 40,-59 47,-90 106,-256 149,-362 4,-16 8,-31 12,-39l-35 0 -118 311c-8,-40 -40,-118 -59,-158l-55 -153 -40 0c0,15 40,106 47,126l87 216c4,24 -59,122 -87,126l0 0 0 0zm1016 -130c-83,0 -99,-110 -24,-149 43,-20 83,-20 130,-20l0 67c0,59 -47,102 -106,102l0 0zm-83 -315c4,8 4,20 12,28 35,-24 86,-36 122,-24 39,20 55,59 55,114 -71,0 -154,4 -193,59 -47,71 -12,166 79,166 78,0 98,-44 118,-55 0,11 4,31 4,47l31 0c-4,-59 -4,-47 -4,-118 0,-95 24,-244 -122,-244 -23,0 -59,4 -78,19 -8,0 -20,8 -24,8l0 0zm-555 315c-79,0 -94,-118 -19,-149 43,-20 82,-20 125,-20 0,71 16,102 -35,142 -12,11 -39,27 -71,27zm-79 -315c0,8 4,16 12,28 20,-8 24,-12 48,-24 66,-12 125,12 125,87l0 27c-66,0 -149,4 -188,59 -48,63 -16,166 78,166 79,0 99,-48 114,-55 0,11 4,15 4,27 0,24 -8,20 36,20 0,-20 -4,-36 -4,-59l0 -150c0,-15 0,-15 0,-27 -8,-114 -83,-146 -181,-118 -20,4 -28,11 -44,19l0 0z"/>
    <g>
     <g id="_1557618875312">
      <path class="fil1" d="M2215 211c-23,0 -39,0 -59,-8 -19,-8 -31,-16 -47,-27 -4,-8 -12,-16 -16,-24 -11,-24 -27,-47 -47,-67 -4,0 -4,-4 -8,-8l-19 -16c-8,-7 -20,-15 -32,-23 -20,-8 -35,-16 -55,-16 -8,0 -12,-4 -16,-4 -19,0 -43,0 -63,4 -31,8 -47,12 -78,28 -4,0 -4,0 -8,4 -16,4 -28,15 -44,23l-82 47c-28,16 -51,28 -79,44 -27,19 -59,35 -90,51 -12,8 -24,16 -32,20 -16,7 -90,51 -102,59 8,11 27,31 35,47l40 43c4,4 4,4 7,8 0,0 0,4 4,4 12,8 20,16 28,20l24 11c15,8 35,12 51,12 4,0 4,0 12,0 7,0 19,-4 31,-8 24,-8 55,-27 79,-39l43 -28c39,-19 75,-43 110,-63 20,-7 36,-19 51,-27l16 -8c35,-20 79,-35 118,-39l32 0c11,0 19,0 35,0 8,4 12,4 20,8 43,11 70,31 102,63 20,15 31,43 47,62 4,12 16,24 28,32 31,27 71,39 114,20 4,0 8,-4 12,-4 15,-8 27,-16 43,-24 59,-39 126,-71 185,-110 20,-12 39,-20 55,-32 4,0 8,0 8,0 39,-19 86,-35 130,-35 15,0 27,0 43,4 16,4 31,8 47,16 8,0 12,4 20,8 16,7 27,19 39,27 4,8 12,12 16,16l8 8c12,12 19,27 27,39 8,16 16,28 28,39 0,0 4,4 8,8 8,8 12,12 23,16 67,35 114,-4 170,-35 7,-4 11,-8 19,-12 32,-20 67,-40 99,-55 4,-4 4,-8 11,-8l63 -36c8,-7 12,-11 20,-15l12 -4c4,-4 8,-8 12,-8 0,-8 -59,-79 -71,-95 -8,-7 -16,-15 -24,-23 -12,-12 -19,-20 -35,-28 -32,-15 -71,-4 -103,12 -19,8 -35,16 -55,28l-98 55c-12,8 -24,15 -39,19 -32,8 -67,12 -99,-4 -15,-3 -27,-11 -39,-23 0,0 0,0 0,0l-4 -4c-12,-12 -24,-35 -31,-51l-16 -20c-4,-4 -8,-8 -12,-16 -16,-15 -31,-31 -51,-43 -39,-20 -87,-31 -138,-24 -23,8 -43,12 -67,20 -15,8 -27,12 -43,20 -4,4 -8,8 -12,8l-27 15c-24,16 -48,28 -71,40l-40 23c-35,20 -74,40 -110,63 -12,8 -27,16 -43,20 -8,0 -16,0 -20,0l0 0 0 0z"/>
      <path class="fil0" d="M102 628l-4 0c0,-4 0,-4 0,-8l-4 -55 -94 0c0,0 0,4 0,8 0,4 0,8 0,12l0 23c4,20 4,36 4,56l0 334 106 0 0 -256c0,-35 20,-71 47,-86 16,-12 24,-12 40,-12 15,0 27,4 35,12 8,4 16,11 20,19 16,24 20,48 20,75l0 248 106 0 0 -260c0,-27 8,-47 23,-67 16,-15 32,-27 63,-27 24,0 48,16 55,35 4,0 4,0 4,4 12,24 16,59 16,99l0 216 106 0 0 -268c0,-39 -11,-90 -35,-122 -8,-7 -12,-15 -20,-23 -12,-8 -12,-8 -23,-16 -36,-20 -95,-20 -134,0 0,0 -4,0 -4,0l-24 16c-8,4 -12,8 -15,12 -12,11 -20,19 -28,31 0,0 0,4 -4,8 -8,-12 -8,-20 -20,-32 -4,-7 -15,-19 -23,-23 -51,-39 -134,-36 -177,8l-20 15c-4,4 -16,20 -16,24l0 0 0 0zm1983 -63l0 433 115 0 0 -433 -111 0c0,0 -4,0 -4,0zm484 0l0 433 111 0 0 -433 -107 0c0,0 -4,0 -4,0l0 0 0 0zm-196 83c0,-8 0,-12 0,-20 0,-20 -4,-47 -4,-63l-95 0c-4,0 0,4 0,8l0 63c0,4 0,16 0,24l0 338 111 0 0 -220c0,-44 15,-91 55,-111 27,-11 51,-11 74,-7 4,0 8,4 8,0l0 -95c0,-4 -19,0 -27,0 -16,0 -32,0 -48,8 -27,12 -51,28 -62,55l-8 16c0,4 0,4 -4,4l0 0 0 0zm-1570 228c0,-24 4,-31 15,-51 8,-8 20,-20 32,-24 16,-4 27,-8 43,-12 20,0 40,0 63,0l0 63c0,16 -8,32 -16,40 -7,15 -23,27 -39,31l-12 4c-31,8 -63,0 -78,-23 -4,-8 -8,-20 -8,-28l0 0 0 0zm-79 -283c0,4 20,63 24,71 4,0 4,0 4,0l11 -8c12,-4 20,-8 32,-12 31,-12 86,-16 118,-4 23,12 39,35 39,63l0 12c-51,0 -71,4 -118,11 0,0 -4,0 -8,4 -27,8 -47,16 -71,32 -3,0 -7,4 -15,8 -28,23 -44,63 -44,106 0,31 8,59 24,83 35,47 95,59 157,47 24,-8 56,-24 71,-43 4,0 12,-8 12,-12l4 0 4 39c0,4 0,8 4,8l98 0 -8 -43c0,-4 4,-8 0,-8l0 -20c0,-8 0,-12 0,-20l0 -137c0,-24 0,-51 -4,-75 0,-12 0,-16 -3,-31 -8,-20 -16,-36 -28,-52 0,-4 -4,-4 -4,-4l-16 -15c-39,-32 -78,-40 -130,-40 -51,0 -98,12 -141,36 -4,0 -8,4 -12,4l0 0 0 0zm515 35l0 0c0,-12 -7,-55 -7,-63l-95 0c-4,0 0,12 0,20 0,4 0,8 0,12 0,4 0,7 0,11 0,16 0,32 0,52l0 338 114 0 0 -248c0,-24 0,-39 12,-59 12,-24 39,-47 75,-47 27,0 47,8 67,31 12,16 15,44 15,71l0 252 115 0 0 -264c0,-23 -4,-51 -12,-70 -4,-12 -4,-16 -12,-28 -16,-32 -32,-51 -59,-67 -16,-8 -47,-16 -67,-16 -20,0 -39,4 -59,8 -8,4 -24,12 -35,16 -4,4 -8,8 -16,12 -8,8 -32,27 -36,39l0 0 0 0zm453 154c0,-44 16,-99 47,-122 8,-4 12,-8 20,-12 31,-12 71,-12 102,12 4,4 12,7 16,15 4,8 8,16 12,24 8,12 12,24 12,39l0 83c0,24 -12,51 -28,67 -4,4 -4,4 -4,4 -4,4 -4,4 -4,4l-8 8c-4,0 -4,3 -8,3 -47,28 -106,12 -133,-35 -16,-24 -24,-59 -24,-90l0 0zm209 -170l-12 -11c-8,-12 -24,-24 -36,-32 -47,-24 -98,-20 -145,0l-28 12c-23,16 -27,20 -47,43 -16,16 -32,47 -39,67 -20,59 -20,126 0,185 4,12 7,24 15,35l16 24c16,20 28,35 51,47 4,4 4,4 8,8 12,4 16,8 36,12 31,12 66,8 98,0 12,-4 27,-8 39,-16 16,-8 32,-23 40,-39 7,-4 11,-16 15,-16l0 43c0,4 0,4 0,8 0,4 0,12 4,16l99 0c0,-20 -4,-39 -4,-59 0,-20 0,-39 0,-63l0 -488 -110 0 0 224 0 0 0 0z"/>
     </g>
    </g>
   </g>
  </g>
 </g>
</svg>
