<?xml version="1.0" encoding="UTF-8"?>
<!DOCTYPE svg PUBLIC "-//W3C//DTD SVG 1.0//EN" "http://www.w3.org/TR/2001/REC-SVG-20010904/DTD/svg10.dtd">
<!-- Creator: CorelDRAW X8 -->
<svg xmlns="http://www.w3.org/2000/svg" xml:space="preserve" width="3843px" height="1120px" version="1.0" style="shape-rendering:geometricPrecision; text-rendering:geometricPrecision; image-rendering:optimizeQuality; fill-rule:evenodd; clip-rule:evenodd"
viewBox="0 0 3456 1007"
 xmlns:xlink="http://www.w3.org/1999/xlink">
 <defs>
  <style type="text/css">
   <![CDATA[
    .fil1 {fill:#013066}
    .fil0 {fill:#FAB40A}
   ]]>
  </style>
 </defs>
 <g id="Layer_x0020_1">
  <metadata id="CorelCorpID_0Corel-Layer"/>
  <g id="_2153083531360">
   <g id="_1393688482384">
    <g id="_1557618875312">
     <path class="fil0" d="M2211 213c-24,0 -39,0 -59,-12 -20,-8 -31,-12 -47,-28 -4,-7 -12,-15 -16,-23 -12,-20 -27,-47 -47,-63 -4,-4 -4,-8 -8,-8l-19 -19c-8,-8 -20,-16 -32,-20 -19,-12 -35,-16 -55,-20 -8,0 -12,0 -16,0 -19,-4 -43,-4 -62,4 -32,4 -47,8 -79,24 -4,0 -4,4 -8,4 -15,8 -27,15 -43,23l-82 47c-28,16 -51,28 -79,44 -27,19 -59,35 -90,55 -12,4 -24,11 -32,19 -15,8 -90,47 -102,55 8,12 28,36 36,47l39 47c4,0 4,4 8,4 0,4 0,4 4,4 11,8 19,16 27,24l24 12c15,4 35,8 51,8 4,0 4,0 11,0 8,0 20,-4 32,-8 23,-4 55,-24 78,-40l44 -27c39,-20 74,-43 110,-63 19,-8 35,-20 51,-27l15 -8c36,-20 79,-32 118,-40l32 0c11,0 19,0 35,4 8,0 12,0 20,4 43,12 70,32 102,63 19,20 31,43 47,63 4,12 15,24 27,35 32,24 71,36 114,20 4,-4 8,-4 12,-8 16,-8 27,-16 43,-23 59,-40 126,-71 185,-110 19,-8 39,-20 55,-28 4,-4 8,-4 8,-4 39,-19 86,-31 129,-31 16,0 28,0 43,0 16,4 32,8 47,15 8,4 12,8 20,12 16,8 28,16 39,28 4,4 12,8 16,15l8 8c12,12 20,24 27,40 8,11 16,23 28,35 0,4 4,4 8,8 8,8 12,12 23,19 67,32 114,-7 169,-39 8,-4 12,-8 20,-12 31,-19 67,-35 98,-55 4,-4 4,-4 12,-7l63 -36c7,-4 11,-8 19,-12l12 -7c4,0 8,-4 12,-4 0,-8 -59,-83 -71,-95 -8,-7 -16,-19 -23,-27 -12,-8 -20,-20 -36,-24 -31,-19 -70,-8 -102,8 -20,8 -35,16 -55,28l-98 55c-12,7 -24,15 -39,19 -32,8 -67,12 -99,0 -15,-8 -27,-15 -39,-27 0,0 0,0 0,0l-4 -4c-11,-8 -23,-35 -31,-47l-16 -20c-4,-8 -8,-12 -12,-20 -15,-15 -31,-27 -51,-39 -39,-23 -86,-35 -137,-23 -24,4 -43,7 -67,15 -16,8 -27,16 -43,20 -4,4 -8,8 -12,12l-27 12c-24,15 -47,27 -71,43l-39 23c-36,20 -75,40 -110,59 -12,12 -28,16 -43,20 -8,0 -16,4 -20,4l0 0 0 0z"/>
     <path class="fil1" d="M102 629l-4 0c0,-8 0,-8 0,-8l-4 -59 -94 0c0,0 0,4 0,8 0,8 0,8 0,12l0 27c4,16 4,32 4,51l0 338 106 0 0 -259c0,-31 20,-71 47,-86 16,-8 24,-8 39,-8 16,0 28,4 36,8 8,4 15,11 19,23 16,24 20,43 20,71l0 251 106 0 0 -263c0,-24 8,-43 24,-63 15,-19 31,-27 62,-27 24,0 48,12 55,31 4,0 4,4 4,4 12,28 16,59 16,98l0 220 106 0 0 -267c0,-43 -12,-94 -35,-126 -8,-3 -12,-15 -20,-19 -12,-8 -12,-8 -24,-16 -35,-23 -94,-23 -133,-4 0,0 -4,0 -4,0l-24 16c-7,8 -11,8 -15,12 -12,11 -20,19 -28,31 0,4 0,8 -4,8 -7,-12 -7,-16 -19,-31 -4,-8 -16,-20 -24,-24 -51,-39 -133,-31 -177,8l-19 19c-4,0 -16,16 -16,24l0 0 0 0zm1979 -63l0 432 114 0 0 -436 -110 0c0,0 -4,0 -4,4zm483 0l0 432 110 0 0 -436 -106 0c0,0 -4,0 -4,4l0 0 0 0zm-196 79c0,-8 0,-12 0,-20 0,-16 -4,-47 -4,-63l-94 0c-4,0 0,4 0,8l0 63c0,4 0,16 0,24l0 341 110 0 0 -224c0,-43 15,-86 55,-110 27,-11 51,-11 74,-4 4,0 8,0 8,-3l0 -91c0,-8 -19,-4 -27,-4 -16,0 -32,4 -47,8 -28,12 -51,32 -63,55l-8 16c0,4 0,4 -4,4l0 0 0 0zm-1567 227c0,-23 4,-31 16,-51 8,-7 19,-15 31,-19 16,-8 28,-12 43,-12 20,-4 40,-4 63,-4l0 67c0,12 -8,27 -15,35 -8,16 -24,28 -40,36l-11 3c-32,4 -63,0 -79,-27 -4,-4 -8,-20 -8,-28l0 0 0 0zm-78 -282c0,4 19,63 23,70 4,0 4,0 4,0l12 -7c12,-4 19,-8 31,-12 32,-8 87,-16 118,0 24,8 39,31 39,59l0 15c-51,0 -70,0 -117,12 0,0 -4,0 -8,0 -28,8 -47,16 -71,32 -4,4 -8,7 -16,11 -27,24 -43,59 -43,102 0,32 8,59 24,83 35,47 94,59 157,47 23,-8 55,-20 70,-39 4,-4 12,-12 12,-12l4 0 4 35c0,4 0,12 4,12l98 0 -8 -43c0,-4 4,-8 0,-12l0 -19c0,-8 0,-12 0,-16l0 -138c0,-27 0,-55 -4,-78 0,-12 0,-16 -4,-32 -7,-15 -15,-35 -27,-51 0,0 -4,-4 -4,-4l-16 -15c-39,-32 -78,-40 -129,-40 -51,0 -98,12 -142,36 -4,4 -7,4 -11,4l0 0 0 0zm514 39l0 0c0,-12 -8,-55 -8,-67l-94 0c-4,0 0,12 0,20 0,4 0,8 0,12 0,8 0,8 0,11 0,20 0,32 0,52l0 341 114 0 0 -251c0,-24 0,-39 12,-59 11,-24 39,-43 74,-43 28,0 47,4 67,27 12,16 16,47 16,75l0 251 114 0 0 -263c0,-27 -4,-55 -12,-75 -4,-11 -4,-15 -12,-27 -16,-31 -31,-47 -59,-63 -16,-8 -47,-20 -67,-20 -19,0 -39,4 -59,8 -7,4 -23,12 -35,16 -4,4 -8,8 -16,12 -7,8 -31,31 -35,43l0 0 0 0zm452 153c0,-47 15,-98 47,-122 8,-7 12,-11 19,-11 32,-16 71,-16 102,8 4,3 12,11 16,15 4,8 8,16 12,24 8,12 12,23 12,39l0 83c0,23 -12,54 -28,70 -4,0 -4,0 -4,4 -4,0 -4,0 -4,4l-7 4c-4,4 -4,4 -8,8 -47,23 -106,8 -134,-36 -16,-27 -23,-62 -23,-90l0 0zm208 -173l-12 -11c-8,-12 -24,-20 -35,-28 -47,-23 -99,-20 -146,-4l-27 12c-24,16 -28,20 -47,43 -16,16 -32,47 -40,71 -19,55 -19,122 0,180 4,12 8,24 16,36l16 23c16,24 27,36 51,51 4,0 4,0 8,4 12,8 15,8 35,12 32,12 67,12 98,0 12,0 28,-8 40,-16 15,-7 31,-23 39,-39 8,-4 12,-12 16,-16l0 44c0,4 0,8 0,8 0,7 0,15 3,19l99 0c0,-23 -4,-39 -4,-59 0,-23 0,-43 0,-63l0 -487 -110 0 0 220 0 0 0 0z"/>
    </g>
   </g>
  </g>
 </g>
</svg>
