<?xml version="1.0" encoding="UTF-8"?>
<!DOCTYPE svg PUBLIC "-//W3C//DTD SVG 1.0//EN" "http://www.w3.org/TR/2001/REC-SVG-20010904/DTD/svg10.dtd">
<!-- Creator: CorelDRAW X8 -->
<svg xmlns="http://www.w3.org/2000/svg" xml:space="preserve" width="3843px" height="873px" version="1.0" style="shape-rendering:geometricPrecision; text-rendering:geometricPrecision; image-rendering:optimizeQuality; fill-rule:evenodd; clip-rule:evenodd"
viewBox="0 0 3680 836"
 xmlns:xlink="http://www.w3.org/1999/xlink">
 <defs>
  <style type="text/css">
   <![CDATA[
    .fil0 {fill:#231F20}
   ]]>
  </style>
 </defs>
 <g id="Layer_x0020_1">
  <metadata id="CorelCorpID_0Corel-Layer"/>
  <g id="_2153090322112">
   <g id="_1393688488688">
    <path class="fil0" d="M2990 339l0 12c0,0 0,13 0,13 0,58 -8,221 0,259l113 -8 0 -222c21,-12 42,-12 63,-8 29,16 25,37 25,67 0,54 0,113 0,163l113 0c0,-50 0,-109 0,-163 0,-59 0,-88 -42,-113 -71,-46 -193,-25 -272,0l0 0zm-142 217c-42,9 -109,9 -109,-33 8,-38 67,-42 109,-42l0 75 0 0zm-159 -163c46,-8 159,-50 159,29 -59,9 -180,9 -201,80 -13,21 -8,50 8,71 51,71 201,54 293,33 0,-50 0,-104 0,-154 0,-51 0,-92 -38,-113 -71,-50 -184,-17 -246,0l25 54 0 0zm-924 172c-34,0 -80,-21 -55,-59 13,-25 63,-21 96,-25 0,84 0,84 -41,84zm-122 -172c59,-8 163,-50 163,29 -83,0 -204,13 -204,101 0,142 225,100 305,83 0,-50 8,-184 0,-221 -34,-113 -205,-71 -285,-46l21 54 0 0 0 0zm352 130c12,21 50,83 41,104 -16,38 -41,71 -50,109l113 0c21,-63 180,-385 184,-414l-121 0 -71 205c-13,-34 -46,-167 -71,-205l-113 0 88 201 0 0zm1647 -172c17,-8 25,-21 30,-29 -30,0 -55,0 -92,0 -42,0 -34,8 -92,79 -9,13 -30,42 -34,42l0 -263 -109 0 0 435 109 0 0 -142 75 104c30,46 21,38 59,38 29,0 63,0 92,0 -8,-21 -100,-122 -113,-159l75 -105 0 0zm-1229 42c71,-21 109,17 109,88 -9,25 -17,46 -38,63 -13,8 -63,21 -71,0l0 -151 0 0 0 0zm-109 213c67,17 121,30 192,17 172,-38 143,-230 88,-272 -50,-37 -100,-42 -171,-29l0 -134 -109 -8 0 426 0 0zm-1250 9c8,0 92,8 100,0 4,-9 21,-222 34,-264 29,71 71,205 100,264l63 0 100 -264c8,13 17,105 17,134 4,29 4,100 21,130l100 0 -59 -398 -129 0 -84 239 -79 -239 -126 0 -58 398 0 0 0 0z"/>
    <g>
     <path class="fil0" d="M184 393c8,-8 8,-12 17,-12 4,-9 12,-9 12,-9l13 -12c-21,-9 -34,12 -42,33l0 0zm234 -393c138,0 259,71 335,176 0,-5 0,-5 0,-5l8 9c17,25 29,50 38,75 21,50 33,105 33,163 0,193 -129,356 -309,402 4,-5 4,-5 8,-5 -42,13 -79,21 -125,21l0 0c-63,0 -122,-21 -172,-46 -50,-21 -54,-33 -92,-62l-17 -17c0,0 -4,0 -4,-4 0,0 0,0 -4,-4 4,4 4,4 4,4l0 0c-4,-4 -8,-9 -12,-13 -13,-17 -30,-33 -42,-54 4,4 4,4 4,8 -12,-21 -25,-42 -33,-63 -25,-50 -38,-104 -38,-171 0,-75 29,-176 71,-234 21,-21 38,-42 50,-59 50,-50 142,-104 247,-117 17,0 33,-4 50,-4l0 0zm339 180c0,0 4,0 4,4 0,-4 -4,-4 -4,-4zm4 8c4,0 4,0 4,4 0,-4 0,-4 -4,-4zm8 4c0,5 0,5 5,9 -5,-4 -5,-4 -5,-9zm5 9c0,4 4,4 4,8 -4,-4 -4,-4 -4,-8zm4 8c0,4 4,8 4,8 0,0 -4,-4 -4,-8zm4 8c4,5 4,9 4,9 0,0 0,-4 -4,-9zm4 9c4,4 4,8 4,8 0,0 0,-4 -4,-8zm4 12c5,0 5,5 5,9 0,-4 0,-9 -5,-9zm5 9c4,0 4,4 4,8l0 0 0 0 0 0c0,-4 0,-8 -4,-8zm-276 573c0,0 -5,0 -9,0 4,0 9,0 9,0zm-9 0c-4,0 -4,4 -8,4 4,0 4,-4 8,-4zm-8 4c-4,0 -9,0 -9,0 0,0 5,0 9,0zm-13 0c0,0 -4,4 -8,4 4,0 8,-4 8,-4zm-8 4c-4,0 -8,0 -8,0 0,0 4,0 8,0zm-13 0c0,0 -4,0 -8,0 4,0 8,0 8,0zm-8 0c-4,0 -8,0 -8,4 0,-4 4,-4 8,-4zm-13 4c0,0 -4,0 -8,0 4,0 8,0 8,0zm-8 0c-4,0 -8,0 -12,0 4,0 8,0 12,0zm-12 0c0,0 -5,0 -9,0 4,0 9,0 9,0zm-9 0c-4,0 -8,0 -12,0l12 0zm-12 0c-5,0 -5,0 -9,0 4,0 4,0 9,0zm-9 0c-4,0 -8,0 -12,0 4,0 8,0 12,0zm-12 0c-4,-4 -4,-4 -9,-4 5,0 5,0 9,4zm-9 -4c-4,0 -8,0 -12,0 4,0 8,0 12,0zm-12 0c-4,0 -4,0 -9,0 5,0 5,0 9,0zm-9 0c-4,0 -8,-4 -12,-4 4,0 8,4 12,4zm-12 -4c-4,0 -4,0 -8,0 4,0 4,0 8,0zm-8 0c-5,0 -9,-4 -9,-4 0,0 4,4 9,4zm-13 -4c0,0 -4,0 -8,0 4,0 8,0 8,0zm-8 0c-5,-5 -9,-5 -9,-5 0,0 4,0 9,5zm-13 -5c0,0 -4,0 -4,-4 0,4 4,4 4,4zm-8 -4c-4,0 -4,0 -9,0 5,0 5,0 9,0zm-9 0c-4,-4 -4,-4 -8,-4 4,0 4,0 8,4zm-12 -4c0,-4 -4,-4 -4,-4 0,0 4,0 4,4zm-9 -4c0,0 -4,-4 -8,-4 4,0 8,4 8,4zm-8 -4c-4,0 -4,-4 -8,-4 4,0 4,4 8,4zm-8 -4c-4,0 -4,-5 -9,-5 5,0 5,5 9,5zm-13 -5c0,0 -4,-4 -4,-4 0,0 4,4 4,4zm-8 -4c0,0 -4,-4 -4,-4 0,0 4,4 4,4zm-9 -4c0,-4 -4,-4 -4,-4 0,0 4,0 4,4zm-8 -8c0,0 -4,0 -4,0 0,0 4,0 4,0zm-8 -5c0,0 -4,0 -4,0 0,-4 -5,-4 -5,-4 0,0 -4,-4 -4,-4 0,0 4,4 4,4l9 4zm-17 -8c0,-4 -4,-4 -4,-4 0,0 4,0 4,4zm-67 -58c-4,-5 -4,-5 -8,-9l0 0 0 0 8 9zm-50 -63c0,-4 -4,-4 -4,-9 0,5 4,5 4,9zm-4 -9c-4,-4 -4,-4 -4,-8 0,4 0,4 4,8zm-4 -8c-5,-4 -5,-4 -5,-8 0,0 -4,0 -4,0 0,-4 0,-4 0,-9 0,5 0,5 0,9l9 8zm-13 -21c0,0 0,-4 0,-4 0,0 0,4 0,4zm-4 -8c0,0 0,-4 -4,-4 4,0 4,4 4,4zm-4 -9c0,0 0,-4 -5,-8 5,4 5,8 5,8zm-5 -8c0,-4 0,-4 0,-8 0,4 0,4 0,8zm-4 -8c0,-4 0,-4 0,-9 0,5 0,5 0,9zm0 -13c-4,0 -4,-4 -4,-4 0,0 0,4 4,4zm-4 -8c0,0 -4,-4 -4,-9 0,5 4,9 4,9zm-4 -9c0,-4 0,-4 -4,-8 4,4 4,4 4,8zm-4 -8c0,-4 0,-8 0,-12 0,4 0,8 0,12zm0 -12c-4,0 -4,-5 -4,-9 0,4 0,9 4,9zm-4 -9c0,-4 0,-8 0,-8 0,0 0,4 0,8zm0 -12c-5,0 -5,-5 -5,-9 0,4 0,9 5,9zm-5 -9c0,-4 0,-4 0,-8 0,4 0,4 0,8zm0 -8c0,-4 -4,-8 -4,-13 0,5 4,9 4,13zm-4 -13c0,-4 0,-4 0,-8 0,4 0,4 0,8zm0 -8c0,-4 0,-8 0,-13 0,5 0,9 0,13zm0 -13c0,-4 0,-4 0,-8 0,4 0,4 0,8zm0 -8c0,-4 0,-8 0,-12 0,4 0,8 0,12zm0 -12c0,-5 0,-9 0,-9 0,-4 0,-8 0,-12 0,4 0,8 0,12 0,0 0,4 0,9zm0 -26c0,0 0,-4 0,-4 0,0 0,4 0,4zm0 -8c0,-4 0,-4 0,-8 0,4 0,4 0,8zm0 -12c0,0 0,-5 0,-5 0,0 0,5 0,5zm0 -9c0,-4 0,-4 0,-8 0,4 0,4 0,8zm0 -12c4,0 4,-5 4,-5 0,0 0,5 -4,5zm4 -9c0,-4 0,-4 0,-4 0,0 0,0 0,4zm0 -12c0,0 0,0 0,-4 0,4 0,4 0,4zm5 -9c0,0 0,-4 0,-4 0,0 0,4 0,4zm0 -8c0,-4 0,-4 4,-4 -4,0 -4,0 -4,4zm4 -8c0,-5 0,-5 0,-9 0,4 0,4 0,9zm0 -13c4,0 4,-4 4,-4 0,0 0,4 -4,4zm4 -8c0,-4 0,-4 4,-9 -4,5 -4,5 -4,9zm4 -13c0,0 0,-4 4,-4 -4,0 -4,4 -4,4zm4 -8c0,-4 0,-4 0,-9 0,5 0,5 0,9zm4 -13c0,0 0,0 0,-4 0,4 0,4 0,4zm5 -8c0,0 0,-4 0,-4 0,0 0,4 0,4zm4 -8c0,0 0,-5 0,-5 0,0 0,5 0,5zm4 -9c0,0 0,-4 0,-4 0,0 0,4 0,4zm4 -8c0,-4 0,-4 0,-4 0,0 0,0 0,4zm4 -9c0,-4 0,-4 0,-4 0,0 0,0 0,4zm5 -8c0,-4 0,-4 0,-4 0,0 0,0 0,4zm4 -8c0,-4 4,-4 4,-4 0,0 -4,0 -4,4zm4 -9c4,0 4,-4 4,-4 0,0 0,4 -4,4zm8 -8c0,0 0,0 0,-4 0,4 0,4 0,4zm25 -38c0,0 0,0 5,0 -5,0 -5,0 -5,0zm9 -4c0,0 0,-4 0,-4 0,0 0,4 0,4zm4 -8c0,0 0,0 4,0 -4,0 -4,0 -4,0zm305 -92c209,0 377,167 377,376 0,205 -168,377 -377,377 -209,0 -376,-172 -376,-377 0,-209 167,-376 376,-376zm-238 410c4,-9 21,-30 25,-38 8,-4 21,-13 46,-13 -17,-41 -71,21 -71,51l0 0 0 0zm113 -222c0,0 0,0 0,0 0,8 0,0 21,-8 12,-5 83,-13 58,-34 -17,-17 -17,0 -46,13 -21,16 -21,16 -33,29 0,0 0,0 0,0l0 0zm-101 243c13,-9 30,-30 51,-30 12,0 12,0 20,9l0 0c30,-51 -58,-51 -71,21l0 0zm264 -293c8,12 8,12 21,21 12,8 12,16 29,21 0,-21 -8,-71 -38,-76 -4,13 -12,21 -12,34l0 0 0 0zm-130 79l17 0c-8,9 -8,9 -17,13 0,8 0,8 -4,8l4 -8 0 -13zm80 -67c-9,25 -21,17 -42,46 0,0 0,5 0,5 -17,16 -38,0 -50,8 -21,0 -9,17 -30,-8 -8,0 0,0 0,0 -8,8 -8,25 0,29 0,0 0,0 0,0l9 8c-9,13 -21,13 -9,34 13,-5 0,-21 30,-21 21,0 29,-13 41,-21 -8,17 -12,29 -29,42 -12,16 -21,16 -42,25 9,4 21,4 38,4 33,0 25,-13 33,-34 17,-20 30,-37 38,-50 -8,-8 -8,0 -8,-8l-9 0c0,-8 51,-29 59,-34 8,-8 0,-16 -8,-25 -9,-4 -21,-4 -34,-12 4,8 4,8 13,12l0 0 0 0zm92 352c29,-38 21,-80 0,-113 -9,-17 -13,-50 0,-38 8,0 16,17 37,21 -8,-13 -16,-21 -16,-42 -5,-29 16,-83 -51,-134 38,63 9,101 -12,155 -29,71 33,88 42,151l0 0zm-105 -201c-67,-13 -46,42 -88,38 -21,0 -21,-17 -29,-30 -13,-21 -21,-12 -42,-8l0 0c21,8 21,8 21,38 8,54 59,29 88,33 12,8 21,21 33,29 0,-42 -21,-42 -29,-50 25,-29 38,-8 50,17 17,33 9,54 9,83 29,-20 29,-83 8,-129 -8,-4 -8,-13 0,-25 0,-25 4,-46 21,-59 8,-8 21,-8 29,-12 -71,-38 -67,25 -71,75l0 0 0 0zm25 -205c-21,0 -12,-8 -25,-17 -8,-4 -21,-12 -29,-12 -9,21 0,37 -17,42l-33 16c-9,4 -21,13 -38,21 -25,13 -50,29 -54,55 -9,25 -30,25 -67,58 -13,13 -34,42 -42,63 29,-25 67,-63 109,-84 21,-12 12,-12 21,-37 12,-26 41,-42 79,-55 25,-17 63,-29 92,-37l0 20c21,-4 21,-12 29,-33 0,-21 4,-38 21,-50 21,8 34,42 50,63 5,20 21,58 21,87l-21 5c21,29 76,58 71,0 13,8 46,37 46,46 17,12 30,33 30,62 16,-29 8,-79 0,-100 -13,-21 -21,-29 -30,-42 26,8 30,13 46,13 0,0 -8,-5 -8,-13 -8,0 -12,-8 -21,-17 -42,-33 -50,-25 -79,-41 -13,-5 -21,-21 -30,-34 -4,-8 -54,-50 -71,-50 -41,-17 -41,42 -50,71l0 0 0 0zm-155 439l21 8c-8,9 -8,9 -12,9 -9,0 -9,-9 -9,-17l0 0zm-50 -63c9,-8 9,-8 13,-12l8 33c-12,0 -21,-8 -21,-21l0 0zm134 21c0,-12 0,-12 -4,-29 12,0 12,8 21,8 0,21 -21,38 -38,42l0 -21c17,0 9,0 21,0l0 0zm-238 -125c12,-9 21,-17 33,-17 -8,17 -12,17 -8,21 8,8 17,8 8,29 -12,-8 -29,-21 -33,-33zm338 234c0,13 -4,13 -12,21l21 8c33,-8 50,-16 79,-29 0,42 -37,75 -46,100 38,-8 109,-46 130,-67 38,-29 21,-12 58,-50l34 -54c21,-50 38,-92 38,-159 0,-50 -17,-121 -38,-155 21,105 21,163 -13,255 0,-21 -8,-41 -16,-62 -5,-38 -5,-51 0,-88 -13,8 -21,21 -21,37 -4,42 0,101 -4,143 -9,50 -46,113 -80,129 21,-50 29,-96 21,-150 13,4 8,12 21,21 8,-30 8,-51 8,-80 0,-29 -8,-50 -16,-71l29 17c0,-80 -42,-88 -71,-117 0,29 29,46 37,79 -21,-8 -29,-12 -50,-12 4,12 13,12 21,25 13,37 29,67 21,108 -13,0 -21,-12 -42,-12 13,42 21,84 0,134 0,-13 0,-30 -8,-38 -9,0 -9,0 -9,8 0,0 0,0 0,0 -12,30 -33,51 -62,51 12,-21 29,-34 8,-63 -8,-21 -29,-38 -58,-29 -30,8 -34,21 -51,41 -12,17 -12,38 -21,59 -20,4 -41,0 -62,-8 -21,-13 0,-34 0,-51 50,0 100,-33 104,-71 0,-50 -71,-104 -154,-33 -17,4 -17,4 -30,12 -21,13 -42,9 -50,-12 -33,-50 8,-50 8,-88 -37,-12 -37,-21 -62,0l0 -12c-25,20 -25,29 0,54 4,8 12,8 21,21 12,29 21,58 62,67 13,4 9,0 30,21 4,8 12,8 29,12 -8,-50 -17,-54 21,-71 25,-21 54,-12 71,8 -17,9 -17,9 -21,21 -8,13 -8,30 -17,38 -12,33 -42,13 -54,13 0,20 4,29 12,50 21,62 59,42 122,58 0,-46 12,-88 42,-108 50,-21 58,58 20,79l0 0 0 0zm-246 125c0,0 -4,0 -4,0l4 0zm-142 -146c-5,-4 -5,-4 -5,-8l5 8zm58 80c-4,-5 -4,-5 -8,-9l8 9z"/>
    </g>
   </g>
  </g>
 </g>
</svg>
