<?xml version="1.0" encoding="UTF-8"?>
<!DOCTYPE svg PUBLIC "-//W3C//DTD SVG 1.0//EN" "http://www.w3.org/TR/2001/REC-SVG-20010904/DTD/svg10.dtd">
<!-- Creator: CorelDRAW X8 -->
<svg xmlns="http://www.w3.org/2000/svg" xml:space="preserve" width="3843px" height="1170px" version="1.0" style="shape-rendering:geometricPrecision; text-rendering:geometricPrecision; image-rendering:optimizeQuality; fill-rule:evenodd; clip-rule:evenodd"
viewBox="0 0 4640 1413"
 xmlns:xlink="http://www.w3.org/1999/xlink">
 <defs>
  <style type="text/css">
   <![CDATA[
    .fil1 {fill:#6A0078}
    .fil0 {fill:#84C225}
   ]]>
  </style>
 </defs>
 <g id="Layer_x0020_1">
  <metadata id="CorelCorpID_0Corel-Layer"/>
  <g id="_2152865850704">
   <g id="_1393072098528">
    <g id="_1557618869200">
     <path class="fil0" d="M522 485c0,95 26,190 63,269l-137 0c5,16 53,37 69,53 21,21 47,42 58,68 26,0 31,-10 63,-10 0,16 5,16 5,26 27,74 27,195 -10,258 -42,58 -85,58 -148,58 -105,0 -274,-116 -316,-226 -32,-69 -42,-158 -11,-227 16,-42 32,-63 53,-84 26,-37 53,-53 53,-90 -11,5 -74,63 -90,79l-74 95c-63,74 -100,158 -100,232l0 26c0,79 47,164 121,243 21,26 85,68 116,84 42,21 95,27 158,27 74,0 111,-16 153,-53 90,-69 137,-143 164,-259 16,-57 10,-121 10,-189 101,0 232,31 317,-6 79,-31 168,-89 168,-184 0,-53 0,-74 -31,-121 -16,-32 -32,-43 -53,-69 -53,-42 -90,-58 -153,-90l42 74c90,201 -147,285 -163,285l-148 0c-16,0 -16,-32 -26,-63 -37,-143 -16,-317 37,-464 0,-16 10,-21 10,-27 -37,6 -105,64 -137,106 -31,37 -63,105 -63,179l0 0 0 0zm269 517l58 68c16,-5 63,-52 63,-68 -10,-16 -47,-53 -63,-69l-58 69zm-448 -485c0,16 42,68 58,74 16,-11 16,-22 31,-27 16,-16 16,-16 32,-42 -11,-11 -53,-58 -63,-69 -6,11 -53,58 -58,64l0 0zm627 485c11,16 48,63 63,68l69 -68c-32,-16 -37,-42 -69,-69 -10,11 -52,53 -63,69zm-179 -849l0 5c84,11 279,106 353,169 42,37 95,84 127,137 37,58 58,121 58,195 0,116 -37,232 -74,306 -100,169 -269,263 -475,279 -58,0 -89,32 -121,64 -37,31 -68,58 -90,100 32,5 53,0 85,5 37,0 47,0 84,-5 69,0 106,-11 158,-16 122,-16 227,-63 317,-132 63,-47 121,-137 147,-211 90,-269 21,-585 -153,-775 -5,-10 -15,-16 -21,-21l-184 -184c-16,-16 -74,-64 -90,-69 -37,63 -16,63 -84,121 -5,16 -21,32 -37,32l0 0z"/>
     <path class="fil1" d="M1634 1255c0,16 22,5 69,5 11,0 5,-37 5,-53l0 -237 116 274c6,27 0,16 58,16 16,0 27,-37 32,-58 16,-32 84,-205 90,-221l0 221c0,69 -6,58 68,58 11,0 16,0 16,-5l0 -432c-100,0 -74,-27 -121,73l-90 227c-11,16 -11,32 -26,37l-127 -327c-16,-21 0,-10 -90,-10l0 432 0 0 0 0zm2241 -464c0,74 27,5 42,53 11,31 -5,369 11,411 21,42 111,21 111,-27 0,-26 -42,27 -53,-36 0,-32 0,-53 0,-90l0 -290c0,-42 -53,-37 -100,-37 -5,0 -11,0 -11,16l0 0zm607 53l0 84 -53 0 0 42 53 0c0,27 0,27 0,48l0 168c0,106 110,95 158,74l0 -47c-106,10 -90,42 -90,-243 85,0 90,32 90,-26l0 -16 -90 0 0 -121c-16,16 -47,26 -68,37l0 0 0 0zm-2067 -580c0,-6 0,-6 0,-27l-85 0 0 37 37 0 0 317 53 0c0,-22 -5,-27 -5,-58l0 -206c0,-37 169,-84 174,0l0 211c0,63 -5,53 47,53 16,0 16,0 16,-6 -26,-84 5,-258 -26,-311 -37,-53 -106,-47 -158,-31 -16,10 -37,21 -53,21l0 0 0 0zm-364 205c0,-58 69,-74 121,-68 37,10 32,0 32,95 0,37 -11,37 -16,42 -32,16 -137,42 -137,-69l0 0zm-21 -226l0 47c37,-11 126,-37 163,5 16,16 11,37 11,69 -53,-21 -206,10 -206,105 0,42 0,64 32,95 37,37 105,37 142,21 58,-21 6,6 85,6 15,0 21,-6 31,-11l0 -42c-16,10 -10,10 -31,10l0 -237c0,-21 -16,-47 -32,-53 -53,-47 -142,-21 -195,-15l0 0zm675 -122c0,32 42,-5 42,21l0 449c69,0 53,10 53,-11l0 -153c42,0 31,0 79,42 16,27 31,32 47,53 11,16 27,32 42,58 22,26 32,11 80,11 -11,-11 -111,-122 -132,-143 -6,-21 -32,-31 -37,-53 5,-21 16,-21 31,-36 22,-32 80,-95 95,-122 -15,0 -21,0 -37,0 -31,0 -21,16 -58,53 -68,69 -52,84 -110,84l0 -274 -95 0 0 21 0 0 0 0zm-443 1155c63,0 84,-5 132,-32 21,32 26,27 68,27 37,0 53,-16 53,-58 -69,10 -53,26 -53,-143l0 -121c0,-37 6,-32 -68,-32 -16,0 -11,16 -11,53l0 237c-53,6 -31,6 -84,6 -21,0 -53,-11 -58,-27l0 -237c0,-37 5,-32 -63,-32 -22,0 -6,16 -6,43l0 174c0,42 -10,73 16,94 16,27 42,48 74,48l0 0 0 0zm1329 -116c0,-58 79,-74 100,-74l47 5 0 85c0,37 -147,95 -147,-16l0 0 0 0zm-37 -227l0 69c5,-5 121,-69 168,-16 21,26 16,37 21,63 -31,0 -36,-10 -68,-10 -74,0 -153,31 -153,110 0,58 26,95 79,122 53,10 106,5 148,-27 10,27 26,37 58,32 26,-5 42,-16 42,-53 -32,0 -42,21 -42,-74 0,-100 21,-147 -48,-216 -52,-42 -184,-16 -205,0l0 0 0 0zm305 290l-10 0c0,0 10,0 10,0zm396 -137c10,0 21,5 42,5l0 85c0,26 -84,79 -126,26 -48,-53 5,-116 84,-116l0 0zm-148 -153l0 69c27,-5 69,-42 122,-37 47,5 68,21 68,84 -32,0 -90,-31 -163,16 -69,37 -64,137 -16,174 79,74 179,5 195,5 16,48 100,37 100,-31 -26,10 -26,10 -47,10 0,-21 0,-21 0,-47 0,-37 0,-143 0,-164 -16,-52 -69,-100 -122,-100 -47,0 -100,5 -137,21l0 0 0 0zm-1386 153c21,0 21,5 52,5l0 85c0,26 -95,79 -137,26 -10,-10 -16,-32 -16,-53 16,-42 58,-63 101,-63l0 0 0 0zm-148 -153l0 69c26,-5 37,-16 63,-21 53,-21 137,-21 137,68 -42,0 -100,-31 -174,16 -68,37 -58,137 -15,174 84,74 189,5 195,5 15,48 100,37 100,-31 -16,10 -21,10 -37,10 0,-21 -11,-21 -11,-47 0,-106 27,-174 -37,-232 -63,-53 -142,-32 -221,-11l0 0zm-817 -379l-79 0 0 -180 79 0c68,0 110,37 110,90 -5,69 -52,90 -110,90l0 0zm37 -222l-116 0 0 -163c52,0 163,-27 174,58 0,26 0,52 -6,68 -15,16 -21,37 -52,37l0 0zm-211 -195l0 32 42 0 0 385c0,52 -21,37 153,37 37,0 74,-11 100,-27 84,-63 53,-190 -26,-216 26,-26 58,-37 58,-111 0,-68 -79,-116 -153,-116l-164 0c-5,0 -10,11 -10,16l0 0 0 0zm1318 833l37 11 0 290 79 0 0 -222c0,-31 -11,-31 -11,-52 32,-11 69,-27 95,-16 42,5 53,31 53,68l0 174c-11,53 -16,48 74,48 0,-32 0,-43 0,-64l0 -205c0,-21 79,-32 84,-21 90,16 69,84 69,174 0,21 0,47 0,58 0,63 -16,58 73,58 0,-27 -5,-32 -5,-58l0 -174c0,-53 -10,-58 -31,-79 -58,-64 -143,-43 -211,-11 -100,-68 -158,-5 -201,0 -15,-37 -42,-32 -105,-32l0 53 0 0z"/>
    </g>
   </g>
  </g>
 </g>
</svg>
