<?xml version="1.0" encoding="UTF-8"?>
<!DOCTYPE svg PUBLIC "-//W3C//DTD SVG 1.0//EN" "http://www.w3.org/TR/2001/REC-SVG-20010904/DTD/svg10.dtd">
<!-- Creator: CorelDRAW X8 -->
<svg xmlns="http://www.w3.org/2000/svg" xml:space="preserve" width="3843px" height="3128px" version="1.0" style="shape-rendering:geometricPrecision; text-rendering:geometricPrecision; image-rendering:optimizeQuality; fill-rule:evenodd; clip-rule:evenodd"
viewBox="0 0 4475 3643"
 xmlns:xlink="http://www.w3.org/1999/xlink">
 <defs>
  <style type="text/css">
   <![CDATA[
    .fil0 {fill:#ED1C24}
   ]]>
  </style>
 </defs>
 <g id="Layer_x0020_1">
  <metadata id="CorelCorpID_0Corel-Layer"/>
  <path class="fil0" d="M1562 175c20,71 365,422 442,518 172,5 249,-66 457,5 376,143 594,590 361,991 -310,529 -1108,376 -1626,402 609,40 1239,50 1839,96 -76,46 -1575,15 -1804,15l1708 87c-72,35 -1423,15 -1626,15 81,147 431,310 594,345 1443,361 2322,-1519 1118,-2403 -320,-234 -737,-300 -1118,-203 -142,25 -234,101 -345,132l0 0 0 0zm1656 3450l147 0 0 -610 -147 0 0 610zm-1407 -2652c30,40 452,320 518,350 10,-147 40,-213 -66,-310 -41,-40 -158,-157 -188,-203 -112,5 -198,81 -264,163l0 0zm233 945c-152,-10 -416,15 -554,-10 -106,-16 -25,-72 -198,-72 -106,0 -198,0 -300,0 11,97 102,97 168,168 66,71 122,46 315,46 117,0 234,0 351,0 122,0 152,-31 218,-132l0 0zm-879 1697l-15 -117c-91,-20 -269,66 -285,-152 -15,-214 127,-214 285,-199l15 -127c-239,-10 -467,11 -467,310 -10,310 234,315 467,285zm1108 -122c-142,0 -285,51 -285,-163 -10,-244 153,-167 285,-188l0 -122c-249,-25 -462,26 -462,326 5,279 243,320 477,264l-15 -117 0 0zm1910 -376c66,0 82,-5 132,30 26,117 -5,153 -132,138l0 -168 0 0zm-152 498l147 0 5 -219c127,-15 275,21 290,-152 25,-264 -208,-234 -442,-229l0 600 0 0 0 0zm-254 -158c-46,102 -198,36 -280,5l0 138c133,66 387,76 407,-117 41,-290 -234,-188 -290,-305 41,-112 183,-36 270,-26l-5 -121c-143,-67 -376,-51 -392,132 -35,264 244,162 290,294l0 0 0 0zm-2144 -2154l696 254 10 -188 -564 -361 -142 295 0 0zm1011 1946c46,36 127,168 162,218 97,158 66,158 249,158l0 -610 -132 0 0 381 -264 -381 -147 0 0 610 132 0 0 -376 0 0 0 0zm-2180 147c-81,214 -381,102 -279,-167 71,-199 365,-82 279,167zm-224 -381c-365,87 -315,717 158,610 371,-91 305,-727 -158,-610zm1184 351c234,-5 204,157 5,142l-5 -142zm0 -239c72,0 92,-10 143,36 10,96 -56,96 -143,96l0 -132zm234 173c0,0 188,-183 5,-264 -101,-41 -279,-26 -396,-26l0 615c117,0 315,20 411,-51 97,-76 102,-223 -20,-274l0 0zm-513 -2769c41,50 218,147 279,193 341,223 234,233 524,0 -10,-51 -458,-493 -473,-498l-330 305 0 0zm-208 498l619 233c26,-66 107,-254 107,-315l-543 -340c-77,66 -173,320 -183,422l0 0zm1387 746c20,-35 20,-121 0,-182 -36,-26 -615,-234 -691,-239 0,167 15,198 45,350 -101,-111 -96,-249 -116,-391 -102,-35 -580,-218 -651,-208 -25,173 -30,315 5,498 51,254 82,188 346,188 152,0 991,15 1062,-16l0 0 0 0z"/>
 </g>
</svg>
