<?xml version="1.0" encoding="UTF-8"?>
<!DOCTYPE svg PUBLIC "-//W3C//DTD SVG 1.0//EN" "http://www.w3.org/TR/2001/REC-SVG-20010904/DTD/svg10.dtd">
<!-- Creator: CorelDRAW X8 -->
<svg xmlns="http://www.w3.org/2000/svg" xml:space="preserve" width="3843px" height="2140px" version="1.0" style="shape-rendering:geometricPrecision; text-rendering:geometricPrecision; image-rendering:optimizeQuality; fill-rule:evenodd; clip-rule:evenodd"
viewBox="0 0 3887 2164"
 xmlns:xlink="http://www.w3.org/1999/xlink">
 <defs>
  <style type="text/css">
   <![CDATA[
    .fil0 {fill:#1D4699}
    .fil1 {fill:#E62129}
   ]]>
  </style>
 </defs>
 <g id="Layer_x0020_1">
  <metadata id="CorelCorpID_0Corel-Layer"/>
  <g id="_2153083508544">
   <g id="_1393688491440">
    <g id="_1557613925936">
     <path class="fil0" d="M1935 764l4 5c0,0 0,0 0,0 22,17 53,13 79,0 -8,22 -30,48 -30,114 0,40 13,75 26,106 27,58 66,102 124,133 66,31 154,35 221,4 17,-9 61,-31 70,-44 -53,0 -93,-44 -93,-97 0,-49 40,-93 89,-93 31,0 57,5 75,27 9,4 4,9 13,13l5 -62c0,-88 -67,-181 -146,-221 -97,-48 -225,-31 -296,40 -5,9 -13,13 -18,22 -9,5 -13,13 -17,18 0,-13 0,-9 0,-22 -9,-36 -31,-40 -45,-49 31,0 75,-18 98,-26 88,-40 150,-133 150,-230 0,-71 -18,-124 -58,-172 -22,-31 -48,-53 -84,-71 -13,-4 -26,-9 -39,-13 4,9 13,26 13,44 0,49 -40,93 -88,93l-18 0c-53,0 -111,-67 -75,-137 -22,0 -58,26 -71,35 -141,102 -141,318 -4,420 35,31 66,39 110,53 13,0 18,0 27,9 -31,0 -45,35 -45,66 -4,-5 -123,-177 -326,-93 -18,4 -27,13 -45,22 -4,5 -8,9 -17,13 -5,9 -9,9 -18,14 -62,61 -93,159 -75,243 18,-18 31,-31 53,-40 35,-13 71,0 97,17 36,36 40,106 0,142 -17,17 -31,22 -57,26 17,36 115,67 168,67 88,0 181,-49 225,-129 40,-66 53,-163 22,-234 -4,-4 -4,-4 -9,-8l5 -5 0 0 0 0zm1219 1095l0 -57 -124 0 0 353c155,0 137,9 137,-31 0,-39 -5,-163 4,-189 18,-40 75,-45 89,-5 8,27 4,190 4,225l133 0 0 -243c0,-123 -137,-145 -212,-79 -14,9 -18,18 -31,26l0 0 0 0zm-336 133c0,40 0,57 -27,79 -39,36 -106,9 -88,-30 13,-23 53,-31 75,-40 13,0 27,-9 40,-9l0 0zm-110 172l-23 0c-30,-4 -57,-9 -79,-26 -31,-18 -40,-49 -40,-84 0,-89 111,-97 181,-111 9,-4 22,-4 36,-8 13,-5 26,-14 35,-14 0,-26 -4,-44 -31,-44 -57,0 -62,0 -84,40 -9,0 -22,0 -31,0l-62 -9c-13,0 -22,-4 -35,-4 0,-9 13,-31 13,-40 22,-40 58,-53 102,-62 48,-9 154,-9 190,9 26,13 44,26 57,53 31,57 5,181 18,252 4,17 9,26 13,39l-128 0c-4,-13 -13,-22 -13,-39 -9,0 -9,8 -27,17 -22,18 -57,27 -92,31l0 0 0 0zm768 -17c0,4 0,8 9,8l132 0 0 -88c0,-4 40,-49 49,-53 4,18 57,115 71,141l150 0c-5,-13 -53,-97 -66,-114l-67 -115 97 -89c9,-8 23,-22 27,-35l-137 0c-35,0 -22,0 -57,40l-31 35c-5,9 -9,9 -14,13 -8,14 -13,18 -22,27l0 -243 -141 0 0 473 0 0 0 0zm-1184 -98l-75 0 0 -97c62,0 146,-13 146,49 0,40 -31,48 -71,48l0 0zm0 -190l-75 0 0 -88 75 0c31,0 53,13 53,44 0,31 -22,44 -53,44l0 0 0 0zm-229 296c88,0 247,5 327,-8 26,-5 44,-5 61,-18 27,-18 62,-58 62,-102 0,-35 0,-62 -31,-92 -9,-14 -44,-31 -62,-36l0 -4c102,-22 102,-221 -61,-221l-296 0 0 481 0 0zm-698 -446c0,67 75,97 123,53 45,-39 23,-123 -57,-123 -35,0 -66,35 -66,70l0 0zm393 -380l35 0 0 -101 -35 0 0 101zm698 -57l0 -22c13,0 22,0 22,9 0,9 -9,13 -22,13l0 0 0 0zm-31 57l31 0 0 -35c17,0 53,0 53,-35 0,-40 -44,-31 -84,-31l0 101 0 0zm-941 -57l-4 0 0 -22c13,0 13,0 22,4l0 14c-9,0 -9,4 -18,4l0 0 0 0zm-35 57l31 0 0 -35c31,0 53,0 53,-40 0,-35 -53,-26 -84,-26l0 101 0 0zm132 -70c0,13 5,17 9,31l-22 0 9 -22c0,0 0,-5 0,-5l4 -4 0 0zm-53 70l31 0 5 -17 30 0c5,9 5,13 9,17l31 0c-4,-22 -35,-88 -35,-101l-35 0c-5,9 -9,18 -9,22l-27 79zm782 -39c0,44 40,39 62,39 44,0 35,-70 35,-101l-35 0c0,22 4,53 0,75 -18,4 -13,4 -27,0 -9,-22 -4,-53 -4,-75l-31 0 0 62 0 0zm-66 17c-22,0 -22,-17 -22,-35 0,-26 39,-26 39,4 0,18 -4,31 -17,31l0 0 0 0zm-5 22c44,0 53,-22 53,-57 0,-62 -106,-62 -101,9 0,26 17,48 48,48zm-269 -48c0,71 101,48 101,31l0 -40 -48 0 0 22 22 0c0,13 -9,13 -22,13 -31,0 -27,-57 0,-57 9,0 13,0 18,9 13,0 17,0 30,0 -8,-36 -35,-31 -57,-31 -26,0 -44,22 -44,53l0 0zm168 -13l-18 0 0 -18 13 0c9,0 9,0 14,9 0,4 0,9 -9,9l0 0zm-49 61l31 0 0 -39c13,0 13,4 18,17 4,5 13,14 13,22l35 0c-9,-17 -13,-39 -26,-44 4,-4 4,-4 13,-9 18,-17 9,-48 -26,-48l-58 0 0 101 0 0 0 0zm-278 0l31 0 0 -48c40,44 17,48 66,48l0 -101 -31 0 0 53c-4,-5 -4,-9 -9,-13 -31,-45 -13,-40 -57,-40l0 101 0 0zm-168 0l31 0 0 -48 18 26c22,27 13,22 44,22l0 -101 -27 0 0 53c-13,-13 -31,-53 -39,-53l-27 0 0 101 0 0zm-274 5l0 -1201c0,-45 27,-80 62,-80l1082 0c36,0 62,35 62,71l0 1219c0,44 -31,75 -71,75l-1064 0c-49,0 -71,-40 -71,-84l0 0 0 0zm-53 -1215l0 1228c0,62 58,119 115,119l1082 0c58,0 115,-57 115,-110l0 -1241c0,-58 -57,-115 -124,-115l-1064 0c-66,0 -124,57 -124,119l0 0 0 0z"/>
     <path class="fil1" d="M203 1877l-48 0 0 -106c48,0 101,-9 110,49 4,35 -26,57 -62,57zm1166 -66l0 344 128 0c5,0 9,-4 9,-8l0 -336c0,-5 -4,-9 -9,-9l-119 0c-9,0 -9,4 -9,9l0 0 0 0zm-327 48c0,-26 5,-57 -8,-57l-120 0 0 353 137 0 0 -167c0,-45 9,-84 53,-84 31,0 44,17 44,48l0 203 137 0 0 -229c0,-62 -26,-115 -88,-128 -49,-5 -93,4 -128,31 -9,8 -13,22 -27,30l0 0 0 0zm672 0c0,-26 4,-57 -9,-57l-115 0 0 353 133 0 0 -159c0,-53 8,-92 57,-92 26,0 40,17 40,48l0 203 137 0 0 -234c0,-123 -111,-145 -181,-110 -40,13 -45,35 -62,48l0 0zm-1082 230c-9,0 -27,-9 -31,-9 -14,-9 -14,-22 -14,-31 0,-31 53,-39 80,-48 13,-5 26,-9 35,-9 0,31 0,53 -13,71 -9,8 -40,26 -57,26l0 0zm-45 75l-13 0c-66,-4 -123,-35 -123,-101 0,-102 106,-102 181,-120l70 -22c0,-26 -4,-44 -31,-44 -57,0 -61,5 -84,40 -8,0 -22,0 -30,0l-98 -13c5,-9 14,-31 18,-40 4,-13 13,-22 22,-31 53,-53 225,-40 265,-22 27,13 44,26 58,53 22,40 13,146 13,199 0,75 17,70 17,92l-128 0c0,-13 -8,-22 -13,-39 -18,8 -31,26 -53,35 -22,4 -44,9 -71,13l0 0 0 0zm-587 -9l146 0c4,0 9,-4 9,-8l0 -173c92,0 194,14 238,-79 22,-40 22,-106 5,-146 -23,-49 -76,-75 -137,-75l-261 0 0 481 0 0 0 0z"/>
    </g>
   </g>
  </g>
 </g>
</svg>
