<?xml version="1.0" encoding="UTF-8"?>
<!DOCTYPE svg PUBLIC "-//W3C//DTD SVG 1.0//EN" "http://www.w3.org/TR/2001/REC-SVG-20010904/DTD/svg10.dtd">
<!-- Creator: CorelDRAW X8 -->
<svg xmlns="http://www.w3.org/2000/svg" xml:space="preserve" width="3843px" height="978px" version="1.0" style="shape-rendering:geometricPrecision; text-rendering:geometricPrecision; image-rendering:optimizeQuality; fill-rule:evenodd; clip-rule:evenodd"
viewBox="0 0 3596 915"
 xmlns:xlink="http://www.w3.org/1999/xlink">
 <defs>
  <style type="text/css">
   <![CDATA[
    .fil2 {fill:#0082CB}
    .fil6 {fill:#00A2E6}
    .fil0 {fill:#02A746}
    .fil1 {fill:#1C1718}
    .fil10 {fill:#56AB3F}
    .fil9 {fill:#81CDF3}
    .fil4 {fill:#85C033}
    .fil5 {fill:#8E3537}
    .fil3 {fill:#C92B2F}
    .fil8 {fill:#DBE000}
    .fil7 {fill:#E95A3D}
    .fil11 {fill:#EF8781}
   ]]>
  </style>
 </defs>
 <g id="Layer_x0020_1">
  <metadata id="CorelCorpID_0Corel-Layer"/>
  <g id="_2117864192288">
   <g id="_1393688404064">
    <g id="_1557618856464">
     <path class="fil0" d="M3404 302c0,-12 -33,-69 -41,-81l-8 -25c0,0 0,0 -4,0l0 -4c0,0 -4,0 -4,0l-139 650c-4,12 -12,33 4,37 16,8 25,-13 33,-21l204 -327c8,-4 12,-8 12,-16 29,-49 115,-168 135,-209l-143 17c-8,8 -49,110 -57,131l-110 261c-13,21 -21,41 -29,66l-29 65 21 -70c20,-65 45,-143 65,-204l90 -270 0 0 0 0z"/>
     <path class="fil1" d="M2256 879c-17,0 -33,4 -45,-17 -16,-20 -16,-69 28,-94 17,-12 41,-16 62,-16 8,0 12,-4 20,-4 0,41 8,78 -20,106 -12,12 -29,25 -45,25l0 0 0 0zm-842 -221l0 8 29 0 0 176c0,86 110,65 126,37l-4 -9c-12,0 -20,13 -33,13 -20,0 -32,-21 -32,-41l0 -176c57,0 57,4 57,-12 0,-12 -25,-4 -57,-4 0,-86 4,-78 -25,-78 -4,25 -8,37 -20,57 -17,29 -41,17 -41,29l0 0 0 0zm-821 41l0 -45 -94 8c4,16 12,4 24,12 8,4 16,13 16,25l0 167c0,25 -16,29 -40,33 0,4 0,8 8,8l118 0c8,0 8,-4 8,-12 -28,0 -36,0 -36,-41l-4 -65c0,-29 0,-53 12,-78 4,-12 16,-29 33,-29 16,0 -5,33 36,33 25,0 45,-45 8,-61 -44,-21 -73,24 -89,45l0 0zm-168 61l-98 0c0,-122 106,-131 106,-8 0,8 -4,8 -8,8zm-159 12l0 17c0,65 45,126 110,126l0 0c33,0 49,0 78,-20 8,-8 32,-37 36,-49 -8,0 -4,0 -12,-4 -41,65 -106,77 -135,16 -8,-16 -12,-24 -12,-41 -4,-8 -4,-12 -4,-24 0,-8 -4,-17 4,-17l159 0c0,-122 -102,-143 -159,-114 -12,8 -20,16 -33,25 -20,24 -32,53 -32,85l0 0 0 0zm1422 115c-57,0 -41,-78 -33,-94 4,-4 16,-12 21,-17 16,-8 40,-12 65,-12 0,29 8,57 -8,94 -8,12 -25,29 -45,29l0 0zm-86 -188c0,41 45,37 57,16 8,-12 0,-24 8,-41 9,-20 49,-24 66,-4 12,17 8,49 8,82 -29,0 -94,4 -119,24 -4,5 -12,9 -16,13 -4,4 -8,12 -12,16 -8,25 -8,65 16,86 25,20 70,16 98,4 17,-8 29,-25 33,-29 4,13 8,33 37,33l53 0 0 -8c-29,0 -37,-21 -37,-49l0 -131c0,-69 -53,-65 -98,-65 -37,0 -94,20 -94,53l0 0zm-331 188c-53,0 -41,-78 -29,-94 17,-25 53,-29 82,-29l4 37c0,0 0,8 0,8 -4,21 0,21 -12,45 -8,16 -25,33 -45,33l0 0 0 0zm-86 -188c0,16 8,28 29,33 41,0 28,-45 37,-58 12,-24 73,-24 73,21l0 57c-24,0 -94,4 -118,20 -33,25 -45,58 -25,98 16,41 86,49 131,13 4,-4 0,0 4,-8 8,-5 4,-5 8,-9 4,13 12,33 41,33l49 0 0 -8c-29,0 -33,-16 -33,-49 0,-29 0,-57 0,-86 0,-37 8,-110 -65,-110 -37,0 -61,-4 -94,12 -12,8 -37,24 -37,41l0 0 0 0zm822 184l-74 0 0 -172c45,0 98,-8 131,21 28,20 28,61 20,94 -8,32 -41,57 -77,57zm-74 -188l0 -147c37,0 90,-4 118,16 41,33 33,106 -16,123 -12,4 -37,8 -49,8 -16,0 -45,-4 -53,0l0 0zm-82 -147c17,0 33,0 37,12 8,20 8,294 0,315 -4,12 -16,12 -29,12l0 8c29,0 164,0 180,0 62,-12 98,-37 98,-102 0,-25 -16,-49 -32,-66 -21,-12 -49,-24 -74,-24l4 -4c0,0 4,0 4,0 21,-4 41,-12 57,-25 17,-16 25,-41 21,-65 -8,-57 -53,-70 -119,-70l-147 0 0 9 0 0 0 0zm-1753 196c0,-8 0,0 0,-8l0 -168c41,0 78,0 98,41 8,20 4,45 4,69 0,29 -8,45 -28,58 -13,8 -41,8 -53,12 -13,0 -13,-4 -21,-4l0 0zm-98 -176c16,0 33,4 37,16 4,21 4,258 4,286 0,25 -16,29 -37,29l0 12 139 0 0 -12c-16,0 -45,-4 -45,-24l0 -115c45,0 98,4 131,-24 24,-21 33,-45 33,-82 0,-70 -41,-98 -111,-98l-151 0 0 12 0 0zm809 127l0 -45c-33,0 -61,8 -94,8l0 8c21,0 41,8 41,25l0 175c0,21 -20,29 -41,29 0,4 0,8 8,8l123 0c0,-20 -4,-8 -20,-16 -9,0 -17,-4 -17,-17l0 -130c0,-17 12,-37 17,-45 24,-37 85,-41 85,41l0 114c0,25 -8,45 -36,45l0 8 126 0 0 -12c-32,0 -32,-8 -32,-53 0,-45 -5,-115 12,-143 28,-45 86,-29 86,24l0 143c0,25 -13,33 -33,33l0 8 127 0 0 -8c-13,0 -25,-8 -33,-12 -8,-8 -4,-25 -4,-41 0,-37 4,-131 -12,-160 -33,-61 -135,-32 -148,13l-4 0c0,-13 -12,-29 -20,-37 -37,-25 -82,-12 -114,20 -5,4 -13,13 -17,17l0 0 0 0zm1937 86l0 -13c0,-8 0,-12 0,-16l0 -229c-20,4 -41,4 -53,4 -8,4 -8,4 -20,4l0 8c16,0 41,0 41,25l0 282c0,20 -13,29 -29,33 -12,4 -33,4 -41,-9 -16,-16 -8,-61 -8,-77 0,-37 4,-111 -16,-135 -29,-37 -86,-33 -115,-8 -24,16 -24,24 -37,37l0 -49c-16,0 -53,4 -69,4l0 8c33,0 37,16 37,45l0 139c0,20 0,36 -13,45 -12,4 -28,8 -45,4 -24,-8 -20,-25 -20,-41 0,-37 4,-151 -4,-172 -16,-41 -115,-57 -168,-4 -20,21 -16,45 9,45 28,0 16,-20 24,-41 16,-37 98,-45 98,17l0 53c-53,0 -159,16 -159,81 0,25 4,37 16,49 33,41 110,21 147,-20 0,53 53,37 78,41 28,0 82,0 110,0l0 -8c-20,0 -37,-8 -37,-25l0 -135c0,-73 127,-130 127,0 0,21 4,135 -4,147 -4,9 -16,13 -29,13l0 4 90 0c4,0 8,0 17,0l106 0c8,0 0,0 8,0 -8,-12 -12,0 -24,-12 -21,-9 -13,-41 -13,-74 0,-4 37,-41 37,-45 8,8 65,110 78,127l69 0c-4,-13 -4,0 -24,-13 -21,-12 -86,-118 -94,-138 8,-17 28,-37 45,-50 16,-16 28,-36 57,-36l0 -8 -102 0 0 8c41,0 36,24 8,49l-78 86 0 0z"/>
     <path class="fil2" d="M2808 311c0,0 4,0 4,4l347 396c4,4 4,4 16,4 13,-12 4,-24 -8,-57l-127 -413c-4,-12 -4,-20 -12,-32l-73 93 0 0 0 5c0,8 90,167 106,196 24,45 61,106 82,147 8,8 12,16 16,24 4,9 8,17 12,21 -4,0 -4,-4 -8,-8l-139 -201c-4,-4 -4,-8 -8,-12l-82 -114c-4,-8 -16,-33 -24,-37l-90 -12c-4,4 -4,0 0,4 0,4 0,0 0,0 -8,-8 0,-4 -12,-8l0 0 0 0z"/>
     <path class="fil3" d="M3196 69c-4,9 0,33 0,50l0 147c0,65 4,139 0,200l0 16c4,0 4,0 8,0 8,-12 61,-208 69,-233l33 -114c4,-12 33,-106 33,-115l-143 49 0 0z"/>
     <path class="fil4" d="M3404 302l-90 270c-20,61 -45,139 -65,204l-21 70 29 -65c8,-25 16,-45 29,-66l110 -261c8,-21 49,-123 57,-131l-12 -41 151 -4 4 12 0 0 0 -4c0,0 0,0 0,0 -4,-8 0,-4 -4,-8l-106 -49c-16,-8 -102,-49 -115,-49l70 102c-12,4 -29,12 -37,20l0 0 0 0z"/>
     <path class="fil5" d="M3204 482c-4,0 -4,0 -8,0l0 -16 -57 -392 -115 -54 147 409c8,16 12,41 25,57 8,0 4,0 8,-4l0 0z"/>
     <path class="fil6" d="M2808 311c12,4 4,0 12,8 0,0 0,4 0,0 -4,-4 -4,0 0,-4l90 12c8,4 20,29 24,37l82 114c4,4 4,8 8,12l139 201c4,4 4,8 8,8 -4,-4 -8,-12 -12,-21 -4,-8 -8,-16 -16,-24 -21,-41 -58,-102 -82,-147 -16,-29 -106,-188 -106,-196l0 -4 0 0 0 0 0 4c-9,0 -33,-13 -37,-17l78 -102 0 0 0 0c-13,8 -33,16 -45,25 -9,4 -17,8 -25,12 -20,8 -106,57 -118,61l0 21 0 0z"/>
     <path class="fil7" d="M3139 74l57 392c4,-61 0,-135 0,-200l0 -147c0,-17 -4,-41 0,-50 -8,0 -8,-4 -13,-8 -8,-4 -12,-4 -12,-12 -12,4 -24,16 -32,25l0 0 0 0z"/>
     <path class="fil3" d="M3024 20l115 54c8,-9 20,-21 32,-25 17,-4 139,-41 151,-49l-282 0c-4,8 -12,16 -16,20z"/>
     <path class="fil8" d="M3453 323l143 -17 0 -16 -4 -12 -151 4 12 41 0 0z"/>
     <path class="fil9" d="M2996 192l-78 102c4,4 28,17 37,17l0 -5 0 0 73 -93c0,-5 4,0 -4,-5 -4,-4 -4,-4 -8,-8 -8,-4 -12,-4 -20,-8l0 0 0 0 0 0z"/>
     <path class="fil10" d="M3347 192c0,0 4,0 4,0l0 4c4,0 4,0 4,0l8 25c8,12 41,69 41,81 8,-8 25,-16 37,-20l-70 -102c0,-4 5,-4 -4,-4 -4,8 -12,12 -20,16l0 0 0 0z"/>
     <path class="fil11" d="M3171 49c0,8 4,8 12,12 5,4 5,8 13,8l143 -49 -17 -20c-12,8 -134,45 -151,49l0 0 0 0z"/>
    </g>
   </g>
  </g>
 </g>
</svg>
