<?xml version="1.0" encoding="UTF-8"?>
<!DOCTYPE svg PUBLIC "-//W3C//DTD SVG 1.1//EN" "http://www.w3.org/Graphics/SVG/1.1/DTD/svg11.dtd">
<!-- Creator: CorelDRAW X8 -->
<svg xmlns="http://www.w3.org/2000/svg" xml:space="preserve" width="0.701031in" height="0.525925in" version="1.1" style="shape-rendering:geometricPrecision; text-rendering:geometricPrecision; image-rendering:optimizeQuality; fill-rule:evenodd; clip-rule:evenodd"
viewBox="0 0 92 69"
 xmlns:xlink="http://www.w3.org/1999/xlink">
 <defs>
  <style type="text/css">
   <![CDATA[
    .fil0 {fill:#ffffff}
   ]]>
  </style>
 </defs>
 <g id="Layer_x0020_1">
  <metadata id="CorelCorpID_0Corel-Layer"/>
  <path class="fil0" d="M40 0l16 0c5,0 8,4 7,9l0 0c-1,5 -6,9 -11,9l-15 0 3 -18zm-5 26l16 0c5,0 8,4 7,9l0 0c-1,5 -6,9 -11,9l-15 0 3 -18zm-3 25l15 0c5,0 8,4 7,9l0 0c-1,5 -6,9 -11,9l-15 0 4 -18zm-24 -51l16 0c5,0 8,4 7,9l0 0c-1,5 -6,9 -11,9l-15 0 3 -18zm-5 26l16 0c5,0 8,4 7,9l0 0c-1,5 -6,9 -11,9l-15 0 3 -18zm66 -11l16 0c5,0 8,4 7,9l0 0c-1,5 -6,9 -11,9l-15 0 3 -18zm-4 26l16 0c5,0 8,4 6,9l0 0c-1,5 -6,9 -11,9l-15 0 4 -18z"/>
 </g>
</svg>
