<?xml version="1.0" encoding="UTF-8"?>
<!DOCTYPE svg PUBLIC "-//W3C//DTD SVG 1.1//EN" "http://www.w3.org/Graphics/SVG/1.1/DTD/svg11.dtd">
<!-- Creator: CorelDRAW X8 -->
<svg xmlns="http://www.w3.org/2000/svg" xml:space="preserve" width="0.701028in" height="0.669118in" version="1.1" style="shape-rendering:geometricPrecision; text-rendering:geometricPrecision; image-rendering:optimizeQuality; fill-rule:evenodd; clip-rule:evenodd"
viewBox="0 0 863 824"
 xmlns:xlink="http://www.w3.org/1999/xlink">
 <defs>
  <style type="text/css">
   <![CDATA[
    .fil0 {fill:#ffffff}
   ]]>
  </style>
 </defs>
 <g id="Layer_x0020_1">
  <metadata id="CorelCorpID_0Corel-Layer"/>
  <path class="fil0" d="M226 657c50,22 100,34 154,39 8,1 14,1 19,5 17,15 0,70 -7,87 -1,4 -5,14 -5,20 0,10 7,16 18,16 22,0 134,-73 148,-82 43,-28 64,-45 101,-73 17,-12 33,-27 47,-38 16,-13 31,-29 45,-41 2,-2 2,-2 4,-3l31 -34c41,-49 70,-99 80,-164 3,-22 2,-30 2,-52 0,-52 -26,-120 -55,-160 -4,-4 -7,-9 -10,-13l-17 -20c-2,-2 -3,-3 -5,-6 -9,-11 -37,-35 -51,-45 -17,-13 -37,-26 -58,-36 -3,-2 -5,-3 -8,-5 -38,-19 -91,-37 -134,-44 -66,-11 -129,-11 -195,2 -35,7 -44,10 -75,21 -19,6 -27,11 -43,18 -9,4 -8,4 -15,8 -38,19 -74,46 -104,76 -11,12 -24,27 -33,39 -7,10 -13,19 -19,29 -26,44 -41,99 -41,151 0,14 2,32 4,45 2,14 6,26 9,39 2,6 4,12 7,18 7,17 14,32 23,48 32,53 70,88 120,121 20,14 42,24 63,34zm167 139c0,0 0,0 0,0 0,0 0,0 0,0zm-1 1c0,0 0,-1 1,-1 0,1 -1,1 -1,1zm-44 -368c0,32 -45,32 -45,-1l0 -167c0,-28 45,-30 45,2l0 166zm-85 24l-91 0c-13,0 -20,-13 -20,-26l0 -162c0,-14 8,-25 21,-26 13,-1 24,10 24,23l0 147 62 0c19,0 30,22 17,37 -2,2 -9,7 -13,7zm241 -20l-67 -91c-2,-3 -9,-14 -13,-15l0 72c0,12 3,35 -2,43 -6,10 -13,11 -22,11 -19,0 -22,-24 -20,-40 1,-7 0,-103 0,-116 0,-6 1,-13 0,-19 -6,-37 21,-45 35,-35 5,4 20,26 25,33l59 79c3,4 5,9 9,11 0,-33 0,-67 0,-100 -1,-29 25,-33 38,-19 4,4 6,10 6,18l0 163c0,8 -1,13 -5,17 -4,4 -8,8 -15,8 -16,0 -20,-9 -28,-20zm79 0l0 -171c0,-8 3,-14 8,-18 4,-4 11,-5 19,-5l75 0c15,0 26,6 27,21 1,6 -3,14 -6,17 -2,2 -5,4 -7,5 -10,3 -59,2 -72,2l0 40c13,0 62,-2 72,2 21,8 16,43 -10,43l-62 0 0 40 64 0c11,0 22,11 21,23 0,12 -11,22 -22,22l-82 0c-14,0 -25,-9 -25,-21z"/>
 </g>
</svg>
