<?xml version="1.0" encoding="UTF-8"?>
<!DOCTYPE svg PUBLIC "-//W3C//DTD SVG 1.1//EN" "http://www.w3.org/Graphics/SVG/1.1/DTD/svg11.dtd">
<!-- Creator: CorelDRAW X8 -->
<svg xmlns="http://www.w3.org/2000/svg" xml:space="preserve" width="165px" height="165px" version="1.1" style="shape-rendering:geometricPrecision; text-rendering:geometricPrecision; image-rendering:optimizeQuality; fill-rule:evenodd; clip-rule:evenodd"
viewBox="0 0 54 54"
 xmlns:xlink="http://www.w3.org/1999/xlink">
 <defs>
  <style type="text/css">
   <![CDATA[
    .fil0 {fill:#FEFEFE;fill-rule:nonzero}
   ]]>
  </style>
 </defs>
 <g id="Layer_x0020_1">
  <metadata id="CorelCorpID_0Corel-Layer"/>
  <path class="fil0" d="M54 42c0,0 0,0 0,0 -1,-1 -3,-2 -3,-2 -2,-2 -5,-3 -7,-4 -1,-1 -2,-2 -3,-2 -3,0 -6,7 -8,7 -1,0 -2,-1 -3,-1 -7,-4 -12,-9 -16,-16 0,-1 -1,-2 -1,-3 0,-2 7,-6 7,-8 0,-1 -2,-2 -2,-3 -1,-3 -3,-5 -4,-7 0,-1 -1,-3 -2,-3 0,0 0,0 -1,0 -1,0 -4,1 -5,1 -2,1 -3,3 -4,5 -1,2 -2,4 -2,7 0,3 1,7 3,10 0,2 2,5 3,7 4,6 12,14 18,18 2,1 4,2 7,3 3,1 6,3 10,3 2,0 5,-1 7,-2 2,-1 4,-2 5,-4 0,-2 1,-4 1,-6z"/>
 </g>
</svg>
