<?xml version="1.0" encoding="UTF-8"?>
<!DOCTYPE svg PUBLIC "-//W3C//DTD SVG 1.1//EN" "http://www.w3.org/Graphics/SVG/1.1/DTD/svg11.dtd">
<!-- Creator: CorelDRAW X8 -->
<svg xmlns="http://www.w3.org/2000/svg" xml:space="preserve" width="0.701012in" height="0.55076in" version="1.1" style="shape-rendering:geometricPrecision; text-rendering:geometricPrecision; image-rendering:optimizeQuality; fill-rule:evenodd; clip-rule:evenodd"
viewBox="0 0 353 277"
 xmlns:xlink="http://www.w3.org/1999/xlink">
 <defs>
  <style type="text/css">
   <![CDATA[
    .fil0 {fill:#ffffff;fill-rule:nonzero}
   ]]>
  </style>
 </defs>
 <g id="Layer_x0020_1">
  <metadata id="CorelCorpID_0Corel-Layer"/>
  <path class="fil0" d="M353 89c-6,7 -13,13 -20,17 -33,23 -66,45 -98,68 -17,13 -37,27 -59,27l0 0 0 0c-21,0 -42,-14 -58,-27 -32,-23 -65,-45 -98,-68 -7,-4 -14,-10 -20,-17l0 157c0,17 14,31 31,31l290 0c17,0 32,-14 32,-31l0 -157zm0 -58c0,-17 -15,-31 -32,-31l-290 0c-21,0 -31,17 -31,36 0,18 20,40 34,49 30,22 61,43 92,64 13,9 34,27 50,27l0 0 0 0c16,0 38,-18 51,-27 30,-21 61,-42 92,-64 17,-12 34,-31 34,-54z"/>
 </g>
</svg>
