<?xml version="1.0" encoding="UTF-8"?>
<!DOCTYPE svg PUBLIC "-//W3C//DTD SVG 1.0//EN" "http://www.w3.org/TR/2001/REC-SVG-20010904/DTD/svg10.dtd">
<!-- Creator: CorelDRAW X8 -->
<svg xmlns="http://www.w3.org/2000/svg" xml:space="preserve" width="456px" height="413px" version="1.0" style="shape-rendering:geometricPrecision; text-rendering:geometricPrecision; image-rendering:optimizeQuality; fill-rule:evenodd; clip-rule:evenodd"
viewBox="0 0 186 168"
 xmlns:xlink="http://www.w3.org/1999/xlink">
 <defs>
  <style type="text/css">
   <![CDATA[
    .fil0 {fill:#FEFEFE;fill-rule:nonzero}
   ]]>
  </style>
 </defs>
 <g id="Layer_x0020_1">
  <metadata id="CorelCorpID_0Corel-Layer"/>
  <path class="fil0" d="M164 33l-75 74 15 11c0,0 0,0 1,1l39 26 20 -112zm-95 70l73 -71 -111 44 28 11c3,1 5,3 5,6l1 0 3 12c0,-1 1,-2 1,-2zm2 13c0,0 -1,0 -1,-1l5 18 10 -8 -14 -9zm75 51l-46 -32 -26 19 0 0c-1,0 -2,1 -3,1 -4,1 -9,-2 -10,-6l-12 -48 -44 -18 0 0c-2,0 -4,-2 -4,-4 -2,-5 0,-10 4,-11l169 -67c1,-1 3,-1 5,-1 5,1 8,5 7,10l-27 151 0 0c0,1 -1,2 -2,4 -2,3 -7,4 -11,2z"/>
 </g>
</svg>
