<?xml version="1.0" encoding="UTF-8"?>
<!DOCTYPE svg PUBLIC "-//W3C//DTD SVG 1.0//EN" "http://www.w3.org/TR/2001/REC-SVG-20010904/DTD/svg10.dtd">
<!-- Creator: CorelDRAW X8 -->
<svg xmlns="http://www.w3.org/2000/svg" xml:space="preserve" width="880px" height="259px" version="1.0" style="shape-rendering:geometricPrecision; text-rendering:geometricPrecision; image-rendering:optimizeQuality; fill-rule:evenodd; clip-rule:evenodd"
viewBox="0 0 8800 2589"
 xmlns:xlink="http://www.w3.org/1999/xlink">
 <defs>
  <style type="text/css">
   <![CDATA[
    .fil0 {fill:black}
    .fil1 {fill:#8FC742}
   ]]>
  </style>
 </defs>
 <g id="Layer_x0020_1">
  <metadata id="CorelCorpID_0Corel-Layer"/>
  <g id="_1393372695216">
   <path class="fil0" d="M1828 1582c0,-199 57,-375 267,-375 223,0 282,148 282,368 0,260 51,657 -261,657 -338,0 -288,-355 -288,-650zm-382 375c19,140 26,184 81,299 139,293 477,349 792,284 320,-66 441,-384 441,-682 0,-112 9,-266 -3,-372 -14,-136 -27,-199 -79,-304 -42,-85 -100,-150 -173,-201 -259,-183 -1060,-239 -1063,601 0,106 -9,276 4,375z"/>
   <path class="fil0" d="M7507 929c-10,138 -8,1580 5,1611 22,35 62,25 117,25 47,0 94,0 141,0 136,0 120,-2 119,-163 0,-190 -4,-385 1,-574 32,11 69,91 86,121 28,47 52,84 78,126l235 382c23,38 51,103 96,108 51,5 385,4 410,-7 27,-26 -89,-176 -117,-216l-412 -626c38,-68 397,-561 484,-688 18,-27 65,-70 45,-112 -29,-10 -360,-14 -393,-2 -33,11 -313,446 -338,482l-123 180c-28,40 -24,48 -51,57 -5,-184 -1,-375 -1,-560 1,-183 46,-163 -260,-164 -148,0 -82,9 -122,20z"/>
   <path class="fil0" d="M810 1695c-10,116 -2,268 -2,389 0,155 15,148 -48,150 -60,2 -131,7 -185,-7 -215,-60 -188,-351 -188,-581 0,-290 32,-439 330,-439 496,1 465,75 465,-84 0,-54 5,-138 -3,-187 -38,-24 -227,-49 -285,-55 -290,-31 -593,-10 -768,231 -114,157 -126,325 -126,555 0,229 -9,409 86,588 184,347 566,344 1003,272 59,-9 92,-9 93,-75l0 -502c0,-324 41,-277 -232,-277 -65,0 -100,-11 -140,22z"/>
   <path class="fil0" d="M6587 1564c-4,-72 -5,-195 7,-257 16,-85 83,-88 173,-89 87,0 174,0 261,0 138,0 198,21 198,-60 0,-202 23,-234 -63,-243 -41,-4 -70,-11 -113,-13 -396,-20 -847,-84 -847,489l0 700c0,572 482,502 889,476 108,-6 134,-11 134,-73 0,-273 21,-244 -148,-244 -71,0 -142,0 -212,0 -156,0 -280,33 -280,-145 0,-261 -19,-233 68,-232l445 0c63,0 112,10 112,-65 0,-255 20,-241 -112,-240 -100,0 -462,7 -512,-4z"/>
   <path class="fil0" d="M5295 2245c-9,16 -4,1 -7,23l2 169c0,93 -17,145 41,149 82,7 294,-1 367,-13 110,-19 189,-70 214,-172 24,-101 12,-994 12,-1137 0,-409 47,-348 -224,-347 -83,0 -122,-14 -180,11 -13,69 -1,994 -2,1163 0,62 9,97 -20,143 -52,5 -155,-5 -186,3 -23,6 -9,2 -17,8z"/>
   <path class="fil1" d="M3993 826c82,0 163,70 163,163 0,93 -81,163 -163,163 -11,0 -23,0 -23,-12 58,58 210,186 245,210 34,23 93,70 128,70 34,0 69,11 69,46 0,35 12,58 12,58l35 12c0,0 70,-23 116,-47 47,-23 47,-11 47,-11 0,0 11,23 11,104 0,70 0,128 0,128l-93 0 82 175c35,-12 81,-23 128,-23 186,0 349,163 349,349 0,198 -163,361 -349,361 -198,0 -349,-163 -349,-361 0,-117 58,-221 139,-279l-93 -163c0,0 -11,23 -58,81 -58,58 -163,35 -163,35 0,0 0,140 0,221 0,82 -11,116 -105,116 -81,12 -337,12 -407,12 -11,186 -163,338 -349,338 -186,0 -349,-163 -349,-361 0,0 0,-12 0,-23l-81 0c-12,0 -24,-12 -24,-24l0 0c0,-23 12,-35 24,-35l81 12c0,-35 0,-93 0,-93l-47 -35c0,0 94,-128 163,-186 82,-70 128,-58 128,-58 0,0 12,-47 24,-93 11,-47 23,-70 93,-70 58,0 186,-12 221,-12 35,0 23,-12 11,-23 -23,-23 -23,-35 -11,-70 11,-35 151,-303 174,-349 24,-47 35,-82 47,-82 12,12 35,12 46,24 -23,-24 -34,-70 -34,-105 0,-93 69,-163 162,-163l0 0zm-756 -477c-23,12 -58,12 -81,-12 -12,-23 -12,-58 11,-81 117,-81 245,-151 373,-186 139,-47 279,-70 419,-70 139,0 279,23 418,70 128,35 256,105 373,186 23,23 23,58 11,81 -23,24 -58,24 -81,12 -105,-81 -221,-140 -337,-174 -128,-47 -256,-59 -384,-59 -128,0 -256,12 -384,59 -117,34 -233,93 -338,174l0 0zm1189 2138l-541 0c-7,0 -12,5 -12,12l0 0c0,7 5,12 12,12l541 0c6,0 12,-5 12,-12l0 0c0,-7 -6,-12 -12,-12zm-311 -205l229 0c5,0 9,4 9,9l0 0c0,4 -4,8 -9,8l-229 0c-5,0 -9,-4 -9,-8l0 0c0,-5 4,-9 9,-9zm249 102l-347 0c-5,0 -10,5 -10,11l0 0c0,6 5,10 10,10l347 0c6,0 10,-4 10,-10l0 0c0,-6 -4,-11 -10,-11zm-789 -1616c-24,12 -47,12 -47,0 -12,-12 -12,-35 0,-47 58,-46 128,-93 209,-116 70,-23 140,-35 222,-35 81,0 151,12 221,35 81,23 139,70 209,116 12,12 12,35 0,47 -12,12 -23,12 -46,0 -47,-35 -117,-70 -175,-93 -70,-23 -140,-35 -209,-35 -70,0 -140,12 -210,35 -58,23 -128,58 -174,93l0 0zm-175 -198c-12,23 -47,12 -58,0 -12,-23 -12,-46 11,-58 82,-70 187,-116 291,-151 93,-35 198,-58 315,-58 116,0 221,23 314,58 104,35 209,81 291,151 23,12 23,35 11,58 -11,12 -46,23 -58,0 -81,-58 -174,-105 -268,-128 -93,-35 -186,-46 -290,-46 -105,0 -198,11 -291,46 -93,23 -187,70 -268,128zm570 722c0,0 -23,81 -58,128 -23,58 -35,93 -23,128 23,34 23,69 81,34 58,-23 140,-69 256,-58 105,0 117,24 117,-11 11,-35 0,-47 0,-47 0,0 -12,0 -47,-12 -47,-23 -151,-46 -209,-81 -59,-47 -117,-81 -117,-81l0 0zm629 744l58 93c-12,24 -35,59 -35,82 0,70 58,128 128,128 70,0 116,-58 116,-128 0,-58 -46,-117 -116,-117 -12,0 -12,0 -24,0l-58 -104c24,-12 58,-12 82,-12 128,0 232,105 232,233 0,139 -104,244 -232,244 -128,0 -233,-105 -233,-244 0,-70 35,-140 82,-175l0 0zm-1187 -58l-47 116 0 0c-35,0 -70,24 -93,47l-128 0c35,-93 116,-163 221,-163 12,0 35,0 47,0zm11 128l58 -93c59,23 105,81 117,140l-128 0c-12,-12 -23,-35 -47,-47zm175 105l-105 0c0,0 0,0 0,0 0,70 -58,128 -128,128 -70,0 -116,-58 -116,-128 0,0 0,0 0,-12l-117 0c0,0 0,12 0,12 0,139 105,244 233,244 128,0 233,-105 233,-244z"/>
  </g>
 </g>
</svg>
