<?xml version="1.0" encoding="UTF-8"?>
<!DOCTYPE svg PUBLIC "-//W3C//DTD SVG 1.0//EN" "http://www.w3.org/TR/2001/REC-SVG-20010904/DTD/svg10.dtd">
<!-- Creator: CorelDRAW X8 -->
<svg xmlns="http://www.w3.org/2000/svg" xml:space="preserve" width="1000px" height="386px" version="1.0" style="shape-rendering:geometricPrecision; text-rendering:geometricPrecision; image-rendering:optimizeQuality; fill-rule:evenodd; clip-rule:evenodd"
viewBox="0 0 269 104"
 xmlns:xlink="http://www.w3.org/1999/xlink">
 <defs>
  <style type="text/css">
   <![CDATA[
    .fil0 {fill:#00A950}
   ]]>
  </style>
 </defs>
 <g id="Layer_x0020_1">
  <metadata id="CorelCorpID_0Corel-Layer"/>
  <path class="fil0" d="M0 57c0,17 5,30 18,39 2,2 4,3 7,4 26,11 50,-5 50,-11l0 -35 -34 0 0 8 27 0 0 25c0,5 -30,19 -50,0l-1 -1c-3,-4 -4,-5 -6,-9 -5,-10 -5,-24 0,-34 10,-20 36,-25 52,-18 2,1 2,2 5,2l0 -8 -8 -2c-16,-3 -35,0 -46,11 -8,8 -14,17 -14,29zm214 -24c2,-1 4,-4 7,-5l0 -28 -7 0 0 33zm-12 9c2,0 7,-6 7,-8l0 -34 -7 0 0 42zm-108 20l0 38c0,2 2,2 5,2 4,0 2,-11 2,-17 0,-19 -4,-42 21,-36 1,-2 3,-4 3,-7 -7,-1 -12,-3 -21,2 -5,3 -10,10 -10,18zm-11 -3l0 43c9,0 7,2 7,-21 0,-7 0,-16 0,-23 1,-11 11,-22 24,-22 11,0 7,2 14,3 1,-1 4,-4 4,-6 -6,-1 -4,-4 -19,-4 -15,0 -30,15 -30,30zm53 3l0 8c0,9 11,20 20,20 5,0 7,0 12,-3l0 -8c-12,9 -24,0 -24,-9 0,-9 -1,-19 11,-22 7,-1 13,2 16,8 2,4 1,26 1,35 0,12 -2,11 7,11l0 -41c0,-12 -11,-21 -21,-21 -11,1 -22,10 -22,22zm59 25l12 -15c2,-2 4,-4 6,-7l7 -7c4,-4 9,-11 17,-10 14,1 13,13 13,21 0,17 -27,21 -30,-5 0,1 -5,6 -5,7 -1,2 2,8 3,9 2,3 4,5 7,7 13,9 33,-2 33,-18 0,-11 -1,-21 -13,-26 -10,-5 -18,-1 -24,4 -6,5 -11,12 -16,17 -2,3 -10,10 -10,14 0,3 0,6 0,9zm-184 -28c0,18 14,33 29,33l8 0c4,0 16,-3 16,-7l0 -17c0,-2 0,-2 -2,-2l-21 0 0 7 16 0 0 10c-12,3 -22,4 -32,-6 -2,-2 -3,-4 -5,-7 -4,-13 1,-27 13,-33 8,-3 19,-4 27,-1 3,1 5,3 8,4l0 -8c-18,-9 -44,-6 -54,14 -1,3 -3,9 -3,13zm184 9l17 -19c7,-7 12,-13 25,-13 12,0 24,13 24,23 0,13 2,24 -13,33 -14,7 -33,-1 -37,-17 -2,2 -2,4 -5,6 4,19 35,30 54,11 6,-7 9,-15 9,-23l0 -7c-1,-17 -13,-33 -34,-33 -10,0 -19,6 -26,13 -3,4 -6,7 -9,11 -6,6 -5,4 -5,15zm-71 -4c0,16 6,28 20,34 13,7 19,2 24,2l0 -7c-6,0 -14,5 -26,-4 -13,-10 -13,-34 -3,-44 15,-16 41,-9 45,13 1,5 0,26 0,34 0,10 -2,10 5,10 2,0 2,-1 2,-2l0 -38c0,-26 -33,-46 -57,-22 -3,3 -5,5 -7,9 -1,4 -3,9 -3,15z"/>
 </g>
</svg>
