<?xml version="1.0" encoding="UTF-8"?>
<!DOCTYPE svg PUBLIC "-//W3C//DTD SVG 1.0//EN" "http://www.w3.org/TR/2001/REC-SVG-20010904/DTD/svg10.dtd">
<!-- Creator: CorelDRAW X8 -->
<svg xmlns="http://www.w3.org/2000/svg" xml:space="preserve" width="880px" height="187px" version="1.0" style="shape-rendering:geometricPrecision; text-rendering:geometricPrecision; image-rendering:optimizeQuality; fill-rule:evenodd; clip-rule:evenodd"
viewBox="0 0 880 187"
 xmlns:xlink="http://www.w3.org/1999/xlink">
 <defs>
  <style type="text/css">
   <![CDATA[
    .fil0 {fill:#ED1B24}
   ]]>
  </style>
 </defs>
 <g id="Layer_x0020_1">
  <metadata id="CorelCorpID_0Corel-Layer"/>
  <path class="fil0" d="M283 144c-6,4 -18,9 -26,9 -11,1 -18,-2 -25,-9 -16,-16 5,-34 17,-40l17 20c6,7 12,14 17,20zm279 15l1 0c0,3 2,9 4,13 1,4 3,9 4,13l16 0c-1,-6 -8,-23 -11,-31 -2,-6 -3,-5 0,-9l18 -24c2,-2 5,-6 6,-8l-18 0c-2,0 -14,24 -16,25l-8 -25 -16 0c2,6 5,14 7,20 6,17 6,14 2,20l-23 32 18 0c2,-3 14,-23 16,-26zm263 -44c-37,-12 -51,16 -42,30 7,10 21,11 22,19 0,7 -6,9 -13,9 -8,0 -10,-2 -16,-4 -1,4 -4,9 -5,13 6,2 9,4 17,4 6,1 13,0 18,-2 12,-5 18,-16 14,-27 -3,-12 -14,-12 -22,-20 -5,-5 0,-10 6,-11 7,-2 11,1 17,2l4 -13zm55 1c-8,-6 -26,-4 -34,1 -4,2 -8,5 -10,11 -9,24 23,25 23,37 0,6 -6,8 -12,8 -7,0 -11,-2 -16,-4l-5 13c2,1 4,2 7,3 24,6 48,-6 42,-27 -3,-12 -17,-15 -22,-20 -4,-5 -1,-11 5,-12 7,-1 12,1 17,3l5 -13zm-263 30l5 -21c9,-1 20,1 16,12 -2,8 -11,12 -21,9zm-2 13c9,0 17,0 24,-3 21,-10 23,-41 -8,-44 -5,0 -14,0 -20,1 -2,1 -3,1 -3,3l-9 46c-1,7 -3,16 -4,23l15 0 5 -26zm-80 -46l-43 0 -13 72 44 0 2 -14 -28 0 3 -17 26 0 2 -13 -25 0c0,-3 0,-5 1,-8 0,-1 1,-3 1,-4 0,-2 0,-2 1,-3l27 0 2 -13zm239 0l-42 0 -14 72 44 0c1,-3 3,-10 2,-13l-28 0 3 -17 26 0 2 -13 -25 0 3 -16 27 0 2 -13zm-95 32c0,-6 2,-12 3,-17 0,-3 0,-3 2,-3 4,-1 10,0 13,2 4,4 5,20 -18,18zm22 5c15,-6 18,-22 10,-30 -11,-12 -41,-6 -41,-6 -1,1 -1,0 -1,1l-1 4c0,1 0,2 -1,4 -1,9 -11,58 -11,62l15 0 5 -28c18,0 13,5 16,28l16 0c-3,-10 0,-30 -9,-33l2 -2zm-560 34c2,-1 1,0 2,-3 0,-1 0,-2 0,-3l41 -178 -53 0 -33 147 -79 -1c-1,4 -11,23 -14,28 -2,3 -4,7 -5,9l141 1zm376 -171c11,0 22,0 33,0 10,0 8,1 13,-4 3,-2 6,-5 8,-8l-3 0c-70,-1 -142,0 -211,0l-1 1c0,0 0,0 0,1l-13 23c-2,4 -13,22 -13,25l80 0c-2,11 -6,23 -9,33 -3,15 -24,97 -24,100l51 0 34 -133c16,0 45,1 60,0l10 -11c1,-1 2,-2 3,-4l-53 0c1,-1 5,-6 7,-6l52 0c3,0 10,-8 11,-10 -15,0 -37,0 -53,0l7 -7 11 0zm-215 37c1,-2 5,-9 7,-12 4,-8 18,-32 20,-38l-117 0c-2,3 -4,16 -5,21 -7,29 15,50 17,54 -2,2 -6,4 -8,6 -1,1 -2,2 -4,3 -5,4 -13,12 -17,18 -14,18 -21,38 -5,60 4,6 9,9 15,13 27,13 60,12 88,3 4,-2 8,-4 12,-5l9 11 48 0 -31 -38c1,-2 19,-28 20,-52l-37 -10c-1,7 -4,25 -9,29 -3,-1 -12,-10 -15,-12 -11,-9 -32,-32 -35,-45 -7,-25 25,-40 42,-26 7,5 5,11 5,20z"/>
 </g>
</svg>
