<?xml version="1.0" encoding="UTF-8"?>
<!DOCTYPE svg PUBLIC "-//W3C//DTD SVG 1.0//EN" "http://www.w3.org/TR/2001/REC-SVG-20010904/DTD/svg10.dtd">
<!-- Creator: CorelDRAW X8 -->
<svg xmlns="http://www.w3.org/2000/svg" xml:space="preserve" width="880px" height="348px" version="1.0" style="shape-rendering:geometricPrecision; text-rendering:geometricPrecision; image-rendering:optimizeQuality; fill-rule:evenodd; clip-rule:evenodd"
viewBox="0 0 880 348"
 xmlns:xlink="http://www.w3.org/1999/xlink">
 <defs>
  <style type="text/css">
   <![CDATA[
    .fil0 {fill:#343089}
    .fil1 {fill:#E31612}
   ]]>
  </style>
 </defs>
 <g id="Layer_x0020_1">
  <metadata id="CorelCorpID_0Corel-Layer"/>
  <g id="_1393372131728">
   <path class="fil0" d="M293 153c0,5 -9,47 -10,48l-3 15c-1,5 -2,9 -3,14l-6 29 98 0 7 -34c1,-6 3,-11 4,-17l3 -17c2,-10 4,-19 6,-28 2,-6 4,-23 6,-27l21 38c2,4 6,9 7,13l38 72 98 0 17 -82c1,-7 17,-81 18,-82 0,-3 0,-4 1,-6 0,-2 1,-4 1,-6 1,-4 2,-8 3,-12l15 -71 -100 0c0,3 -5,24 -5,27l-17 82 -3 15c-2,-4 -6,-9 -7,-13l-11 -21c-1,-2 -2,-4 -3,-7l-44 -83 -99 0 -2 9c-1,3 -2,6 -2,10 -3,11 -5,27 -8,38 -1,2 -1,3 -1,5 -2,14 -9,41 -12,57l-7 34z"/>
   <path class="fil0" d="M87 220c-1,3 -3,15 -4,17 0,4 -3,15 -5,21 0,3 2,2 6,2l48 0c6,0 10,-1 16,-1 11,0 22,0 33,0 10,0 32,-7 42,-13l10 -7c9,-6 14,-13 19,-22 1,-1 1,-1 2,-2 1,-3 3,-6 3,-10 0,-3 9,-44 10,-45l2 -10c1,-4 2,-7 2,-10 1,-4 1,-6 2,-10 1,-2 1,-3 1,-5 1,-2 1,-3 1,-5 1,-2 1,-3 1,-5 1,-2 1,-3 2,-5l4 -20c0,-2 0,-4 1,-5 0,-2 1,-3 1,-5l17 -80 -100 0 -12 60c-4,20 -8,40 -12,60l-6 29c-3,12 -5,29 -22,32 -3,1 -49,1 -54,1l-8 38z"/>
   <path class="fil1" d="M718 85c-8,1 -18,1 -26,2 -9,0 -17,1 -26,1 -16,2 -33,3 -49,5 -4,-1 -8,0 -12,1 -4,0 -7,0 -11,1 -1,1 -17,75 -18,82l24 -2c11,-1 95,-4 98,-2l154 0c5,0 7,-1 10,-1l8 -39c1,-2 1,-4 1,-6l5 -22c0,-3 4,-21 4,-23 -14,0 -28,0 -41,0 -14,0 -27,0 -41,0 -14,0 -26,1 -40,1l-40 2z"/>
   <path class="fil0" d="M617 93c16,-2 33,-3 49,-5 9,0 17,-1 26,-1 8,-1 18,-1 26,-2l1 -9c1,-3 2,-6 2,-9l103 0c0,-3 1,-6 2,-9 0,-2 1,-5 1,-8 1,-2 1,-5 2,-8l9 -42 -196 0c-9,0 -5,-1 -8,11l-14 65c-1,6 -2,11 -3,17z"/>
   <path class="fil0" d="M600 175l-6 26c0,2 0,4 -1,6 0,3 -1,7 -2,10l-4 21c-1,2 -1,3 -1,5 -1,4 -3,13 -3,16l201 0 3 -16c1,-6 3,-11 4,-17 1,-5 6,-30 6,-33l-102 0c0,-3 1,-7 2,-10 0,-3 1,-8 1,-10 -3,-2 -87,1 -98,2z"/>
   <path class="fil0" d="M585 347l8 0c0,-3 1,-7 1,-10 1,-3 1,-5 2,-9 0,-4 2,-15 2,-19l8 28c1,3 2,7 3,10l8 0c0,-4 1,-10 2,-15 1,-5 1,-9 2,-14l3 -22c0,-2 1,-5 1,-8l-8 0 -5 37c0,1 0,1 -1,1 -1,-5 -9,-35 -9,-38l-9 0 -8 59z"/>
   <path class="fil0" d="M751 347c11,0 8,1 9,-9 1,-3 1,-6 2,-9 0,-3 2,-17 3,-20 0,3 2,7 2,10 1,3 2,6 3,9 0,2 1,3 1,5 1,2 1,2 1,4 1,3 2,7 3,10 2,0 7,1 8,-1 0,0 8,-52 8,-58l-8 0c0,5 -5,31 -5,37 -1,-1 -2,-5 -3,-8l-4 -14c0,-2 -1,-4 -1,-5 -1,-2 -1,-3 -1,-5 -1,-1 -1,-3 -2,-5l-8 0 -8 59z"/>
   <path class="fil0" d="M190 314l-5 0 3 -16c11,0 15,-1 15,8 0,2 -3,5 -4,6 -2,1 -6,2 -9,2zm-18 33c11,0 9,2 10,-12 1,-4 2,-7 2,-12 7,0 9,-1 11,9 1,5 2,10 3,15l9 0c0,-2 -1,-5 -1,-7 -2,-6 -3,-13 -7,-18 16,-4 15,-30 4,-33 -4,-1 -17,-1 -22,-1l-7 44c0,4 -2,10 -2,15z"/>
   <path class="fil0" d="M427 314c1,-2 1,-6 1,-8 1,-2 1,-4 1,-5 1,-3 0,-3 7,-3 3,0 7,1 8,3 1,2 0,6 -1,8 -2,5 -9,5 -16,5zm-13 33l9 0c0,-4 1,-9 1,-12l2 -12c8,0 8,0 11,9 1,4 2,11 3,15l9 0c0,-6 -4,-19 -8,-25 16,-4 14,-30 5,-33 -4,-1 -19,-1 -24,-1 0,4 -5,38 -6,44l-2 15z"/>
   <path class="fil1" d="M267 160c-1,1 -10,42 -10,45 2,-1 4,0 6,0 3,-1 4,-1 7,-2 3,0 11,-1 13,-2 1,-1 10,-43 10,-48 -3,0 -24,6 -26,7z"/>
   <path class="fil0" d="M473 337c-2,0 -5,-2 -6,-4 -6,-9 -1,-35 11,-35 14,0 9,39 -5,39zm-17 -19c0,9 -1,15 5,23 7,11 23,8 30,-9 1,-2 1,-4 2,-6 3,-8 3,-22 -2,-30 -4,-8 -9,-8 -15,-8 -3,0 -7,2 -8,3l-3 4c-5,5 -9,17 -9,23z"/>
   <path class="fil0" d="M728 337c-5,0 -9,-6 -9,-12 0,-34 22,-31 22,-17 0,8 0,14 -4,22 -2,3 -5,7 -9,7zm-17 -18c0,9 -1,14 4,22 4,6 12,8 18,6 1,-1 4,-3 4,-3 12,-10 16,-35 9,-48 -7,-13 -23,-10 -30,3 -2,4 -5,14 -5,20z"/>
   <path class="fil0" d="M212 347l31 0c0,-4 1,-6 1,-11l-22 0c0,-2 1,-4 1,-7 0,-2 1,-5 1,-8 25,0 20,2 21,-4 0,-2 1,-4 1,-6l-20 0 1 -13 22 0c0,-3 1,-6 1,-10l-30 0 -2 15c-1,10 -5,36 -6,44z"/>
   <path class="fil0" d="M62 347l30 0c2,0 2,-3 2,-5 0,-2 1,-3 1,-6l-23 0 2 -15 21 0c0,-12 9,-10 -19,-10 0,-5 2,-8 2,-13 28,0 19,3 22,-10l-30 0 -8 59z"/>
   <path class="fil1" d="M383 191c7,0 13,-2 20,-2 6,0 13,-2 20,-2 -1,-4 -5,-9 -7,-13l-21 -38c-2,4 -4,21 -6,27 -2,9 -4,18 -6,28z"/>
   <path class="fil0" d="M95 347l11 0 11 -18c0,3 3,11 4,13 0,2 1,3 1,5l10 0c-1,-3 -2,-6 -3,-8 -1,-3 -2,-5 -3,-8 -5,-15 -5,-9 2,-22 2,-4 11,-19 12,-21l-11 0c0,2 -10,18 -11,19 -1,-4 -6,-15 -6,-19l-10 0 8 24c2,3 3,5 1,8 -3,4 -16,25 -16,27z"/>
   <path class="fil0" d="M273 330c0,10 -15,10 -15,0l0 -2 -8 0c0,12 4,19 16,19 9,0 15,-8 15,-17 0,-4 0,-9 -3,-12 -5,-6 -19,-9 -14,-18 1,-2 2,-2 5,-2 6,0 5,5 7,9 4,-1 3,-1 8,-1 0,-5 -1,-9 -4,-12l-3 -4c-4,-3 -6,-2 -11,-2 -10,0 -16,20 -7,29 1,1 3,3 5,4 2,1 3,2 5,4 2,1 4,3 4,5z"/>
   <path class="fil0" d="M357 302l1 11c1,4 1,8 1,11l-10 0 8 -22zm-25 45l8 0 4 -10c1,-4 1,-3 16,-3 0,4 2,9 2,13l8 0 -7 -59 -9 0 -18 47c-1,4 -4,9 -4,12z"/>
   <path class="fil0" d="M502 304c0,13 8,15 16,22 4,2 3,11 -5,11 -2,0 -5,-1 -5,-1 -2,-2 -2,-6 -2,-8l-9 0c1,2 0,8 3,13 6,10 29,10 29,-13 0,-4 -2,-8 -4,-10 -4,-5 -19,-9 -14,-18 2,-3 12,-5 12,7 3,-1 5,-1 9,-1 -1,-8 -5,-18 -14,-18 -5,0 -8,-1 -13,5 -2,2 -3,8 -3,11z"/>
   <path class="fil0" d="M539 302c0,9 0,12 8,18 4,3 10,5 10,11 0,8 -14,10 -14,-1l0 -2 -9 0c0,12 5,19 17,19 8,0 15,-7 15,-16 0,-4 0,-6 -1,-9 -2,-5 -3,-5 -7,-7l-8 -6c-8,-7 4,-16 9,-9 1,2 1,5 2,7 4,-1 3,-1 8,-1 0,-6 -2,-10 -5,-14 -6,-6 -16,-6 -21,0 -2,2 -4,7 -4,10z"/>
   <path class="fil0" d="M796 304c0,11 5,13 10,17 8,6 9,4 9,11 0,2 -2,4 -3,4 -3,2 -9,2 -11,-2 -2,-3 2,-6 -4,-6 -3,0 -3,0 -6,0 0,28 32,24 32,2 0,-8 -2,-12 -7,-15 -1,-1 -2,-2 -3,-3 -3,-2 -8,-4 -8,-8 0,-8 8,-7 10,-4 2,1 2,2 2,5 1,2 1,1 5,1 4,0 4,1 4,-3 -1,-7 -5,-15 -13,-15 -5,0 -9,0 -13,5 -2,3 -4,7 -4,11z"/>
   <path class="fil0" d="M291 305c0,16 18,18 18,24 0,2 1,5 -2,7 -3,2 -9,2 -11,-2 -2,-4 1,-6 -4,-6 -3,0 -3,0 -6,0 0,5 2,10 4,14 6,9 28,8 28,-13 0,-9 -5,-13 -11,-17 -3,-2 -8,-4 -8,-8 0,-8 9,-7 11,-4 2,1 1,2 2,5 1,2 1,1 5,1 4,0 4,1 3,-3 0,-7 -5,-15 -12,-15 -5,0 -10,0 -14,6 -2,3 -3,6 -3,11z"/>
   <path class="fil0" d="M647 303l1 0c0,8 1,14 1,21l-10 0 8 -21zm-25 44l9 0c1,-5 3,-8 4,-13l16 0c0,2 0,5 0,7 1,6 -2,6 9,6 0,-9 -6,-48 -6,-59l-10 0c0,3 -17,45 -19,51 -1,3 -2,5 -3,8z"/>
   <path class="fil0" d="M155 314l-6 0c0,-2 0,-5 1,-7 0,-4 1,-6 1,-9 4,0 5,0 9,1 6,1 3,11 1,13 -1,1 -3,2 -6,2zm-20 33c12,0 8,1 10,-11 1,-3 2,-8 2,-11 9,0 16,1 21,-6 5,-7 8,-31 -7,-31l-17 0 -9 59z"/>
   <path class="fil0" d="M378 321c0,12 1,26 15,26 11,0 17,-11 19,-20 -4,0 -6,-1 -9,-2 0,8 -10,18 -15,8 -5,-9 -1,-35 10,-35 7,0 6,7 8,10 1,0 7,-1 8,-2 0,-1 -2,-7 -2,-8 -4,-11 -10,-10 -16,-10 -6,0 -11,7 -14,12 -3,6 -4,12 -4,21z"/>
   <path class="fil1" d="M83 237c1,-2 3,-14 4,-17l-34 13c-17,7 -27,13 -43,20 -2,1 -9,5 -10,6l30 -8c4,-1 7,-2 11,-3 1,-1 3,-1 5,-1l37 -10z"/>
   <path class="fil0" d="M664 298l11 0 -5 37c0,3 -1,7 -1,12l8 0c0,-3 1,-6 1,-8l4 -26c0,-3 1,-5 1,-9 1,-7 1,-6 4,-6 10,0 8,2 9,-5 0,-2 1,-3 1,-5 -3,0 -30,0 -32,1 0,1 -1,8 -1,9z"/>
   <path class="fil0" d="M692 347l9 0 8 -59 -8 0 -9 59z"/>
   <path class="fil1" d="M482 111c1,4 5,9 7,13l3 -15c-3,0 -7,1 -10,2z"/>
  </g>
 </g>
</svg>
