<?xml version="1.0" encoding="UTF-8"?>
<!DOCTYPE svg PUBLIC "-//W3C//DTD SVG 1.0//EN" "http://www.w3.org/TR/2001/REC-SVG-20010904/DTD/svg10.dtd">
<!-- Creator: CorelDRAW X8 -->
<svg xmlns="http://www.w3.org/2000/svg" xml:space="preserve" width="880px" height="605px" version="1.0" style="shape-rendering:geometricPrecision; text-rendering:geometricPrecision; image-rendering:optimizeQuality; fill-rule:evenodd; clip-rule:evenodd"
viewBox="0 0 880 605"
 xmlns:xlink="http://www.w3.org/1999/xlink">
 <defs>
  <style type="text/css">
   <![CDATA[
    .fil0 {fill:#2B2B29}
    .fil1 {fill:#E36413}
   ]]>
  </style>
 </defs>
 <g id="Layer_x0020_1">
  <metadata id="CorelCorpID_0Corel-Layer"/>
  <g id="_1393372707920">
   <g id="_1557613174528">
    <path class="fil0" d="M311 602l24 0 0 -34c3,3 20,30 21,34l26 0 0 -70 -24 0 0 33c-4,-3 -9,-13 -11,-18 -12,-20 -4,-15 -36,-15l0 70 0 0zm-40 0l27 0 0 -70 -27 0 0 70zm492 0l26 0 0 -70 -26 0 0 70zm-120 0l47 0 0 -19 -23 0 0 -7 20 0 0 -20 -20 0 0 -6 23 0 0 -18 -47 0 0 70 0 0zm-470 -47c0,14 9,18 20,21 11,1 10,8 1,7 -6,0 -13,-6 -17,-6 -1,4 -6,15 -7,19 8,5 16,8 23,9l5 0c31,-2 47,-41 9,-49 -12,-2 -5,-9 2,-6 3,1 4,3 11,5 2,-5 6,-14 7,-20 -5,-2 -9,-3 -16,-5 -18,-3 -38,5 -38,25l0 0zm525 0c0,15 9,18 21,21 9,1 9,8 1,7 -6,0 -13,-5 -18,-6 -2,6 -6,12 -8,20 5,2 8,3 13,5 46,12 57,-30 35,-42 -5,-3 -10,-3 -14,-4 -6,-2 -4,-9 5,-7 4,1 4,4 11,6 3,-5 8,-15 9,-20 -10,-2 -19,-9 -35,-4 -10,2 -20,11 -20,24l0 0zm-651 8l0 -11 6 0c2,0 5,2 5,3 0,8 -4,8 -11,8zm-26 39l26 0 0 -20c17,0 36,-2 36,-24 0,-7 -2,-15 -6,-19 -10,-11 -37,-7 -56,-7l0 70 0 0zm809 -44c6,4 2,8 7,18l-10 0c2,-7 3,-10 3,-18zm-37 44l27 0c1,-5 1,-3 1,-9l20 0c1,6 1,4 2,9l28 0c-3,-12 -8,-24 -12,-35 -4,-12 -9,-24 -12,-35l-29 0c-5,9 -9,24 -13,34 -4,11 -9,25 -12,36zm-372 -22l0 -27c8,0 15,2 15,12l0 4c0,9 -8,11 -15,11zm-26 22c28,0 68,5 68,-36 0,-21 -17,-34 -37,-34l-31 0 0 70zm-268 -47c18,0 14,24 1,24 -19,0 -15,-24 -1,-24zm0 50c43,0 52,-60 15,-72 -18,-7 -32,-2 -43,8 -11,11 -13,27 -7,41 5,12 19,23 35,23zm371 -39c0,-15 24,-17 24,0 0,19 -24,17 -24,0zm-27 0c0,11 6,22 11,28 21,21 66,9 66,-28 0,-21 -18,-37 -38,-37 -21,0 -39,16 -39,37zm87 36l25 0 0 -34c6,8 17,34 23,34l24 0 0 -70 -25 0 0 34c-3,-3 -19,-31 -20,-34l-27 0 0 70z"/>
    <path class="fil1" d="M325 406c7,-4 12,-8 19,-12 -7,-9 -13,-15 -19,-25 13,0 27,1 40,1 8,-1 24,-13 25,-15l-75 0c-13,-25 -24,-54 -27,-88l-21 0c0,41 24,92 47,125 4,5 9,9 11,14zm-172 -269l511 0c24,0 52,-6 69,7 8,4 13,15 13,27 0,30 -24,51 -36,69 29,0 56,0 84,0 19,0 22,1 34,7 7,4 19,13 22,22 -9,0 -27,3 -37,5 -55,12 -110,27 -163,45 -89,29 -161,55 -247,90 -10,3 -19,7 -29,12 -6,2 -26,12 -30,12 4,-8 46,-41 55,-48 39,-27 55,-37 96,-61l100 -57c-34,0 -21,-3 -41,8 -47,25 -91,51 -135,81 -23,14 -57,38 -77,56l-17 15c-16,14 -20,16 -34,33 -5,6 -15,10 -17,18 4,-1 58,-26 70,-31 24,-10 47,-20 71,-29l72 -28c25,-11 81,-30 111,-40 13,-4 24,-8 37,-13 26,-8 52,-15 78,-23 27,-7 53,-14 81,-20l63 -13c7,-1 17,-2 23,-2 -1,-4 -11,-14 -16,-19 -9,-10 -17,-21 -33,-28 -21,-9 -55,-7 -87,-7 4,-15 21,-18 21,-58 0,-23 -21,-41 -38,-47 -20,-7 -58,-2 -82,-2 -63,0 -122,5 -187,5 -9,0 -12,1 -20,1 -15,0 -27,1 -42,1 -29,0 -56,1 -84,1 -14,0 -26,1 -41,1l-84 2c-13,2 -23,-1 -29,2 0,1 -2,3 -3,3 -2,2 -1,0 -2,3l0 0zm119 341l1 0c0,0 0,-1 -1,0zm-272 -224c91,0 178,1 269,1l384 0c10,0 -10,-18 -24,-18 -110,0 -216,5 -325,5l-76 3c-18,2 -58,0 -79,0 -8,0 -11,1 -18,2l-58 0c-17,1 -41,0 -59,0 -9,0 -10,1 -14,7zm38 -29l561 0c17,1 27,2 11,-11 -12,-10 -43,-6 -65,-6 -25,0 -47,2 -73,2l-72 2c-14,2 -96,0 -110,2l-166 3c-9,0 -11,1 -18,1 -13,1 -25,0 -38,0 -7,0 -19,-1 -25,3 -1,0 -3,2 -4,2 -1,2 -1,0 -1,2l0 0zm42 -31c168,0 334,1 500,1 -8,-15 -24,-19 -47,-16 -17,3 -49,1 -67,1l-65 2c-20,1 -45,-1 -66,0l-98 2c-12,0 -20,1 -33,1l-49 0c-7,0 -9,2 -16,2 -11,0 -22,0 -33,0 -12,0 -24,-2 -26,7l0 0zm36 -29c37,0 74,0 111,0 39,0 73,2 111,2 18,0 181,-1 194,1 16,2 13,-3 5,-10 -12,-11 -26,-10 -45,-8 -16,1 -38,0 -56,0 -16,0 -35,2 -52,3 -9,0 -19,-1 -28,0 -27,2 -81,2 -109,2 -11,0 -17,2 -27,2 -9,0 -19,0 -28,0l-54 2c-13,1 -15,-3 -22,6l0 0zm186 -50c35,0 20,3 47,-24 25,-25 52,-45 86,-56 16,-6 40,-12 60,-12l-24 18c-16,13 -48,52 -53,72l18 0c3,-5 5,-8 8,-12 2,-4 4,-7 6,-10 6,-9 10,-14 17,-20 14,-18 14,-16 26,-27 3,-3 8,-7 10,-8l0 74 15 0 0 -74c18,12 47,43 60,64 6,10 2,8 21,8 7,0 -4,-14 -10,-23 -6,-8 -12,-16 -18,-24 -7,-8 -12,-12 -20,-20l-23 -18c17,0 42,5 56,11 29,10 72,36 92,59 14,19 9,13 36,13 -2,-9 -26,-34 -34,-41 -3,-4 -6,-5 -10,-8 -34,-32 -101,-57 -156,-57 -75,0 -151,36 -192,91 -4,4 -16,19 -17,24l-1 0zm224 352c2,-2 10,-8 13,-10 18,-12 44,-39 56,-58 4,-6 15,-23 15,-30l86 0c-2,8 -24,32 -31,37 -6,5 -11,10 -17,15 -31,24 -81,46 -122,46zm180 -112c-24,0 -49,0 -73,0 -15,0 -20,3 -35,8 -1,1 -1,1 -3,1 -5,3 -5,5 -9,15 -9,15 -20,28 -31,42 -5,6 -30,33 -37,35l0 -64c-3,2 -12,5 -15,6l0 58c-7,-4 -40,-36 -42,-44 -6,2 -11,7 -18,7 2,4 2,4 4,7 3,3 4,4 7,7l26 23c4,2 13,8 15,12 -45,0 -93,-29 -96,-29 -7,0 -14,7 -23,7 2,8 20,15 26,19 86,42 188,30 263,-29 33,-26 60,-62 76,-102 5,-16 4,-14 -7,-11 -11,3 -14,2 -18,12 -3,7 -7,13 -10,20l0 0zm-324 -84c0,32 13,54 19,77 7,-1 15,-9 15,-10l-9 -34c-1,-6 -2,-11 -3,-17 -1,-7 -2,-15 -3,-20l-19 0 0 4 0 0zm121 16c5,-3 15,-6 15,-10l0 -10 -15 0 0 20zm304 -30l0 3c0,9 15,8 15,-2 1,-11 -15,-10 -15,-1z"/>
   </g>
  </g>
 </g>
</svg>
