<?xml version="1.0" encoding="UTF-8"?>
<!DOCTYPE svg PUBLIC "-//W3C//DTD SVG 1.0//EN" "http://www.w3.org/TR/2001/REC-SVG-20010904/DTD/svg10.dtd">
<!-- Creator: CorelDRAW X8 -->
<svg xmlns="http://www.w3.org/2000/svg" xml:space="preserve" width="880px" height="481px" version="1.0" style="shape-rendering:geometricPrecision; text-rendering:geometricPrecision; image-rendering:optimizeQuality; fill-rule:evenodd; clip-rule:evenodd"
viewBox="0 0 880 481"
 xmlns:xlink="http://www.w3.org/1999/xlink">
 <defs>
  <style type="text/css">
   <![CDATA[
    .fil0 {fill:#285953}
    .fil3 {fill:#2C4847}
    .fil2 {fill:#EA6E38}
    .fil1 {fill:#F79D38}
   ]]>
  </style>
 </defs>
 <g id="Layer_x0020_1">
  <metadata id="CorelCorpID_0Corel-Layer"/>
  <g id="_1393679278656">
   <g id="_1557619582672">
    <path class="fil0" d="M0 1l0 269c0,10 3,26 10,32 11,11 31,10 47,10 9,0 14,-1 14,-7l0 -238c22,0 67,-3 86,4 3,2 8,5 10,8 13,16 14,42 2,58 -5,5 -12,11 -20,12 -14,4 -14,2 -22,3 -15,3 -38,-2 -38,5 0,9 17,34 21,41 8,13 16,26 24,38l35 57c2,4 4,7 6,10 2,3 5,7 10,7l61 0c13,0 2,-18 0,-21l-50 -78c-2,-4 -6,-11 -8,-16 16,-8 38,-25 48,-42 5,-10 12,-27 12,-40 0,-10 1,-9 0,-22 -2,-20 -12,-46 -24,-58 -9,-8 -9,-10 -20,-17 -21,-13 -54,-16 -79,-16l-117 0c-4,0 -4,1 -8,1l0 0zm667 346l11 0 0 -11 -11 0 0 11zm-50 0l11 0 0 -11 -11 0 0 11zm50 47l11 0 0 -43 -11 0 0 43zm63 29l-11 0 0 44 12 0c0,-11 -2,-27 3,-32 4,-1 8,-2 13,-2l0 -10c-6,0 -13,0 -16,4 -1,0 0,-2 -1,-4zm-83 -68l0 -4 -11 0 0 43 11 0c0,-25 -3,-33 18,-33l0 -11c-10,0 -11,0 -18,5zm174 -1c0,0 0,-1 0,-1l-1 -2 -10 0 0 43 11 0c0,-24 -3,-38 19,-33 2,6 2,23 2,33l11 0c0,-11 1,-32 -4,-38 -5,-8 -19,-8 -28,-2l0 0zm17 81c0,8 6,10 13,12 9,3 15,1 17,8 -5,3 -19,5 -20,-4l-11 0c0,0 0,0 0,0 0,20 29,17 37,13 2,-2 5,-6 6,-9l0 -4c-1,-5 -5,-8 -12,-10l-14 -3c-2,-1 -2,-1 -4,-2 1,-7 13,-3 14,-2 2,1 2,1 2,4l12 0c0,-23 -40,-19 -40,-3l0 0zm-44 -1l0 3c0,13 29,10 29,16 0,7 -19,5 -19,0l0 -2 -12 0c-1,0 0,1 0,3 5,24 54,13 42,-7 -3,-3 -9,-6 -14,-7 -6,-2 -11,-1 -15,-6 3,-3 16,-4 16,4l12 0c0,-14 -11,-15 -22,-15 -8,0 -17,3 -17,11l0 0zm-28 -2c7,0 11,2 12,7l-21 0c2,-4 5,-7 9,-7zm-22 12c0,12 9,23 21,23 12,0 24,-2 26,-16l-12 0c-2,5 -3,6 -11,6 -7,0 -10,-2 -12,-9l35 0c0,-8 0,-13 -6,-19 -12,-12 -32,-6 -38,5 -1,1 -3,8 -3,10zm35 -59c-8,0 -16,-8 12,-10 0,7 -4,10 -12,10zm-18 -18l12 0c3,-7 -1,-7 13,-7 4,0 11,6 -2,7 -3,1 -5,1 -8,2 -20,2 -18,15 -14,21 6,7 21,7 30,0 4,6 9,6 15,3l0 -9c-2,1 -2,1 -5,1 0,-28 5,-35 -23,-35 -11,0 -17,6 -18,17l0 0zm-71 90c-3,0 -7,0 -10,-3 -3,-4 -8,-22 11,-22 14,0 16,25 -1,25zm-13 -31l0 -3 -11 0 0 58 11 0 0 -17c27,14 48,-15 32,-35 -8,-8 -21,-8 -32,-3l0 0zm20 -72l0 -3 -10 0 0 43 11 0 0 -26c0,-10 10,-9 15,-7 2,8 1,24 1,33l12 0c0,-31 -3,-34 13,-34 3,0 4,4 4,8l0 26 12 0c0,-11 2,-34 -3,-39 -5,-6 -11,-5 -18,-5 -5,0 -7,3 -11,5 -7,-5 -4,-5 -15,-5 -5,0 -9,2 -11,4l0 0zm-139 40c16,0 12,5 12,-16 0,0 1,-4 1,-4 0,-1 6,-5 9,-6l16 19c2,3 3,3 5,7l27 0 0 -43 -11 0 0 42c0,0 -1,-1 -1,0 0,0 0,-1 0,-1l-28 -32c1,-2 1,-2 3,-2 1,-2 2,-2 4,-3 1,-2 2,-2 3,-3l12 -10c3,-3 3,-2 2,-6 -13,0 -10,-1 -16,3l-8 7c-2,1 -5,4 -8,7 -3,2 -6,5 -10,7l0 -24 -12 0 0 58 0 0zm56 69l1 -7 -36 0 0 -14 32 0c1,-1 0,-1 1,-2 0,-3 0,-6 -1,-9l-32 0 0 -13 35 0 0 -10 -47 0 0 59 60 0c3,-4 9,-13 13,-16 1,3 0,2 2,5 2,3 6,6 8,11l16 0c-2,-3 -3,-4 -5,-6l-15 -17c0,-3 11,-13 13,-15 1,-2 1,-2 2,-3 1,-2 2,-2 3,-2 -19,0 -12,-3 -23,10 -2,1 0,1 -3,1 -1,-3 -6,-9 -9,-11l-15 0c3,3 6,6 9,10 2,3 6,7 9,11 -3,1 -10,11 -12,13 -1,1 -1,1 -3,3 -1,1 -1,1 -2,3l-1 -1 0 0zm-28 -263l32 -61 -53 -70 12 15 -36 60 -18 35c-11,18 -26,44 -35,63l-53 100c-3,4 -15,26 -16,28 14,0 28,0 42,0 16,0 28,3 35,-7 5,-9 16,-30 23,-41l26 -48c1,-3 2,-4 3,-6l27 -48c1,-3 2,-4 3,-6 2,-4 2,-5 4,-8 2,-3 2,-4 4,-6l0 0zm-286 110c14,0 108,2 117,-3 16,-7 12,-26 12,-41 0,-13 -12,-10 -25,-10l-54 0c-7,0 -10,0 -10,-8 0,-9 -1,-25 1,-34 11,-2 42,-1 56,-1 31,0 32,-3 32,-31 0,-13 -1,-22 -21,-22 -10,0 -60,0 -63,0 -5,-1 -3,0 -5,-3 -1,-4 -1,-37 0,-41 2,-3 2,-1 3,-4 17,0 40,1 57,0 30,-3 29,-18 29,-40 0,-6 -3,-13 -8,-13l-137 0c-5,0 -7,4 -7,11 0,6 -1,10 -1,16 0,7 1,10 1,17l0 193c0,14 3,14 23,14l0 0z"/>
    <path class="fil1" d="M618 139l-32 61 47 60c3,-1 13,-24 16,-29 5,-7 12,-24 17,-29 4,-12 41,-80 50,-98l15 -27c1,-4 8,-16 8,-19 -8,0 -15,1 -24,1 -8,0 -43,-1 -49,2 -11,3 -13,16 -21,28l-27 50 0 0z"/>
    <path class="fil2" d="M633 260l10 12c4,7 22,30 26,33 5,5 8,5 17,5l61 0c-1,-6 -29,-40 -36,-48l-25 -34c-1,-2 -19,-25 -20,-26 -5,5 -12,22 -17,29 -3,5 -13,27 -16,29l0 0z"/>
    <path class="fil3" d="M541 144l36 -60 -12 -15c-10,-13 -14,-11 -32,-11l-56 0c1,2 1,3 3,5l53 69c2,4 7,8 8,12l0 0z"/>
   </g>
  </g>
 </g>
</svg>
