<?xml version="1.0" encoding="UTF-8"?>
<!DOCTYPE svg PUBLIC "-//W3C//DTD SVG 1.0//EN" "http://www.w3.org/TR/2001/REC-SVG-20010904/DTD/svg10.dtd">
<!-- Creator: CorelDRAW X8 -->
<svg xmlns="http://www.w3.org/2000/svg" xml:space="preserve" width="880px" height="880px" version="1.0" style="shape-rendering:geometricPrecision; text-rendering:geometricPrecision; image-rendering:optimizeQuality; fill-rule:evenodd; clip-rule:evenodd"
viewBox="0 0 880 880"
 xmlns:xlink="http://www.w3.org/1999/xlink">
 <defs>
  <style type="text/css">
   <![CDATA[
    .fil4 {fill:#71141C}
    .fil8 {fill:#818282}
    .fil3 {fill:#9B1B24}
    .fil1 {fill:#CAC8C7}
    .fil7 {fill:#CCCCCC}
    .fil0 {fill:#D4232B}
    .fil5 {fill:#D72229}
    .fil6 {fill:#E6E6E6}
    .fil2 {fill:white}
   ]]>
  </style>
 </defs>
 <g id="Layer_x0020_1">
  <metadata id="CorelCorpID_0Corel-Layer"/>
  <g id="_1393679270656">
   <path class="fil0" d="M478 707l0 -36c13,0 20,7 20,17 0,13 -7,19 -20,19zm0 43c29,-7 39,-4 59,-23 10,-13 16,-39 10,-59 -17,-43 -66,-39 -118,-39l0 157 49 0 0 -36 0 0z"/>
   <path class="fil0" d="M308 645c-24,-16 -62,-23 -88,-10 -23,13 -43,36 -43,72 0,82 92,95 134,62 -6,-13 -16,-29 -23,-42 -3,3 -6,3 -9,6 -27,13 -53,0 -53,-23 -3,-16 10,-29 20,-32 16,-7 29,3 39,10l23 -43 0 0z"/>
   <path class="fil0" d="M367 671l39 0 0 -42 -85 0 0 157 85 0 0 -43 -39 0 0 -16 39 0 0 -39 -39 0 0 -17 0 0z"/>
   <path class="fil1" d="M547 537c-23,3 -46,-13 -66,-16 3,0 -3,0 3,0 -52,-3 -107,-7 -163,-3 -23,0 -134,3 -144,19 17,30 340,30 370,3 0,0 0,0 0,0l0 -3z"/>
   <path class="fil0" d="M79 671l0 -39c-36,-7 -72,-3 -78,29 -7,43 39,59 42,69 3,16 -36,7 -42,7l0 42c39,7 78,13 91,-23 10,-29 -6,-49 -23,-65 -28,-24 -21,-27 10,-20z"/>
   <path class="fil0" d="M684 671l26 0 0 115 49 0c0,-39 0,-77 1,-115l25 0 0 0c0,0 0,0 0,0l0 -42 0 0 -26 0 -75 0 0 42 0 0z"/>
   <path class="fil0" d="M109 786l52 0 0 -157 -52 0 0 157z"/>
   <path class="fil2" d="M478 707c13,0 20,-6 20,-19 0,-10 -7,-17 -20,-17l0 36z"/>
   <path class="fil3" d="M350 3l328 119c23,9 35,34 26,57l-120 328c-8,23 -33,34 -56,26l-328 -120c-23,-8 -35,-33 -26,-56l119 -328c9,-23 34,-35 57,-26z"/>
   <path class="fil4" d="M684 155c0,3 3,10 0,13l-121 333c-3,10 -13,17 -23,13l-337 -124c-3,0 -6,-3 -9,-10l9 -3c4,3 4,3 7,7l330 121c7,0 10,-4 13,-7l121 -333c0,0 0,-4 0,-7l10 -3 0 0z"/>
   <path class="fil5" d="M337 34l331 121c3,0 6,3 6,3l-471 219c0,-3 0,-3 0,-7l121 -333c4,-3 7,-7 13,-3l0 0z"/>
   <path class="fil6" d="M435 269l-176 92 235 -17 -26 -91 -33 16z"/>
   <path class="fil2" d="M383 191l26 91 26 -13 183 -95 -235 17 0 0z"/>
   <path class="fil7" d="M409 282l62 -13 -3 -16 -59 29 0 0z"/>
   <path class="fil5" d="M609 629l-30 59 46 -27 -16 -32 0 0zm-40 78l-42 82 26 0 41 -50 -2 -2 -23 -30 0 0zm4 82l124 3 -62 -111 -21 27 1 2 33 36 -75 43 0 0z"/>
   <path class="fil7" d="M595 737l27 -20 -8 -9 -19 29 0 0z"/>
   <g>
    <path class="fil8" d="M691 821c4,0 14,0 17,1 5,2 6,7 4,13 -4,12 -16,11 -26,11l5 -25zm15 30c2,-2 5,-3 8,-5 7,-5 11,-16 7,-24 -5,-11 -25,-8 -38,-8l-11 65 8 0 5 -26 12 0 17 26 11 0c-1,-2 -3,-6 -5,-8l-14 -20z"/>
    <path class="fil8" d="M880 817c-5,-3 -14,-4 -21,-4 -8,0 -14,1 -19,5 -11,7 -15,24 0,30 7,2 15,2 21,5 11,4 3,23 -19,19 -11,-2 -14,-7 -17,-8 -1,3 -2,7 -2,11 7,2 10,4 20,5 13,0 27,-4 32,-18 5,-19 -16,-19 -26,-22 -18,-3 -9,-22 12,-20 10,2 14,6 17,7l2 -10z"/>
    <path class="fil8" d="M575 827c1,-2 2,-7 2,-10 -12,-6 -29,-6 -40,1 -11,7 -15,25 1,30 7,2 14,2 21,5 10,4 3,23 -20,19 -11,-3 -15,-7 -17,-8 -1,2 -2,8 -2,11 11,6 29,7 40,1 14,-8 17,-25 5,-31 -9,-4 -37,-3 -26,-19 3,-4 11,-6 19,-6 12,2 15,7 17,7z"/>
    <path class="fil8" d="M471 844c4,-3 17,-15 21,-19l9 -7c1,-2 2,-2 4,-4l-10 0c-2,0 -25,22 -28,25 -2,2 -8,7 -10,8l6 -33c-10,0 -8,-1 -9,2l-2 14c-3,13 -7,37 -9,48l8 1c2,-2 3,-14 4,-17 1,-5 0,-5 3,-7 2,-2 3,-3 5,-5 2,1 14,18 16,22 6,8 2,7 16,7 -2,-3 -4,-6 -6,-9 -3,-4 -17,-24 -18,-26z"/>
    <path class="fil8" d="M619 821c12,0 27,-1 22,15 -4,11 -13,11 -26,11l4 -26zm-6 34c10,-1 18,0 26,-4 5,-4 10,-9 12,-17 4,-23 -21,-20 -38,-20 -2,0 -2,2 -2,3 -3,20 -8,43 -11,62l9 -1 4 -23z"/>
    <path class="fil8" d="M419 839l-43 0 -7 40 42 0c2,-1 2,-6 2,-8l-34 0 5 -24 33 0 2 -8z"/>
    <path class="fil8" d="M801 839l-43 0 -7 40 43 0 1 -8 -34 0 4 -24 34 0 2 -8z"/>
    <path class="fil8" d="M421 822c2,-1 2,-6 2,-8l-42 0 -2 8 42 0z"/>
    <path class="fil8" d="M805 814c-9,0 -18,0 -26,0 -19,0 -16,-3 -18,8l43 -1 1 -7z"/>
   </g>
  </g>
 </g>
</svg>
