<?xml version="1.0" encoding="UTF-8"?>
<!DOCTYPE svg PUBLIC "-//W3C//DTD SVG 1.0//EN" "http://www.w3.org/TR/2001/REC-SVG-20010904/DTD/svg10.dtd">
<!-- Creator: CorelDRAW X8 -->
<svg xmlns="http://www.w3.org/2000/svg" xml:space="preserve" width="880px" height="286px" version="1.0" style="shape-rendering:geometricPrecision; text-rendering:geometricPrecision; image-rendering:optimizeQuality; fill-rule:evenodd; clip-rule:evenodd"
viewBox="0 0 880 286"
 xmlns:xlink="http://www.w3.org/1999/xlink">
 <defs>
  <style type="text/css">
   <![CDATA[
    .fil1 {fill:#2B3058}
    .fil2 {fill:#E6212A}
    .fil0 {fill:white}
   ]]>
  </style>
 </defs>
 <g id="Layer_x0020_1">
  <metadata id="CorelCorpID_0Corel-Layer"/>
  <g id="_1393380657136">
   <path class="fil0" d="M133 195c5,6 -6,8 -4,15 4,1 8,-3 11,-5 3,-2 6,-15 15,-11 1,4 -9,8 -8,13 1,0 2,-1 2,-2 4,-4 17,-15 21,-15 7,8 -8,12 -7,18 1,5 11,-5 12,-6 3,-5 5,-8 9,-11 3,-1 5,-3 6,0 2,2 -1,5 -2,6 -2,2 -3,4 -5,5 -2,2 -3,2 -4,6 5,0 14,-9 18,-13 2,-1 4,-4 7,-4 3,4 -4,11 -8,18 -1,2 -3,4 -4,6 3,-1 12,-10 14,-13 6,-7 28,-18 30,-9 -1,2 0,1 -2,2 0,1 2,1 1,4 0,0 -2,3 -2,3 -1,1 -7,7 -2,8 3,1 8,-5 10,-5 2,2 0,3 -4,6 -2,3 -13,11 -14,5 -1,-4 1,-7 2,-9 -1,0 -4,2 -5,3 -2,1 -4,3 -6,4 -3,3 -5,3 -8,-2l-2 -3 -19 20c-1,2 -1,2 -4,1 -1,-2 -1,-4 1,-6 2,-4 9,-15 9,-17 -6,3 -11,12 -15,5 -1,0 -1,-1 -1,-2 -1,0 -1,-1 -1,-1l0 -2c-2,2 -10,10 -15,10 -5,0 -5,-6 -1,-12 0,0 0,-1 1,-1l1 -3c-1,1 -4,4 -6,5 -3,4 -11,17 -14,6l0 -3c0,0 0,0 0,0 -2,2 -18,15 -18,5 0,-3 1,-5 2,-7 -8,4 -14,15 -19,4 -5,-8 7,-15 14,-18 4,-2 15,-6 16,0l-1 2c0,0 -1,0 -1,0zm613 -13c7,-2 4,7 0,8 -6,2 -7,-5 0,-8zm-210 1c6,-3 5,5 1,7 -5,2 -8,-4 -1,-7zm-44 7c-4,-4 2,-8 6,-8 2,2 2,4 0,6 -1,2 -3,3 -6,2zm26 -3l4 0c0,2 -2,5 -3,6 -3,3 -4,3 -8,3 -2,1 -9,11 -6,15 3,1 6,-2 8,-3 5,-4 5,-3 7,-6 1,-4 9,-13 14,-9 1,4 -8,11 -10,13 0,7 8,3 11,1 1,-1 1,-1 1,-2 1,-1 2,-2 3,-3l18 -19c2,-1 4,-2 7,0 0,3 -4,5 -6,7 -1,1 -5,6 -5,8 15,-12 23,-6 13,5l-7 7c6,1 9,-2 12,-5 3,-2 3,-4 9,-8 3,-2 22,-13 23,-4l-2 2c6,5 -6,8 -4,15 4,1 9,-3 11,-5 2,-2 7,-16 15,-11 0,5 -9,9 -8,13 2,0 2,-2 5,-5 3,-3 14,-12 18,-12 1,1 2,4 2,6 -1,1 -11,10 -8,13 3,2 9,-6 11,-6 1,4 0,3 -5,8 -2,2 -5,5 -9,6 -4,2 -7,-2 -6,-6 1,-4 4,-7 5,-10 -6,3 -12,15 -16,15 -3,0 -4,-4 -4,-7 -1,0 -12,11 -16,9 -5,-3 0,-8 0,-11 -1,0 -4,2 -5,3 -2,2 -3,3 -5,4 -7,5 -7,-1 -11,-5 -2,2 -4,5 -11,7 -2,0 -5,1 -8,0 -3,-1 -5,-1 -8,-1 -2,2 -7,12 -9,15l-3 0c-4,-8 11,-21 15,-31 -1,0 -6,5 -7,6 -2,2 0,2 -7,8 -6,5 -15,8 -15,-4 -2,0 -7,5 -13,8 -2,1 -6,2 -8,0 -2,-3 0,-6 0,-9 -2,1 -4,5 -10,8 -12,7 -16,-13 -1,-23 1,-1 3,-1 5,-1 1,0 1,1 1,1 3,3 -8,12 -9,13 -1,6 5,5 9,2l8 -7c1,-2 3,-3 4,-6l-6 0c0,-1 3,-5 4,-6 2,-2 5,-2 8,-2 3,-3 5,-8 11,-6 0,1 0,2 -1,3 -1,1 -1,1 -2,3zm-144 0l4 0c0,1 -3,5 -3,6 -2,3 -5,3 -9,3 -1,0 -5,7 -6,10 0,2 -1,4 0,5 3,1 7,-2 9,-3 6,-4 4,-3 6,-7 3,-5 8,-12 15,-9 1,2 -1,3 -2,4 -1,2 -2,3 -4,4 -2,2 -7,4 -5,9 4,-1 11,-7 13,-9 4,-3 10,-10 13,-10 0,0 0,0 0,0 2,0 3,4 1,5 -3,4 -10,9 -9,15 3,0 5,-1 7,-3 1,0 2,-1 3,-1 1,-1 1,-2 2,-2l1 3c-2,1 -4,3 -6,5 -3,2 -11,9 -14,4 -2,-2 -1,-6 0,-8 -3,1 -13,16 -17,2l0 -1c-3,3 -15,13 -20,8 -2,-2 -1,-6 0,-9 -3,1 -6,6 -13,9 -3,2 -6,2 -6,-3 0,-3 2,-5 2,-8 -3,2 -9,9 -13,10 -5,2 -17,-12 8,-23 3,-2 15,-6 16,0 -1,1 -1,1 -2,2 6,5 -6,9 -4,15 5,1 8,-3 11,-6 2,-1 7,-5 8,-9l-6 0c0,-1 3,-5 4,-6 2,-2 5,-2 8,-2 2,-2 3,-5 6,-6 3,-1 6,0 3,3 0,1 0,1 -1,3zm72 -4c2,2 4,0 5,3 -2,1 -12,0 -13,0 -1,-3 0,-10 3,-13 8,-5 32,-7 41,-5 5,2 6,9 6,10l-20 29c1,1 1,0 2,1 0,2 -7,11 -10,11 -8,1 0,-12 1,-14 5,-8 10,-14 15,-20 1,-2 5,-5 5,-7 -7,0 -31,3 -35,5zm353 10c-1,2 -1,1 -2,2 5,5 -7,10 -4,14 0,1 0,1 3,1 1,0 2,-1 3,-2 2,-1 11,-9 13,-13l-6 1c0,-2 2,-5 3,-6 2,-2 3,-3 7,-3 4,0 3,-2 5,-4 2,-2 4,-3 7,-2 1,2 0,3 -1,4 -1,1 -1,0 -1,2l4 0c0,1 -2,5 -4,6 -2,3 -4,3 -8,3 -3,3 -11,16 -4,15 1,0 2,0 2,-1 3,-1 8,-5 10,-6 1,4 0,4 -4,7 -3,3 -12,10 -16,7 -4,-3 -2,-7 -1,-10 -2,1 -17,16 -19,8 -1,-3 1,-6 2,-9 -6,3 -12,12 -17,8 -2,-3 -2,-3 -3,-5 -1,-1 0,0 -1,0 0,0 -18,17 -19,-2 -3,2 -4,5 -10,8 -10,5 -16,-7 -6,-18 1,-2 7,-9 11,-5 1,5 -7,11 -10,13 0,8 8,3 12,0 4,-3 2,-1 4,-6 0,-3 1,-5 3,-7 2,-5 5,-8 8,-12 3,-2 8,-9 12,-8 4,9 -11,23 -17,29 -3,3 -2,14 10,6 6,-4 2,-6 12,-12 4,-2 20,-11 22,-3zm-493 -10c0,-2 0,-2 2,-3l2 -2c0,-1 0,0 0,-1 -6,0 -25,3 -26,9 3,3 17,5 21,7 10,3 11,10 6,16 -9,9 -41,11 -44,5 -2,-3 5,-10 9,-9 1,0 1,0 1,0 -1,2 -1,1 -2,3 7,0 30,0 33,-8 -2,-2 -6,-3 -10,-4 -7,-2 -18,-2 -21,-6 -1,-2 1,-9 2,-11 3,-8 31,-14 42,-10 3,9 -6,10 -10,12 -2,1 -2,2 -5,2zm-244 1c-3,1 -5,2 -8,3 -2,1 -5,4 -8,3 -2,-3 0,-9 2,-11 5,-5 37,-15 45,-10 3,2 3,7 2,10 -3,5 -12,12 -14,15 3,0 9,0 11,-2 4,-3 11,-14 15,-17 1,-2 2,-3 4,-3 1,5 -2,8 -6,12 -1,1 -7,8 -7,9 3,0 7,0 9,2 -3,3 -3,2 -7,8 -2,2 -2,1 -8,1 -2,1 -3,3 -4,5 -1,2 0,3 0,6 -5,2 -6,3 -9,2 -1,-5 3,-9 4,-13 -3,0 -12,1 -14,3l-8 9c-1,2 -4,4 -6,0 0,-4 4,-6 5,-9 -12,0 -4,-8 -3,-9 3,0 2,1 6,0 1,-1 3,-1 5,-1 3,-1 3,-1 5,-3 1,-1 2,-2 3,-3l10 -11c1,-1 2,-2 2,-5 -5,-2 -17,3 -22,5 -1,1 -2,1 -3,1 -3,1 -1,0 -1,3zm620 -10c5,-1 11,-5 22,-6 2,0 4,-1 6,0 1,1 3,3 3,5 0,3 -4,6 -5,9 5,-2 24,-12 28,-12 1,4 -4,8 -7,8 -3,1 -2,1 -6,2l-20 10c-8,4 -2,6 4,10 3,1 15,8 17,9 3,3 4,6 2,10 -2,0 -6,-3 -8,-4 -3,-2 -6,-3 -8,-4 -3,-2 -6,-3 -9,-5 -2,-1 -6,-3 -8,-4l-5 6c-1,1 -1,2 -1,3 -2,2 -6,7 -10,5 -1,-3 2,-6 5,-9 1,-1 2,-2 3,-4 1,-1 3,-3 4,-4 -1,-3 -3,-5 1,-8 6,-4 7,-1 12,-9 2,-1 4,-4 4,-6 -9,1 -17,5 -25,9 -3,1 -6,4 -8,2 -1,-3 1,-9 3,-11 1,-2 7,-6 9,-5 0,2 -1,1 -3,3zm-509 -88c2,-1 6,-1 8,0 0,8 -4,21 -8,27 -8,15 -21,27 -37,34 -36,16 -79,3 -98,-31 -4,-6 -9,-18 -10,-26l9 0c2,6 1,10 9,23 4,8 8,12 14,17 11,9 28,16 47,16 26,-1 47,-16 59,-37 5,-10 5,-16 7,-23zm-52 17c1,-5 2,-12 3,-18l3 0c0,5 -2,13 -3,19 1,1 5,2 7,3 2,1 4,3 6,3 4,-6 6,-18 7,-25l3 0c1,10 -4,20 -7,27l9 9c4,-2 9,-11 11,-15 6,-11 4,-15 6,-21l3 1c-1,16 -11,31 -20,40 -10,9 -25,16 -44,17 -28,0 -54,-18 -62,-44 -3,-9 -3,-9 1,-9 1,8 3,12 6,19 2,2 4,5 5,7 2,2 5,4 6,7 3,-2 8,-10 12,-11 2,2 5,6 7,8 2,3 4,5 6,8 2,-1 5,-3 7,-4l-4 -11 3 -1 4 10c3,0 5,-1 9,-1 3,0 6,1 9,1 2,-4 6,-11 6,-16 -5,-1 -11,-2 -17,-1 -3,0 -6,0 -9,1 -2,0 -5,1 -7,1 -1,-3 -5,-13 -4,-17l2 0c2,3 2,10 4,14 2,0 9,-2 15,-3 7,0 11,1 17,2zm3 -26l64 0 0 3 -64 0 0 -3zm-64 -19c2,-4 5,-4 7,-4 4,0 4,-2 6,-4 9,-8 5,-7 14,-7l-18 26c-1,2 -2,3 -2,4l38 2c4,-3 4,-7 10,-6 -1,3 -5,7 -6,10 1,1 5,8 6,9 -6,0 -3,0 -10,-4 -2,-2 -9,-1 -12,-1 -9,1 -18,2 -27,2 1,2 8,12 10,15 2,2 9,13 10,14 -8,0 -5,1 -10,-3 -11,-10 -4,-5 -12,-7 -1,0 -4,-2 -4,-3l5 0c-3,-7 -7,-3 -10,-5 -1,0 -3,-3 -3,-3l4 0c-1,-2 -4,-4 -6,-7l-45 2c0,-2 4,-6 6,-9 3,-2 6,-6 8,-7 7,-2 23,1 31,1 1,-3 6,-5 6,-7l-4 -1c5,-6 7,-2 10,-5 3,-2 2,-1 3,-2l-5 0zm-19 10c-1,-6 5,-18 8,-22 4,-6 8,-12 14,-16 26,-21 61,-19 86,3 10,8 20,26 20,40l-3 0c-1,-3 -1,-8 -2,-11 -2,-8 -10,-22 -15,-25l-9 9c0,1 3,8 5,13 1,4 2,10 2,15l-3 0c0,-7 -3,-21 -7,-26 -1,1 -4,3 -6,3 -2,1 -5,2 -7,3 1,6 3,13 3,20l-3 0 0 -3c-1,-4 -2,-12 -3,-15 -1,-1 -2,0 -4,0 -12,2 -18,0 -28,-2 -1,3 -3,12 -4,14l-2 0c-1,-3 3,-15 4,-17 3,0 7,2 16,3 5,0 9,0 14,-1 4,-1 3,-1 3,-2 -3,-9 -2,-6 -6,-15 -3,0 -6,1 -9,1 -4,0 -6,-1 -9,-1l-4 10 -3 -1 4 -11c-2,-1 -5,-3 -7,-3 -2,2 -5,4 -7,7 -1,2 -4,6 -6,8 -2,-1 -4,-3 -6,-5l-6 -5c-7,6 -15,19 -17,32l-3 0zm723 -30c-7,-2 -11,-2 -16,-7 -5,-4 -8,-9 -2,-16 6,-8 23,-11 36,-11 31,0 50,16 35,27 -4,4 -10,6 -16,8l16 0 -19 111 -78 0c0,-3 1,-10 2,-14 1,-4 1,-9 2,-14l10 -55c1,-5 4,-26 5,-28 3,-1 20,0 25,-1zm-335 0c-4,0 -13,-4 -16,-7 -13,-11 1,-21 13,-24 7,-2 14,-3 22,-3 12,0 29,2 37,11 12,13 -15,24 -19,24l16 0c0,4 -1,9 -2,14 -2,14 -16,96 -16,97 -1,0 -1,0 -2,0 -1,0 -2,0 -3,0 -25,0 -50,1 -74,0 0,-2 18,-107 19,-111l25 -1zm421 -34c20,-5 29,25 9,31 -20,5 -30,-25 -9,-31zm-822 64c1,-10 6,-20 10,-27 26,-43 86,-49 120,-16 12,11 23,30 23,48 -11,0 -8,2 -9,-7 -1,-6 -3,-12 -6,-17 -5,-8 -9,-13 -14,-18 -26,-24 -66,-25 -92,-3 -10,9 -21,25 -23,40l-9 0zm191 -53c2,-9 1,-8 4,-8l170 0 -9 40 -46 1c-1,1 -1,1 -1,3l-16 99c-25,0 -53,0 -78,0l15 -102 -44 0 5 -33zm354 86l-8 49 -81 0 23 -143 81 0 -8 51 13 -11c13,-13 28,-27 41,-39 2,-1 3,-1 5,-1 5,0 9,0 13,0 24,0 50,1 74,0 -1,1 -8,8 -10,9l-67 63c1,2 5,7 6,9l30 44c2,3 11,16 12,18l-90 0c-5,-7 -33,-49 -34,-49zm-573 185l880 0 0 -286 -880 0 0 286z"/>
   <path class="fil1" d="M214 48l44 0 -15 102c25,0 53,0 78,0l16 -99c0,-2 0,-2 1,-3l46 -1 9 -40 -170 0c-3,0 -2,-1 -4,8l-5 33z"/>
   <path class="fil2" d="M580 58c-4,4 -20,18 -22,21 3,4 14,19 15,22 1,0 29,42 34,49l90 0c-1,-2 -10,-15 -12,-18l-30 -44c-1,-2 -5,-7 -6,-9l67 -63c2,-1 9,-8 10,-9 -24,1 -50,0 -74,0 -4,0 -8,0 -13,0 -2,0 -3,0 -5,1 -13,12 -28,26 -41,39l-13 11z"/>
   <path class="fil1" d="M573 101c-1,-3 -12,-18 -15,-22 2,-3 18,-17 22,-21l8 -51 -81 0 -23 143 81 0 8 -49z"/>
   <path class="fil1" d="M429 38l-25 1c-1,4 -19,109 -19,111 24,1 49,0 74,0 1,0 2,0 3,0 1,0 1,0 2,0 0,-1 14,-83 16,-97 1,-5 2,-10 2,-14l-16 0c4,0 31,-11 19,-24 -8,-9 -25,-11 -37,-11 -8,0 -15,1 -22,3 -12,3 -26,13 -13,24 3,3 12,7 16,7z"/>
   <path class="fil1" d="M764 38c-5,1 -22,0 -25,1 -1,2 -4,23 -5,28l-10 55c-1,5 -1,10 -2,14 -1,4 -2,11 -2,14l78 0 19 -111 -16 0c6,-2 12,-4 16,-8 15,-11 -4,-27 -35,-27 -13,0 -30,3 -36,11 -6,7 -3,12 2,16 5,5 9,5 16,7z"/>
   <path class="fil2" d="M549 208c0,-2 8,-9 12,-9 0,3 -2,5 -5,8 -1,1 -1,1 -1,2l-6 -1zm47 -11c-2,3 -6,6 -8,8 -13,12 -13,3 -9,0 4,-4 14,-8 17,-8zm-78 -10c1,-2 1,-2 2,-3 1,-1 1,-2 1,-3 -6,-2 -8,3 -11,6 -3,0 -6,0 -8,2 -1,1 -4,5 -4,6l6 0c-1,3 -3,4 -4,6l-8 7c-4,3 -10,4 -9,-2 1,-1 12,-10 9,-13 0,0 0,-1 -1,-1 -2,0 -4,0 -5,1 -15,10 -11,30 1,23 6,-3 8,-7 10,-8 0,3 -2,6 0,9 2,2 6,1 8,0 6,-3 11,-8 13,-8 0,12 9,9 15,4 7,-6 5,-6 7,-8 1,-1 6,-6 7,-6 -4,10 -19,23 -15,31l3 0c2,-3 7,-13 9,-15 3,0 5,0 8,1 3,1 6,0 8,0 7,-2 9,-5 11,-7 4,4 4,10 11,5 2,-1 3,-2 5,-4 1,-1 4,-3 5,-3 0,3 -5,8 0,11 4,2 15,-9 16,-9 0,3 1,7 4,7 4,0 10,-12 16,-15 -1,3 -4,6 -5,10 -1,4 2,8 6,6 4,-1 7,-4 9,-6 5,-5 6,-4 5,-8 -2,0 -8,8 -11,6 -3,-3 7,-12 8,-13 0,-2 -1,-5 -2,-6 -4,0 -15,9 -18,12 -3,3 -3,5 -5,5 -1,-4 8,-8 8,-13 -8,-5 -13,9 -15,11 -2,2 -7,6 -11,5 -2,-7 10,-10 4,-15l2 -2c-1,-9 -20,2 -23,4 -6,4 -6,6 -9,8 -3,3 -6,6 -12,5l7 -7c10,-11 2,-17 -13,-5 0,-2 4,-7 5,-8 2,-2 6,-4 6,-7 -3,-2 -5,-1 -7,0l-18 19c-1,1 -2,2 -3,3 0,1 0,1 -1,2 -3,2 -11,6 -11,-1 2,-2 11,-9 10,-13 -5,-4 -13,5 -14,9 -2,3 -2,2 -7,6 -2,1 -5,4 -8,3 -3,-4 4,-14 6,-15 4,0 5,0 8,-3 1,-1 3,-4 3,-6l-4 0z"/>
   <path class="fil2" d="M128 197c0,1 -16,16 -19,14 -2,-3 4,-8 7,-10 3,-1 9,-4 12,-4zm101 0c-1,1 -16,16 -19,14 -2,-2 1,-6 2,-6 1,-1 3,-3 5,-4 2,-1 9,-4 12,-4zm-96 -2c0,0 1,0 1,0l1 -2c-1,-6 -12,-2 -16,0 -7,3 -19,10 -14,18 5,11 11,0 19,-4 -1,2 -2,4 -2,7 0,10 16,-3 18,-5 0,0 0,0 0,0l0 3c3,11 11,-2 14,-6 2,-1 5,-4 6,-5l-1 3c-1,0 -1,1 -1,1 -4,6 -4,12 1,12 5,0 13,-8 15,-10l0 2c0,0 0,1 1,1 0,1 0,2 1,2 4,7 9,-2 15,-5 0,2 -7,13 -9,17 -2,2 -2,4 -1,6 3,1 3,1 4,-1l19 -20 2 3c3,5 5,5 8,2 2,-1 4,-3 6,-4 1,-1 4,-3 5,-3 -1,2 -3,5 -2,9 1,6 12,-2 14,-5 4,-3 6,-4 4,-6 -2,0 -7,6 -10,5 -5,-1 1,-7 2,-8 0,0 2,-3 2,-3 1,-3 -1,-3 -1,-4 2,-1 1,0 2,-2 -2,-9 -24,2 -30,9 -2,3 -11,12 -14,13 1,-2 3,-4 4,-6 4,-7 11,-14 8,-18 -3,0 -5,3 -7,4 -4,4 -13,13 -18,13 1,-4 2,-4 4,-6 2,-1 3,-3 5,-5 1,-1 4,-4 2,-6 -1,-3 -3,-1 -6,0 -4,3 -6,6 -9,11 -1,1 -11,11 -12,6 -1,-6 14,-10 7,-18 -4,0 -17,11 -21,15 0,1 -1,2 -2,2 -1,-5 9,-9 8,-13 -9,-4 -12,9 -15,11 -3,2 -7,6 -11,5 -2,-7 9,-9 4,-15z"/>
   <path class="fil2" d="M60 58l5 0c-1,1 0,0 -3,2 -3,3 -5,-1 -10,5l4 1c0,2 -5,4 -6,7 -8,0 -24,-3 -31,-1 -2,1 -5,5 -8,7 -2,3 -6,7 -6,9l45 -2c2,3 5,5 6,7l-4 0c0,0 2,3 3,3 3,2 7,-2 10,5l-5 0c0,1 3,3 4,3 8,2 1,-3 12,7 5,4 2,3 10,3 -1,-1 -8,-12 -10,-14 -2,-3 -9,-13 -10,-15 9,0 18,-1 27,-2 3,0 10,-1 12,1 7,4 4,4 10,4 -1,-1 -5,-8 -6,-9 1,-3 5,-7 6,-10 -6,-1 -6,3 -10,6l-38 -2c0,-1 1,-2 2,-4l18 -26c-9,0 -5,-1 -14,7 -2,2 -2,4 -6,4 -2,0 -5,0 -7,4z"/>
   <path class="fil2" d="M28 68l9 0c2,-15 13,-31 23,-40 26,-22 66,-21 92,3 5,5 9,10 14,18 3,5 5,11 6,17 1,9 -2,7 9,7 0,-18 -11,-37 -23,-48 -34,-33 -94,-27 -120,16 -4,7 -9,17 -10,27z"/>
   <path class="fil2" d="M173 86c-2,7 -2,13 -7,23 -12,21 -33,36 -59,37 -19,0 -36,-7 -47,-16 -6,-5 -10,-9 -14,-17 -8,-13 -7,-17 -9,-23l-9 0c1,8 6,20 10,26 19,34 62,47 98,31 16,-7 29,-19 37,-34 4,-6 8,-19 8,-27 -2,-1 -6,-1 -8,0z"/>
   <path class="fil2" d="M792 197c-1,1 -16,16 -19,14 -2,-2 1,-6 2,-7 3,-3 14,-7 17,-7zm-36 -1c1,-2 3,-6 5,-8 1,-3 3,-6 6,-7 -1,4 -8,14 -11,15zm43 -3c-2,-8 -18,1 -22,3 -10,6 -6,8 -12,12 -12,8 -13,-3 -10,-6 6,-6 21,-20 17,-29 -4,-1 -9,6 -12,8 -3,4 -6,7 -8,12 -2,2 -3,4 -3,7 -2,5 0,3 -4,6 -4,3 -12,8 -12,0 3,-2 11,-8 10,-13 -4,-4 -10,3 -11,5 -10,11 -4,23 6,18 6,-3 7,-6 10,-8 1,19 19,2 19,2 1,0 0,-1 1,0 1,2 1,2 3,5 5,4 11,-5 17,-8 -1,3 -3,6 -2,9 2,8 17,-7 19,-8 -1,3 -3,7 1,10 4,3 13,-4 16,-7 4,-3 5,-3 4,-7 -2,1 -7,5 -10,6 0,1 -1,1 -2,1 -7,1 1,-12 4,-15 4,0 6,0 8,-3 2,-1 4,-5 4,-6l-4 0c0,-2 0,-1 1,-2 1,-1 2,-2 1,-4 -3,-1 -5,0 -7,2 -2,2 -1,4 -5,4 -4,0 -5,1 -7,3 -1,1 -3,4 -3,6l6 -1c-2,4 -11,12 -13,13 -1,1 -2,2 -3,2 -3,0 -3,0 -3,-1 -3,-4 9,-9 4,-14 1,-1 1,0 2,-2z"/>
   <path class="fil2" d="M321 211c-1,-5 4,-8 7,-10 2,-1 10,-4 12,-4 -2,3 -14,15 -19,14zm53 -24c1,-2 1,-2 1,-3 3,-3 0,-4 -3,-3 -3,1 -4,4 -6,6 -3,0 -6,0 -8,2 -1,1 -4,5 -4,6l6 0c-1,4 -6,8 -8,9 -3,3 -6,7 -11,6 -2,-6 10,-10 4,-15 1,-1 1,-1 2,-2 -1,-6 -13,-2 -16,0 -25,11 -13,25 -8,23 4,-1 10,-8 13,-10 0,3 -2,5 -2,8 0,5 3,5 6,3 7,-3 10,-8 13,-9 -1,3 -2,7 0,9 5,5 17,-5 20,-8l0 1c4,14 14,-1 17,-2 -1,2 -2,6 0,8 3,5 11,-2 14,-4 2,-2 4,-4 6,-5l-1 -3c-1,0 -1,1 -2,2 -1,0 -2,1 -3,1 -2,2 -4,3 -7,3 -1,-6 6,-11 9,-15 2,-1 1,-5 -1,-5 0,0 0,0 0,0 -3,0 -9,7 -13,10 -2,2 -9,8 -13,9 -2,-5 3,-7 5,-9 2,-1 3,-2 4,-4 1,-1 3,-2 2,-4 -7,-3 -12,4 -15,9 -2,4 0,3 -6,7 -2,1 -6,4 -9,3 -1,-1 0,-3 0,-5 1,-3 5,-10 6,-10 4,0 7,0 9,-3 0,-1 3,-5 3,-6l-4 0z"/>
   <path class="fil2" d="M117 35c1,-1 7,-3 8,-4 2,2 9,11 10,14 -4,4 -9,4 -11,6 -1,-1 -3,-6 -4,-9 -1,-2 -2,-5 -3,-7zm10 -6c1,-1 5,-4 5,-4 3,1 14,8 15,10 -2,2 -7,7 -9,8 -1,-1 0,-1 -1,-2 -4,-6 -8,-10 -10,-12zm-63 4c3,-2 11,-8 15,-9 1,1 1,2 2,3l2 2c-3,5 -5,5 -10,13 -3,-1 -8,-7 -9,-9zm18 -10c4,-3 18,-5 24,-4 9,0 16,2 23,5 -1,2 -7,5 -10,7 -9,4 -19,4 -27,-1 -3,-2 -8,-5 -10,-7zm-41 45l3 0c2,-13 10,-26 17,-32l6 5c2,2 4,4 6,5 2,-2 5,-6 6,-8 2,-3 5,-5 7,-7 2,0 5,2 7,3l-4 11 3 1 4 -10c3,0 5,1 9,1 3,0 6,-1 9,-1 4,9 3,6 6,15 0,1 1,1 -3,2 -5,1 -9,1 -14,1 -9,-1 -13,-3 -16,-3 -1,2 -5,14 -4,17l2 0c1,-2 3,-11 4,-14 10,2 16,4 28,2 2,0 3,-1 4,0 1,3 2,11 3,15l0 3 3 0c0,-7 -2,-14 -3,-20 2,-1 5,-2 7,-3 2,0 5,-2 6,-3 4,5 7,19 7,26l3 0c0,-5 -1,-11 -2,-15 -2,-5 -5,-12 -5,-13l9 -9c5,3 13,17 15,25 1,3 1,8 2,11l3 0c0,-14 -10,-32 -20,-40 -25,-22 -60,-24 -86,-3 -6,4 -10,10 -14,16 -3,4 -9,16 -8,22z"/>
   <path class="fil2" d="M82 136c1,-3 7,-6 9,-8 4,-2 8,-4 14,-4 8,0 19,5 24,10 -4,3 -17,6 -23,6 -9,0 -17,-2 -24,-4zm-18 -11c1,-2 7,-8 9,-9 4,7 10,12 10,14 -1,1 -3,3 -4,4 -4,-1 -13,-7 -15,-9zm63 4c1,-1 4,-4 6,-6 2,-3 3,-4 5,-7 1,0 3,2 5,3 1,1 2,3 4,4 -2,3 -11,9 -15,10l-5 -4zm-10 -6c1,-2 3,-6 4,-8 1,-2 1,-5 2,-7 4,0 10,3 12,5 -1,4 -8,13 -10,14 -2,0 -7,-3 -8,-4zm4 -20c-6,-1 -10,-2 -17,-2 -6,1 -13,3 -15,3 -2,-4 -2,-11 -4,-14l-2 0c-1,4 3,14 4,17 2,0 5,-1 7,-1 3,-1 6,-1 9,-1 6,-1 12,0 17,1 0,5 -4,12 -6,16 -3,0 -6,-1 -9,-1 -4,0 -6,1 -9,1l-4 -10 -3 1 4 11c-2,1 -5,3 -7,4 -2,-3 -4,-5 -6,-8 -2,-2 -5,-6 -7,-8 -4,1 -9,9 -12,11 -1,-3 -4,-5 -6,-7 -1,-2 -3,-5 -5,-7 -3,-7 -5,-11 -6,-19 -4,0 -4,0 -1,9 8,26 34,44 62,44 19,-1 34,-8 44,-17 9,-9 19,-24 20,-40l-3 -1c-2,6 0,10 -6,21 -2,4 -7,13 -11,15l-9 -9c3,-7 8,-17 7,-27l-3 0c-1,7 -3,19 -7,25 -2,0 -4,-2 -6,-3 -2,-1 -6,-2 -7,-3 1,-6 3,-14 3,-19l-3 0c-1,6 -2,13 -3,18z"/>
   <path class="fil2" d="M62 184c0,-3 -2,-2 1,-3 1,0 2,0 3,-1 5,-2 17,-7 22,-5 0,3 -1,4 -2,5l-10 11c-1,1 -2,2 -3,3 -2,2 -2,2 -5,3 -2,0 -4,0 -5,1 -4,1 -3,0 -6,0 -1,1 -9,9 3,9 -1,3 -5,5 -5,9 2,4 5,2 6,0l8 -9c2,-2 11,-3 14,-3 -1,4 -5,8 -4,13 3,1 4,0 9,-2 0,-3 -1,-4 0,-6 1,-2 2,-4 4,-5 6,0 6,1 8,-1 4,-6 4,-5 7,-8 -2,-2 -6,-2 -9,-2 0,-1 6,-8 7,-9 4,-4 7,-7 6,-12 -2,0 -3,1 -4,3 -4,3 -11,14 -15,17 -2,2 -8,2 -11,2 2,-3 11,-10 14,-15 1,-3 1,-8 -2,-10 -8,-5 -40,5 -45,10 -2,2 -4,8 -2,11 3,1 6,-2 8,-3 3,-1 5,-2 8,-3z"/>
   <path class="fil2" d="M685 171c-2,-1 -8,3 -9,5 -2,2 -4,8 -3,11 2,2 5,-1 8,-2 8,-4 16,-8 25,-9 0,2 -2,5 -4,6 -5,8 -6,5 -12,9 -4,3 -2,5 -1,8 -1,1 -3,3 -4,4 -1,2 -2,3 -3,4 -3,3 -6,6 -5,9 4,2 8,-3 10,-5 0,-1 0,-2 1,-3l5 -6c2,1 6,3 8,4 3,2 6,3 9,5 2,1 5,2 8,4 2,1 6,4 8,4 2,-4 1,-7 -2,-10 -2,-1 -14,-8 -17,-9 -6,-4 -12,-6 -4,-10l20 -10c4,-1 3,-1 6,-2 3,0 8,-4 7,-8 -4,0 -23,10 -28,12 1,-3 5,-6 5,-9 0,-2 -2,-4 -3,-5 -2,-1 -4,0 -6,0 -11,1 -17,5 -22,6 2,-2 3,-1 3,-3z"/>
   <path class="fil2" d="M306 183c3,0 3,-1 5,-2 4,-2 13,-3 10,-12 -11,-4 -39,2 -42,10 -1,2 -3,9 -2,11 3,4 14,4 21,6 4,1 8,2 10,4 -3,8 -26,8 -33,8 1,-2 1,-1 2,-3 0,0 0,0 -1,0 -4,-1 -11,6 -9,9 3,6 35,4 44,-5 5,-6 4,-13 -6,-16 -4,-2 -18,-4 -21,-7 1,-6 20,-9 26,-9 0,1 0,0 0,1l-2 2c-2,1 -2,1 -2,3z"/>
   <path class="fil2" d="M446 183c4,-2 28,-5 35,-5 0,2 -4,5 -5,7 -5,6 -10,12 -15,20 -1,2 -9,15 -1,14 3,0 10,-9 10,-11 -1,-1 -1,0 -2,-1l20 -29c0,-1 -1,-8 -6,-10 -9,-2 -33,0 -41,5 -3,3 -4,10 -3,13 1,0 11,1 13,0 -1,-3 -3,-1 -5,-3z"/>
   <path class="fil0" d="M82 136c7,2 15,4 24,4 6,0 19,-3 23,-6 -5,-5 -16,-10 -24,-10 -6,0 -10,2 -14,4 -2,2 -8,5 -9,8z"/>
   <path class="fil0" d="M82 23c2,2 7,5 10,7 8,5 18,5 27,1 3,-2 9,-5 10,-7 -7,-3 -14,-5 -23,-5 -6,-1 -20,1 -24,4z"/>
   <path class="fil0" d="M847 11c3,0 10,-1 12,1 3,1 3,5 0,7l1 2c1,2 0,3 2,7 -7,1 -3,-3 -5,-6 -1,-2 -4,-1 -7,-1l0 7 -3 0 0 -17zm-6 10c0,7 7,13 15,12 7,-1 13,-7 12,-15 -2,-17 -29,-15 -27,3z"/>
   <path class="fil2" d="M841 21c-2,-18 25,-20 27,-3 1,8 -5,14 -12,15 -8,1 -15,-5 -15,-12zm9 -17c-21,6 -11,36 9,31 20,-6 11,-36 -9,-31z"/>
   <path class="fil2" d="M124 80l64 0 0 -3 -64 0 0 3z"/>
   <path class="fil0" d="M117 123c1,1 6,4 8,4 2,-1 9,-10 10,-14 -2,-2 -8,-5 -12,-5 -1,2 -1,5 -2,7 -1,2 -3,6 -4,8z"/>
   <path class="fil0" d="M117 35c1,2 2,5 3,7 1,3 3,8 4,9 2,-2 7,-2 11,-6 -1,-3 -8,-12 -10,-14 -1,1 -7,3 -8,4z"/>
   <path class="fil0" d="M64 33c1,2 6,8 9,9 5,-8 7,-8 10,-13l-2 -2c-1,-1 -1,-2 -2,-3 -4,1 -12,7 -15,9z"/>
   <path class="fil0" d="M64 125c2,2 11,8 15,9 1,-1 3,-3 4,-4 0,-2 -6,-7 -10,-14 -2,1 -8,7 -9,9z"/>
   <path class="fil0" d="M127 129l5 4c4,-1 13,-7 15,-10 -2,-1 -3,-3 -4,-4 -2,-1 -4,-3 -5,-3 -2,3 -3,4 -5,7 -2,2 -5,5 -6,6z"/>
   <path class="fil0" d="M127 29c2,2 6,6 10,12 1,1 0,1 1,2 2,-1 7,-6 9,-8 -1,-2 -12,-9 -15,-10 0,0 -4,3 -5,4z"/>
   <path class="fil2" d="M850 13c3,0 8,-1 8,3 0,3 -5,3 -8,3l0 -6zm-3 15l3 0 0 -7c3,0 6,-1 7,1 2,3 -2,7 5,6 -2,-4 -1,-5 -2,-7l-1 -2c3,-2 3,-6 0,-7 -2,-2 -9,-1 -12,-1l0 17z"/>
   <path class="fil0" d="M128 197c-3,0 -9,3 -12,4 -3,2 -9,7 -7,10 3,2 19,-13 19,-14z"/>
   <path class="fil0" d="M792 197c-3,0 -14,4 -17,7 -1,1 -4,5 -2,7 3,2 18,-13 19,-14z"/>
   <path class="fil0" d="M229 197c-3,0 -10,3 -12,4 -2,1 -4,3 -5,4 -1,0 -4,4 -2,6 3,2 18,-13 19,-14z"/>
   <path class="fil0" d="M321 211c5,1 17,-11 19,-14 -2,0 -10,3 -12,4 -3,2 -8,5 -7,10z"/>
   <path class="fil0" d="M596 197c-3,0 -13,4 -17,8 -4,3 -4,12 9,0 2,-2 6,-5 8,-8z"/>
   <path class="fil0" d="M549 208l6 1c0,-1 0,-1 1,-2 3,-3 5,-5 5,-8 -4,0 -12,7 -12,9z"/>
   <path class="fil2" d="M746 182c-7,3 -6,10 0,8 4,-1 7,-10 0,-8z"/>
   <path class="fil2" d="M536 183c-7,3 -4,9 1,7 4,-2 5,-10 -1,-7z"/>
   <path class="fil2" d="M492 190c3,1 5,0 6,-2 2,-2 2,-4 0,-6 -4,0 -10,4 -6,8z"/>
   <path class="fil0" d="M850 19c3,0 8,0 8,-3 0,-4 -5,-3 -8,-3l0 6z"/>
   <path class="fil0" d="M756 196c3,-1 10,-11 11,-15 -3,1 -5,4 -6,7 -2,2 -4,6 -5,8z"/>
  </g>
 </g>
</svg>
