<?xml version="1.0" encoding="UTF-8"?>
<!DOCTYPE svg PUBLIC "-//W3C//DTD SVG 1.0//EN" "http://www.w3.org/TR/2001/REC-SVG-20010904/DTD/svg10.dtd">
<!-- Creator: CorelDRAW X8 -->
<svg xmlns="http://www.w3.org/2000/svg" xml:space="preserve" width="880px" height="230px" version="1.0" style="shape-rendering:geometricPrecision; text-rendering:geometricPrecision; image-rendering:optimizeQuality; fill-rule:evenodd; clip-rule:evenodd"
viewBox="0 0 880 230"
 xmlns:xlink="http://www.w3.org/1999/xlink">
 <defs>
  <style type="text/css">
   <![CDATA[
    .fil0 {fill:blue}
   ]]>
  </style>
 </defs>
 <g id="Layer_x0020_1">
  <metadata id="CorelCorpID_0Corel-Layer"/>
  <path class="fil0" d="M171 203c-2,-10 -4,-16 -5,-28 -1,-11 -1,-25 -1,-36l9 15c2,5 6,10 9,14 6,9 13,16 24,19 6,1 29,0 34,-4 2,-1 3,-5 4,-8 1,-3 2,-6 3,-9 4,-11 16,-36 21,-45 1,-1 2,-1 3,-3 6,-11 5,-9 11,-17l5 -7c7,-9 17,-19 24,-26l23 -22c-15,2 -33,6 -48,9 -16,3 -31,6 -45,14 -21,11 -31,35 -39,64 -2,7 -8,21 -9,28 -5,-5 -25,-32 -21,-51 3,-8 6,-11 9,-16 -5,-9 -13,-19 -24,-20 -11,0 -19,8 -25,19 -5,10 -9,24 -11,40 -2,20 -1,32 -1,51 -17,-8 -38,-24 -43,-52 -6,-41 26,-71 49,-83 3,-2 6,-3 10,-5l9 -3c1,-1 1,0 2,-2 -8,-2 -2,-8 -17,-2 -17,7 -36,17 -51,28 -14,11 -30,25 -39,44 -4,7 -7,15 -7,25 -3,38 31,55 51,62 25,8 59,11 86,7zm664 -40c-3,6 -30,9 -31,1 -1,-11 25,-11 31,-11l0 10zm0 -23c-1,2 0,2 -5,2 -12,1 -29,2 -40,7 -21,8 -19,26 0,33 14,4 33,2 46,-5 6,-3 4,0 9,3 9,5 25,5 35,2l0 -13c-4,1 -8,3 -13,0 -6,-4 -1,-24 -3,-38 -3,-21 -48,-18 -60,-16 -8,2 -16,5 -22,10 -6,6 0,18 14,15 13,-2 11,-11 20,-13 4,-2 9,-2 13,0 6,2 6,4 6,13zm-250 24c-5,3 -31,11 -31,-1 0,-8 25,-10 31,-10l0 11zm0 -23c-12,2 -61,2 -60,25 0,9 9,14 15,16 15,4 32,1 46,-5 6,-3 3,-1 9,2 10,7 24,5 35,3l0 -13c-18,5 -16,-4 -16,-17 0,-18 3,-25 -8,-32 -16,-9 -63,-9 -75,6 -9,13 17,20 27,8 3,-4 3,-6 9,-8 5,-1 9,-1 13,1 5,3 6,6 5,14zm-250 23c-4,4 -31,10 -31,-1 0,-9 25,-10 31,-10l0 11zm0 -23c-15,2 -32,2 -46,8 -20,8 -18,27 1,33 15,4 32,2 46,-5 8,-4 3,4 19,6 10,2 16,0 25,-1l0 -13c-4,1 -9,2 -13,0 -4,-2 -3,-6 -3,-17 0,-17 2,-26 -8,-32 -14,-8 -38,-8 -53,-4 -36,7 -24,28 -6,24 4,-1 8,-3 11,-6 3,-3 2,-6 9,-8 4,-1 9,-1 13,1 5,3 6,6 5,14zm309 -22l-1 13 14 0c0,6 0,31 0,35 -1,1 -1,1 -3,2l-11 0 0 15 57 0 0 -15c-15,-1 -12,3 -12,-32 6,-5 18,-9 25,-7 6,2 5,6 5,15 0,23 4,25 -11,24l0 15 57 0 0 -15c-4,0 -10,1 -14,-2 -2,-7 1,-28 -1,-37 -1,-8 -9,-13 -16,-15 -7,-2 -16,-2 -23,-1 -9,2 -14,4 -22,7l0 -7c-18,0 -27,4 -44,5zm-252 -30l0 12 14 0c0,10 1,61 -1,66 -1,3 -10,2 -13,2l0 15 57 0 0 -15c-16,2 -12,-1 -12,-32 4,-5 18,-9 25,-7 6,1 5,6 5,15 0,24 3,25 -12,24l0 15 58 0 0 -15c-5,0 -11,1 -14,-2 -2,-8 0,-27 -1,-37 -3,-18 -30,-17 -40,-16 -3,1 -7,2 -11,3 -2,1 -9,3 -10,3l0 -37c-16,1 -6,-1 -23,3 -7,1 -14,2 -22,3zm-274 -88c2,5 11,9 15,13 -24,5 -72,36 -94,58 -2,2 -5,5 -7,8 -1,1 -3,3 -4,4 -11,14 -22,28 -27,50 -9,44 27,70 50,80 54,22 127,20 183,7 13,-3 67,-18 75,-27 -8,-1 -16,0 -24,-2 -17,-5 -11,-11 -20,-7 -14,6 -29,12 -43,16 -31,8 -66,14 -97,14 -30,0 -83,-5 -103,-37 -3,-5 -8,-14 -9,-24 -6,-30 13,-56 27,-71 5,-5 10,-10 15,-15 24,-20 55,-38 83,-48 3,-1 5,3 8,5 12,10 21,21 15,2 -1,-4 -2,-7 -3,-10 5,-1 9,0 14,1 -8,-10 -18,-5 -27,-9 -4,-2 -25,-13 -27,-8zm53 24l2 9c9,-1 20,-4 29,-5 37,-6 109,-5 141,22 4,3 6,6 9,10 7,7 10,20 9,33 -2,8 -3,11 -5,17 24,7 17,28 18,47 5,-3 18,-16 22,-21l0 -28 -13 0 0 -27c9,-1 33,-2 40,-8 -1,-7 -5,-14 -7,-18 -2,-2 -3,-5 -5,-7 -22,-28 -69,-37 -98,-39 -40,-4 -85,0 -125,10l-14 3c-2,1 -1,1 -3,2z"/>
 </g>
</svg>
