<svg xmlns="http://www.w3.org/2000/svg" xmlns:xlink="http://www.w3.org/1999/xlink" xml:space="preserve" width="10px" height="20px" version="1.0" style="shape-rendering:geometricPrecision; text-rendering:geometricPrecision; image-rendering:optimizeQuality; fill-rule:evenodd; clip-rule:evenodd" viewBox="0 0 1680 3295">
 <defs>
  <style type="text/css">
   <![CDATA[
    .fil0 {fill:#FFC800}
   ]]>
  </style>
 </defs>
 <g id="Layer_x0020_1">
  <metadata id="CorelCorpID_0Corel-Layer"/>
  <path class="fil0" d="M666 1796l-131 357c-81,233 -188,499 -262,723 -10,28 -21,59 -32,90 -11,27 -22,59 -34,89 -12,30 -22,59 -32,90 -16,46 -30,63 -30,111 0,17 18,35 40,39l20 0c10,-2 21,-8 30,-19l208 -243c14,-16 16,-19 29,-35l386 -450c19,-23 41,-46 61,-69 13,-14 14,-20 29,-35l119 -138c63,-67 166,-200 235,-274 13,-15 15,-21 29,-35l119 -139c14,-15 16,-20 29,-35 35,-42 196,-213 200,-249 5,-39 -30,-51 -61,-61 -164,-51 -336,-92 -501,-143 -24,-8 -74,-24 -103,-25 0,-26 13,-59 20,-83 7,-26 14,-51 23,-80 15,-55 30,-109 46,-160l93 -325c32,-109 60,-210 92,-320l93 -326c0,-31 -21,-51 -52,-51 -37,0 -82,67 -120,111l-79 96c-11,14 -18,19 -30,34l-326 388c-13,14 -14,18 -26,32l-301 356c-72,94 -193,223 -267,318l-135 161c-17,21 -73,69 -27,111 18,17 586,174 648,189z"/>
 </g>
</svg>